<mxfile host="65bd71144e">
    <diagram id="uAI08LPZ1rFDprU1otC_" name="Page-1">
        <mxGraphModel dx="1002" dy="471" grid="1" gridSize="10" guides="1" tooltips="1" connect="1" arrows="1" fold="1" page="1" pageScale="1" pageWidth="850" pageHeight="1100" math="0" shadow="0">
            <root>
                <mxCell id="0"/>
                <mxCell id="1" parent="0"/>
                <mxCell id="20" value="" style="shape=image;verticalLabelPosition=bottom;labelBackgroundColor=default;verticalAlign=top;aspect=fixed;imageAspect=0;image=data:image/png,iVBORw0KGgoAAAANSUhEUgAAAmgAAAF1CAYAAABcTxaRAAAAAXNSR0IArs4c6QAAAARnQU1BAACxjwv8YQUAAAAJcEhZcwAADsMAAA7DAcdvqGQAAP+lSURBVHhe7J0HoFxF9cbP293X8tJ7SEJICIQeekd6R0BpUhREsPc/NhQV7AUVwYINsWFDQarSe5VuEggE0nvP67v7/vPNfV/eyeHsZpeSxv2F4c795syZuffdcnZuqxk6dGiXpKSkpKSkpJRlbSfLmu5pSsobQaZ7mpKSkpKS8hYEYVcVqcamILuRWSiLqTwlq6e85UkDtJSUlJSUtwQMmWIKUVFXCLC8ZCxXpxqkLi/ZIMvWTbDBWKl8SgpIA7SUlJSUlLcQ3WHS6ripe/41J4sNzphSUqqj7D1oNTXh90L4dUAwTzxda0DX13UJyqzuaUD78doBWtc+rG7rl8LarmufwPrV9XVdgjKrexrQfrx2gNa1D6vb+qWwtuV8AutX19d1Ccqs7mlA+/HaAVrXPqxu65fC2pbzCaxfXV/XJSizuqcB7cdrB2hd+7C6rV8Ka1vOJ7B+dX1dl6DM6p4GtB+vHaB17cPqtn4prG05n8D61fV1XYIyq3sa0H68doDWtQ+r2/qlsLblfALrV9fXdQnKrN6jUafvYpxqn4Q+tK79Usf/azKhfrHbV/w/RuEw3yWZaBbKY0mNZGoyUlQ+M8qn1r32ge6r7g9BmdU9DWg/XjtA69qH1W39Uljbde0TWL+6vq5LUGZ1TwPaj9cO0Lr2YfXYRvqQQEpKSkrKpsiaJ1GeIHtOgGtj9Ymy24+ugxyCs2IM9IIN/MaSMNcdoOHyJ1RcTsUFq5qYqemxU/9PSbGkI2hlsLbr2iewfnV9XZegzOqeBrQfrx2gde3D6rZ+KaxtOZ/A+tX1dV2CMqt7GtB+vHaA1rUPq9v6pbC25XwC61fX13UJyqzuaUD78doBWtc+rG7rl8LalvMJrF9dX9clKLO6pwHtx2sHaF37sLqtXwprW84nsH51fV2XoMzqnga0H68doHXtw+q2fimsbTmfwPrV9XVdgrJSdUlNzavv7PHqYR6jWskIWbcW8gDzSXDGeqE8aNnu0KuA+RCxoaijo0OKYVpXWx9CtBCkhdgt3uYG4JthWveIHii1DNB1/yx6OYinAe3HawdoXfuwuq1fCmu7rn0C61fX13UJyqzuaUD78doBWtc+rB7bSEfQUlJSUlI2NZKTXwh/1IkP+Uwms1qLJ8FgpwMvEIMvFYSxHmBd1MMlykKxGLVsCL6yIfhDvhBMC/jXVZBBgwdKZ6Egy5cul1rJSbZrzQAR3sLpOJlZDzAYKMbl6AkSQSYTlkqtr5R1S9mHBJINvIe4IXcnjacBrdFGJ0/3NOpA54m1AdQ8vVLWt0+rAa3RRidP9zTqQOeJtQHUPL1SqvFpNaA12ujk6Z5GHeg8sTaAmqdXSjU+rQa0RhudPN3TqAOdJ9YGUPP0SqnGp9WA1mijk6d7GnWg88TaAGqeXinV+LQa0BptdPJ0T6MOdJ5YG0DN0yulGp9WA1qjjU49OgKpQkw1mS7J5RCEhHy8DokgBMFIIZwBw3xIGFQLIUq8NBlTyMOuSB9xyCupo/P5QmfiB/bBD/6hdiHY5MP88vblcuYH3xPTivZlQQ9BW/DbmUlSke13953o5dFojTY6ebqnUdfY4IwgOCtX1/NVCq/uuvRpNaA12ujk6Z5GHeg8sTaAmqeDsgFaSkpKSkrKxgVGvBBohWm2SzrDvwXNS2Rh6xJZ0LZUlnaulK76GunMFmRJ2zJZll8pi0IghbSi0CwduXwIrvLS3tURylfIYpS1LpbFoS50BFntNZ2hbHnQlsnSUN4q7SHg6q7XXbaiZbFIR1Ha60OQ1xROtbkuacuGso7lshT1QloUgjbUzYdgDcHd6wUekvvdwkl+jVQjxXDSbwupJcznw5R27e3tMmTIEPnTn66Rm2+5Ra7/1w1y4403yX/+c5scdNBB0tLSkgRpwRaXcHMhjmso1kh9SNngBP9S3hyyTU1NX+3Op6SkpKSkbLTEoCz8w6XJrkwIiIrtsrxzlRx84tFyyvnvlj2PPCAEVctlxosvSq5PY9APlyWFVTJw9AjZaudtZVnHClmxbEkcAZP6rLzj3DPl2HefLLsevLe0FFpk1suvBL8izYVWOeSk4+TMD54tE/fdTaZMmypLli1NyoptsvNhe8tBpx4r2ZG9ZPRWY2RFe7M8ce9Dks93yE5v21PO+Mh5st9Rh0ixvigvv/i8ZDO18dIng6nXQhzXC1UxRfejlzBNLruKtIW0QorSEYdlQqAV1hEeYih0dsqwEcPlkku+JmM231w2Hz1aRo0aJSNGjJAH779fHn30UalraIj+aruDs975jNSF4AztxRTXeneb3VPmU147ZUfQqhmOsxrQGm108nRPow50nlgbQM3TK2V9+7Qa0BptdPJ0T6MOdJ5YG0DN0yulGp9WA1qjjU6e7mnUgc4TawOoeXqlVOPTakBrtNHJ0z2NOtB5Ym0ANU+vlGp8Wg1ojTY6ebqnUQc6T6wNoObplVKNT6sBrdFGJ0/3NOpA54m1AdQ8vVKq8Wk1oDXaJCkENyhDYIKAJIQHncWiNOfb5dT3nilnfuAcmTRzqiwNwdgnv/QZGb3TNrIqBG77H3uwfPbrF8pHPvNxOebk4+WL375YRuy4pXSsaJd3nnmqHHXisfLYM0/IirZm+cyXviAT99lDWpe1yknve7e865wz5fGnnpBe/frIp770WZH+9dLa1Szv+8QH5AMf/5CMCEHfSaeeLDvsvJOsDPWlXWSnY/eXj33x0zJv+QKZuXi2nP/pD8s+xx4mq1pXhkAHnV9z2Sxaow0S7oWL98uhGIFXXB9hPQS9LZuReV0FWVGfk23fc4bscv650hryyzIZKeZycBTX15KlS6Nf/bqPfKEQ70FDkFefr5EBbTWyTU0/2a9ppOzQEYLP1qwMbK+RxkII+NCHUEf32i6BXSa9DBo7X45qfFoNaI02Onm6p1EHOk+sDaDm6aBsgJaSkpKSkrJhw5MbRqDCKS3ehJ+Rts5OGTRyhBx54tvlRz+9TG787u/lt5+5VJ584gl5+8nvDJFIXha3LJNsfVa+dcklcvH7PyULQ5By5InHi/QV2Wu/veXnl18ud/30b3L1JT+SZx97TibstKP03n6EHHH8MfLtb31Lbr38b/Kdi74u2YZ62XavnWXQ9mNlr0P2le997Rvyw/dfJN/83MXSvGClNNY1iIT/TjjtZLnuphvkmq9eLn+96Cfy57//Vd5+0jukvk+fEAzl4yhUtWDpYwqVUb8Y5jgthOBqSXuryNhRMv4rn5fxn/mYjPnguVJ79OHxAYaWbPIQBMA72uKU1z4D2Wwu6pmwTvvkczKhs7ccnhspJ8hmcmr9FnJQYYBs3ZKV/h0iuUJXCOR66qa8ftIALSUlJSVlE4HhikhnCNC22HIsbpySo489Sj7166/Ip3/6Fdlm/FbS2toiIWqSXn2a5KmnnpJlk2fHs+HLr0yXQggyBm45Rnr1bpLp014S6RecNdTJFT+8TP78xz/IQUccJi9Me1FeeuJJqRveJF3LWmXS5CkyeMRw2T0EdbPmzpFpjz8nMqBe2mYskoVzFkq2K3RiRJPUNTTKjjvvKJ+98mtywa8ulgMO2E9a21ql+wHR1w3DI4ycIdxrDUHfyP32kYO/eYlsfvIJ8mymS15oyMk+H/2gyG47x/L2XE7yMUZ7dXBVKBQkWxBpKmRkRKFO9m4aKRPzfWX88qzslO8jB/YZJTs3DJb+xaxk8dRrDO5q4j/9t0h5baQBWkpKSkrKRkwyAoRpvBOqphj+C4FFTZfkO9ulo71VHrjvXrnnzjvl/nvukRv+eb3ccO0/RGpDgNbYJIvmL+qOIzJSn6mNI0hLFi0KdTukX7/eIh2hqKVD9tl3d9lt7z0ll8nKiuXLQwQoMQgCfZr6Smdrp3QF25oQrER/GJkK/xXzxdCXoHUUQws18vgjj8mdt/1bHrz3Hrn1xpvk97+5SjqaW6Qu+H0t4Qx6kPQiuWkfCfNtYR0UarNy+Gkny8A9dpEpna2yPJQsCEHXsjGjZOT73ysysL90hH52qggx8ZWAdVEfArQBLV2ybW6A7FI7SDZvzUnf9oz07cjK6I462a5xkAyq7ZU8MICHX8M0eQJBp5TXQtkAzb77BPNMGk8DWqONTp7uadSBzhNrA6h5eqWsb59WA1qjjU6e7mnUgc4TawOoeXqlVOPTakBrtNHJ0z2NOtB5Ym0ANU+vlGp8Wg1ojTY6ebqnUQc6T6wNoObplVKNT6sBrdFGJ0/3NOpA54m1AdQ8vVKq8Wk1oDXa6OTpnkYd6DyxNoCap1dKNT6tBrRGmyQVYwoqbqKK92Q1hABs2pQXQtBUkFy2Vp74033y6I13yy477yb77LGXSGuH5AoZ6Wrvfr1EV0ZGDBwqDZk6kenNMuPl6XLGmWfGETgZmJWzzj5LRg0fIU+GAGvXiTvLgG3HSnFpi2x7wJ6yy047ydRnJ8mj9zwo40ZvIRMP3E9keYdkRwyQISOGhgAtJ7IwBEjzl8jIoZvJ49feLw/++U4ZNWwzOfqwI2NwI6H/uEwZu9K9XBat9Sx71+p3tSXBUciH8lw2K22trfLXa/4si+bOkyZcZg2BYks2I68UOmXo/vtKvzPeFQxrZGWIBPJOHNU7Vyd98l2yQ7a/7N00Qka0ZaV/Z0YaCiEILBRj7Lpw1Upp7kBkinv/1iSZ7wnSdP+BXgaNnS9HNT6tBrRGG5083dOoA50n1gZQ83RQ9inOam5osxrQGm108nRPow50nlgbQM3TK2V9+7Qa0BptdPJ0T6MOdJ5YG0DN0yulGp9WA1qjjU6e7mnUgc4TawOoeXqlVOPTakBrtNHJ0z2NOtB5Ym0ANU+vlGp8Wg1ojTY6ebqnUQc6T6wNoObplVKNT6sBrdFGJ0/3NOpA54m1AdQ8vVKq8Wk1oDXarJGCjuAM75vN1mZl+fJl0tLWJu8+/3wZf/DucvTp74qjZtf98a/S1twixxx7jEx5drJMe/b5UDErhx15hORD4PbI7ffJ89OmyWFHHyVvO+5wOeL442RVsL/657+WhZNnyMDRQ+Xs950jE/bdRY478e1y6w03yBO33iVty5ZJn3595V3nnCFj99xW3n7yibLZ6JEyb85ceeTf98iMECidefqZsvuR+8uB7zxKdpiwg1z7h7/JopnzpSEbAsM4xtazPBatrV5m2mZqBG9kCzM4w8d7x+pytbJqxixZEQLUnUNQuiyXkaVSTIKxsI7GbzVeZk2dKs1Ll8pH3v1uGdCr1+ogESvzidvulvkPPyUn9NlSJnb2lkHteFggBIKhbGmI9/6bXSH3tsyVl+s6ZFXoPp8ijXEiptFRdJVMUVGxRv8Vdr4c1fi0GtAabXTydE+jDnSeWBtAzdNB1QGaRyV6NXVL2YJK7atprxTWdkPwqfVq6payBZXaV9NeKaxttT61Xk3dUragUvtq2iuFta3Wp9arqVvKFlRqX017pbC21frUejV1S9mCSu2raa8U1rZan1qvpm4pW1CpfTXtlcLaVutT66/yxWnQ45hYmNbmsjJlyvPyv5D69R0gzzzxjFx95W+ked4Sqe3KyLQXpsmLk6ZKoaMotZk6efnFaTLpyWcl31mQlUtXysOPPiYNjb1k1szZcvUvr5KWhculvqFennj8vzJv3gLp7OiQm66/Qe6/9U6pCwFWXaZennzsvzJz9iwZNnSY3Hf3ffLI/Q9L+7JmeeH5qbJi3uJQ/qT06tUks1+ZJb/92a9l+qQXpW9dU7wRP5yqk3+h73ZUBZRbfrznDA8FYECwUJOVrkxOsiHobAuBWttLL8vQrbeWfuPHybJiCNCCXUexIPVNvaTfiBGyavoMOfWYY2VY6FcWzcJ1SFNvukfyT06Tg+o2k5HNWeldDH5DUXMIxmbUd8rtK2fK5FyLrGgI/kKAKLi8G5YjPlWKZUDHAuyp7bOdJ6V0j9frU+vV1C1lCyq1X1t76aeeUlJSUlI2KbpCABK/kxk/t1SU5s5W6ejsiEM6DSEIaaptCPmgt7eGIK5W6nMYvZJ4wz5eT9FYXx+Di5VtLdKex+W7GqmvzUnvul7BZ1cIgjqlubUlfg4KTzr2bmyUHO4zC5UKIfDBazXQLj6VhFMt7ltrbGiMlyBbQ5ttHW1B7ZK6ukZpqu8lOQw5xUuzyV1HOjjjydoL2Aje/1YIbbR2ZaUzUxsCzGAb2s/VZuJXFDBaKBN3lIO/9y1ZOn6MvFhsk7ZMl/QKNlvkC9Lw+FPymQMPlaMaB4QgLDjsvvnpzg9+Tab96d9yQM1wGdackbpQsCpXlOkNnfJA21y5s7hAZjYWZBVusQvLUJMPQWE2G+K0DilkC9Ip+eT1IXFtlu5/ik/6sfQyWNt17RNYv7q+rktQZnVPA9qP1w7QuvZhdVu/FNa2nE9g/er6ui5BmdU9DWg/XjtA69qH1W39Uljbcj6B9avr67oEZVb3NKD9eO0ArWsfVrf1S2Fty/kE1q+ur+sSlFnd04D247UDtK59WN3WL4W1LecTWL+6vq5LUGZ1TwPaj9cO0Lr2YXVbvxTWtpxPYP3q+rouQRkCLHysPJYXQ7QRAyW8rBX1eupEX92zqy/rGVhOVt8j1p1Jnlosj9df1g9q8n/VfqnlS5at1PJ3SXNXCJ7q+8gBJ5wiS2vq5bnJU0RmvyKybEkoLogg0Dz+GDnsKxfK872zMj+Dz2AVZUTw12fyVNm9vSiXHnikDID74Lrz2Rly5WkfkXHzC7Jtay8Z1FkXRyYXN9bI/fnFcl/rXHk51F8S1m1tbR/p13uwjB46RnoPaJL/vvSwzG2eJR11bZLP5mP/kpQsB1ljnRhdz5fD2pbzCaxfXV/XJSizuqcB7cdrB2hd+7A65tMvCaSkpKRs5HgnhPUF+oJXXKxcuVIa8AZ6dRKqlFLLA33t/pJ6uGCIfPKR86SeTgD/j1bdbVHHfLSDphJBSVK6dnR7hPWtX+DZlyPxUSPL8mGdbT5Bdj7tXKnZ+QBp3OUAyW63mzSPHCfS0BfXPUX+N0WWhL/JFrvsLK2ZrnjPWi+M2s1fJHd8+/uy9w47yzbDh0W/X/zAJ2Txo5NkQuNg6dueldqaWllVm5GphXa5H5+pkv4ysPcE2WnY/nLI6LfLYVscL7sM2k/G9B0vS5YulzmL5kqhDp+/wqMEWL9+UJNSmvQhgTKsb59WA1qjjU6e7mnUgc4TawOoeXqlVOPTakBrtNHJ0z2NOtB5Ym0ANU+vlGp8Wg1ojTY6ebqnUQc6T6wNoObplVKNT6sBrdFGJ0/3NOpA54m1AdQ8vVKq8Wk1Ql2Xa3vmy2nUgc4Ta4MgBwEXvtvY2NjYrSbY+gjO8Kmgww47TF566aVu1YftWB9Al7EcUx1M2aR1L+iqFF1/XYE28d4xtJsElT19J3oe+WQ+9LVYI6u6amXIfodL08R95cWuXrK0vr9kBw2TERO2l+E77Cp9tt1J2gaPkFWvzJL8kGGy2YjNpH82I8NDgNZ3ZbO88sc/y7MPPSYfOetM+cVlP5ffXPZj2XHASBlc2yTZEJy1ZetlcU2jLMj0kczw7WTLCQfI7uMPlp2G7yPjGreT/vmhUteCy7W10pntlGnzXpTW2pXSkW0Ly4SxtzX/HoDLoDVg58vh1S3l02pAa7TRydM9jTrQeWJtADVPB+kIWkpKSsoGDA/gNjDR8zyxe2WgiEt9Ac4DBFIMBADrAtqjHFpra6sceuihstVWW8kLL7wgOXwiyAG2q1atkgMOOEAuv/xy+etf/ypLly6V2traNfxzinY8HVOUoX0ui84D2Oj5tcF22MaGSK9eveLfBesb61j3tfTyZiTflZHWhgEy/tjTpDBiS1lRrJOOmlx8EKAtX5SC1Euu/3AZuP3O0rjVDrJ43mKZfcfdUjdvrmxXVyt9m1fJc/fdJwufflamPvak3PSP6yTb2iEj+w6QXEODzC90yCstXdIwbBcZO+EI2XzoXjKicRvpUxwm2fZeEqIwyRSzkgt96cKl04aCvLxgqiwozJb2XHP3cvRsnymV0bN3pqSkpKRsEPAkhilO1osWLYqjV8gj4NGBTUtLi6xYsUI6Ojpk2bJl0QY6AhrUgYYpRsBYF6m+vl7a2tpk8eLFsQx1MA8b2C9fvjz6xU3fmGJE7Oyzz455BAqw94AO//BRV1cX59lv1EO/0Ge2g2lzc3MMSDBFu7BDUIcplh31kUeqBtvHUn1e36BfCGyPOOII+cMf/iAnnHBCWIeFta5rUsjnZdDggTJu5DDpXVOUvjUFaSx2hIAJlzHDNlKTlUXFjMzoqJHmXoNk+KhtRJYVZNa3fiR/+fgFcvMVPw/zK6R3Q73cdPNN8cPvNb0a5OW2ZfLksvly74I5Mq+xn/TeYlcp5EZLtmOo1LcMkIb2flKfb5JcTX1opxhHzjqz7VLfp1YGDOkn+bAMuVyyDXAZqv0bvpVJR9BSUjZgcEjbME8pKW82OKEhMBk5cqR84QtfkPe///3yrne9S/r06SNPPPFEDGhwAp8wYYJ89atflfPOO0/23ntvee6552TJkiUxSMI9YBdddJF89KMflWOPPTYGZf/973+lf//+8utf/zpOzznnHNl6663lzjvvlEGDBsnnPvc5+fjHPy6HHHJw8LNUJk+eHC9ZvvOd74z1J02aFIMJL3DAPIIu9Omggw6KwcbMmTNl1113lQ9/+MOxb/Pnz5dx48bJl770JfnABz4g++67r8yYMUOef/55OeWUU+Io3ZQpU2JgiMARQSFGluAHQRuxba8N2FdbZ12BfmHZpk+fHv9up59+urz97cfHoPvpp5+O65oBqwVvt8h0hTAsGwLsfJt0FTuloalRautqpRYv2Q3l+UxRCngSIQTHnXjBbC4rI8eMkmVL5ok88Zi0v/yi1HV2SEOxSxrrGyQb2sKt/SsLHbK0JQR8vcfLvrueIIPqt5Kajr6hH3jKFd/pzIa+hyZqQyBYn5fm2lUyvWOaPLn4QfnfsqdlcXGRdGbyoQvJJc4Ndf1vqKSv2Uh5C8GDw8axydtD2dp6Xa19yoYJT2IIdAYM6C9///u1Mnz4cLnhhhtiQHXaaafJhz70Qfn5z6+UHXfcUW677bZY58EHHwxB1SHy4osvxhGYOXPmxADptNNOld/+9moZO3asHHzwwTGQe/zxx+S+++6P9RAc/fSnP5Xf//73cuONN8ouu+wSgzX4HjJkiBx44IGy3XbbRRsEjAjYzjzzzDjahREyDfwhaHz7298u3/jGN2TPPfeMQd/DDz8cA6y3ve1tcRnQ58GDB8vdd98dNfhCcIk6++yzTwzaEKhsueWW8tBDD8nHPvax2L8BAwbEIMUGKlxn6B+CGs4D2lLTdb2Ax1KJzdrQ/SkFRhZxqRr97927dwyoEZDPnTtXvvOd78SRRtz/96plDwlxWEvILUNU1XeIyBbbSm78DjJs/DYyaMx4yfYdIG1SK+2FXHw/Wi5EbsNDjYYpD8gdv7hUskvmSlNXp9TigYHgHk+n4vJattAlvTp7y4FbHy0HbHWk9GsdKXVt/aSrs17qs/WSy+als9gsi5bPkdnLZ8q0xdNk2ooXZJ68JCtyi6Stvi0EaO2hZ3gc4fWvx7ca6Ws2ymBt17VPYP3q+rouQZnVPQ1oP147QOvah9Vt/VJY23I+gfWr6+u6BGVWTzQcbqgn9ZMbV9f0Sbz2tV+r2/qvJqmb2Cbtgh6fyUknOSxCZx/jJIIszJO2ekYD6AFTvPsJL4kErBrfB7W6nR7YZ6//tNe69mF1W78U1racT2D96vq6LkGZ1T0NaD9eO0Dr2ofVbf1SWNtyPjF6hGDl9ttvl0996lPyox/9KJb9+c9/jpclP/KRj8i1114r22+/fQyEEBhhZOp///uffO1rX5M//vGPcVTq05/+dAyu4PP666+PI1QYNUNwhKDv3e9+dwwGYYcAaf/994+jbAi+HnvsMXnmmWeizWWXXRZH8z74wQ9GX+w7puw78ujHO97xjujvwgsvlB//+MexvxgdQ9D4i1/8Qo4//vjYZwSHCD7RBoKQqVOnyk9+8pMYaCJ/xRVXyFFHHRX7hD5iBA9tIbF9gHkEdBMnTox9RKAD6jCKVJsEkZkM+pzsX9gH8Y4y/cCDXg6SzWZim3jXGdvU7ZZC+0LA1Yl3sHWDd6cB9KdQwCequsI0H5cP5HIhkAp5XNpF/84668yofeITn4jBGoNi9oO9QWyGUKilGPx25UJBsGvqJ7VDN5fh43aQzcbvJH1GbhUWqk4WzZ4uC6Y8Lp0vPy7NsyZJLt8qdRkel9D30L8wxcebcoV6GVI/SoY1jZUhTeNk1KBtpX/9aGkLQfXCZSEYW/y8zF8aArLOpdJc0ymF2s7QdFvoT4vkc+1SrCnEhxjg165jvS6trufLUY1PYP3q+rouQZnVPQ1oP147QOvah9VjG+kIWsqmD3YC7giYYpNnKg1rvP4dhO3bdsNOuEYuHMCiHSyKa2hJreT/iS/2LmG10v1eJrxnCZYpGxf6wI6AA8EBAjOMSCFoQsB07bV/l6eeejpevrzrrrvipcB77rknnMwbQiCQl3PPPTcGaNOmTYtBz+677x4vScLf6NGjY0CEkaY77rgjXsrEpU74wugZgrdbb701Xj5FkHDkkUfGIA9B0je/+U3ZYYcd5OSTT5a+ffvGdr2TEEfQvv/970tTU5MMHDhQ9tprT3n00cdk2LBhsa8AASKWD/e9nXHGGfLLX/5SvvWtb4Z+vyyf/OQn5E9/uiZe8vvJT66Qr3/9G3HEzT4oQKDh5vr3v//8EPjtFfseT3ChP/l8ZwiSQtAQ8qiPKdYFUj6fjwEUQJkH1gVsYYfATz+QYUHQRRAMYr0C1LH+MY/2kwAwu9oG7SGPZcAyYYQR6w2jogha6dOC40Q2/MvhdbL54KMjGxpuDMeBJsnVDZYBw7eSbXY9KARvGXnm8Ydk0bzJUlOYIb16t0iHLJdipjN+Iiv+oENfw/JhGbtq6qW5vU46M/1l8KgdZMedDpSxw7aXF6ZMludeuE8WLZwcosOFIfDDPYdZqQvHntpiyGfCuiq2ShbrJLSZBGkp1ZCOoJXB2q5rn8D61fV1XYIyq3sa0H68doDWtQ+r2/qlsLblfALrV9fXdQnKrA7zNUfQghYCICTkon3PoFYkfqokTHGwAvi/9mv7avvZA+qwHtriR51DHejhVzzymOsKR8ekVdghz1G1xAdCLrSV9Ck50XQFfwCXJOK/6DojBWTgI5h66wSwz17/aa917cPqtn4prG05n8D61fV1XYIyq3sa0H68doDWtQ+r2/qlsLbWpy7HyRqX/hBcIeDBpU1cbsTlL9y/hcDqgQceiIHL7NmzV48G4RLnl7/85XBiP0C++tWLZb/99pOFCxfGIGCbbbaJlxhxj9pdd90ZR+EQCGFUBpcdEcDhUiQCKwQluF/shz/8odxyyy0hePpWDNRwIzsCC94PpvuMPEb+jj76aLnmmmvk6quvjgEiRvUwCodLpvfee28MSubNmxf7jDoYSYN/XKa9+eabQpC3Mtb93e9+J4cffnhcJtyHZtvSQEefsX/pkTKMUkEHtg4CIZR5wRnrsAy2BG2V6ocF5Vj3HvCJMtigHfjE+sMU9+1htHKLLbaII5sIznH/oW036UsI5jMhMGvNSK9ib2kqDpDBdSNl7MDtZHT/LWVI0wgZ0GuzcHzoG2okb/pf0PaKTFrygDwx+25ZUHhJOupaJB9c45NRwTsaiF8BWF5TJyP2OlRG7Xu4dI3eVjobBgY/uP+sRppblsiCGc/Lgsn/FXlpisis6SKtK0Kn2qR3rih12XywzUs2BGg4xqLP7D/Q687qer4c1fgE1q+ur+sSlFnd04D247UDtK59WB3zr94qFbYBzDNpPA1ojTY6ebqnUQc6T6wNoObplbK+fVoNaI02Onm6p1EHOk+sDaDm6ZVSjU+rAa3RRidPD0qYJgfuNfVuYmAUdgqVgkG04e6DqVs3YOdfTdIHpMQn/q3pM7nqEXZKTAJwqbVEZ3CWEOsGo5igd5dxWWG7OsCErUlE54m1AdQ8vVKq8Wk1oDXa6OTpnkYd6DyxNoCap1dKJT5xcEbCZTGMnHz729+Wp556Kt73hXuymEeQhJM75nEpdOedd46XAhGs4VLnv//9b+nbt08M7DCqhXuY8LAALjmibj6PJ+ySIAsjNQiC8MQnLi/i/jNcLrz99tuiL4CAZcSIEavz9oSj5zHK88orr8TLnF/5yldif/GQwYIFC2I/Jk+etLrPCEQQwOEeOXDNNX+Offje974XRw0xgodAzgZRdt1xvTE4A8hjRAoBIRKCSp3gF8EopjZBR8KyYB7BEVO/fv3i/XAIdjGPEUUkliOI5jzyCC7pRyeUY4qyXC4ETmG9YsTsV7/6VUwIYt/znvfIo48+Gv1o1lj2cCrP5RtkZP1Y2W3ofvL27U6RM3Z7r5y47anytiEHyS61O8rWrSNl2+ahsm3LEBnfOlAm9hojm9cNkobmovTtykpjiD9r44XN4C38KfE1hrbgvrOQlxW5Guk1fgtZ0K+XTKkryP8aOmVSU1FmDh0otXvtI9ucea7s8LHPytjzPyH9jjhRZMvtZVWv/tIaArliIRzDnOAMcBk8vVKq8Wk1oDXa6OTpnkYd6DyxNoCap4OyARp3ONKzA/i6RWu00cnTPY060HlibQA1T6+U9e3TakBrtNHJ0z2NOtB5Ym0ANU+vlGp8Wg1ojTY6eXqPhinzYdPHqFNI2ZCPI1BIsI32SdJYn8TOrwl2tLADxhE73B+GX9LY7ZIDYTZMkYtXATDcFa3DDE5G+OBx0ptuHW2hLuZDCczCPPqPBD9oB59vgb9sdznsUU/3X/fZ67+1AdQ8vVKq8Wk1oDXa6OTpnkYd6DyxNoCap1dKJT55wMbID4KS5F6zv8egBUHNZpttFgMdBFUItjC6hsuPe+21VwxqcNkSAcTLL78iV1312zj68t73niMnnXRSDJIwsoXLiggO9OW9K6/8ebzEeeWVV8Yb9nH/2He+8914Txd48cWpMSDBZU4EEjyJsO+cxxQa+oDLqf/6179im1dddVX0hb4effQxcWRuzz33iJdw8eQogiGAkTyM4uHeultuuTn20QZnwFt3yCNo1Ql1mawOe05t0nUwr8Eych3o+tYnfYByNvCD+9wuueQSufTSS2X69FdiUIu/Hf5WCPZgq1ntD8eJfEYG1I2QE/c4W07a8Xw5aOjxsrXsKv1XDpP6VX0k294kmUJ96HhRCl1tUsy0y6Lls2TScw9Kpn2JDK7JSb+unGTDMRDbXSEsWzEsd1uvRpEQOC676w55/J47pTGEbbXxSISnQbMh1cryjpzMLTTIooGbS82+R8pmp39A9vjol6T3bgdLa2dOamvqcQRavV1ouAyeXinV+LQa0BptdPJ0T6MOdJ5YG0DN00HVXxLwqESvpm4pW1CpfTXtlcLabgg+tV5N3VK2oFL7atorhbWt1qfWq6nrmUKKKRQiNkpMwoEkZGifnHKSaTXtvQqYhIQwSsNLqck9Y0k4BsNEBexBgm6Ledhm0OlAvOQZs/hf4qdc34FXVqkGyvm2WNtqfWq9mrqlbEGl9tW0VwprW24eIz+4URyXtnBZ8WMf+6i8+93viU9RYlQKlz6ffPJJWblyhVxwwWfiKysQEF1wwQXyt7/9LY7a4GlMXAK96KIvxwANwQ8ujyK4w8gYLjfi8iICANyzhjf/47IagsLddtstBoC4jw2jT7g3DAEi7kuD/3z3CJ5dBly2w5ObuJx56623xHup8FqQPfbYI77k9uabb44aAkn0Gf3Aa0JwSROjUrj8ist6aB/3nuEBA7SPdnCSJ7Zd4umlbEEpe7aFvE0azNt+WQ0wILM6NVxmxjr9xS+ulOuuuz6uI4yaYTvQfSGr86EIR47ehf6yx/C3yUgZJw0r+0hje2+p66qXXAi+cIAr4B6zXJtk61ukprBAJj1xqxRbX5KxgxpkQGNWWttaZHG+Pb7/DK0t68rLnqecJNu88x0yrU9vaZs9W1aMGCEDhg6V+kxOajCKiuNL6EdnOK6tCsegZV0Z6Qh9HdTQIDOffkK6pk+VphpcGsblYj9A8yile7xen1qvpm4pW1Cp/draSx8SSHlLsPrjxDGQSVLyfxza4hEumVu9v3C3iKUBzldL4rDnXrFwkI65ZD4T3YaDJwI07JSxPOlbErIlsFtxPs6EXPgPAR9H/iAU8MRU8FXTxXvbEp1+UjYOcIDGSRlT3IeGS2B4/QUCIlz2w03+CMDw9N/Klatkp512iqNTzzzztMyZMzeOXiEgwEkeJ30ER/CFYA86Ah68LBZTBAAA7eElsZtvvnm8xIlLi0i4TNrQ0BjtMcqFd6LhkiRGtlafSLqnAIEG+os+wj/6jFEg9AP1EcDhkuu2224jY8cmT50iSESf4Qf3veFJTwSDSPX1daGPyaVYrhMGLOsSvYyvtX2v7/QLHeuYl19BJcvK+k0rB8gpW71XDtn8WOkV8g2dTVIbjgCZXJd0ZFulLbNKlrTPl/bFL8uAxTMkt3SG9Kltl86Gdnkpu1huXTBJpo3sLRdf/XP5zVW/lj/95U+yx/e/JTufc5ZMbu+QqXMWy6q5K6X5hVnSu2mwDBs6UjrrmoLfOmktZqUTB8/Q1xHZLuk743l5+mffF5n7vAzsapEs3tOWHoWqJn1IoAzWdl37BNavrq/rEpRZ3dOA9uO1A7SufVjd1i+FtS3nE1i/ur6uS1Bm9WifCdM4l4Q/CGpwn1b4f7wcmNyrhbmkrtd+8vqKZB56Yht8xT713EC8Jt1+ugO0jPDJt6TtHOrGuRBchSkCOJC0JVLobj+ZC8TLIfCFy5gIzhigIcCDj3wwhpZly9Eelzh7lgSgz91BY+y/Ke1uX+t6vVrd1i+FtS3nE1i/ur6uS1BmdU8D2o/XDtC69mF1W78U1raUT8JyPInY0tIa8716NcbLYbCnPwRDGBVDQIR7mgB0BGMIiBDkAQR1CJhQxnLbBwR1CKgYaMGGZQjKEETgJbR4uS1s+doHlMMe98Dh/je0Q/9I+r41TPnOMvQZ9RDAwddxxx0nP/rRD+WSS74WL/fhKVDYwz98wCfy9KXx9HK2gL41tNe69mF1W78U1pbz9M11xHnrV9fvqRvswr5fv7JJ9ul3qLxj19NlUHGk1Bca4uXMlW1LZd6KmTJr3ouycP40Gd7VLIf2apKxYf/v1ZmX5roOeS63RP6y4ik57tsXy0mf+5A8+dSzsvvpJ8vIc8+QrUOA9lywzfYeIIPyOXn2T9eJ/PFakc3GSmbLCTJ67NbSOHi4ZBp7S2c4rgwOPxJn/+d6mfHXq6W+uFL6FtvDgiUBmu4/4HICq9tlL0U1PoH1q+vrugRlVvc0oP147QCtax9Wx3x6ibMM1nZD8Kn1auqWsgWV2lfTXimsbbU+tV5V3aglSY84xUCpe3QN/1+9i+CcFIySnSb8CsW/4CPsNjFBxb0fnfmucGIpSC6Le0FQv7uNpHoP3TNJCYKp7vnoEyCCRC5J6BP70m0aidahT0k/kvnYf8hhWRDowWfPpdTk3rcghjw9cZrgra9KNVBK97C21frUejV1S9mCSu2raa8U1rZcO7oMATYDGby/i8AGiTe8Y6oP9MgjoEFdJAZbrKdtCUbU0A586T4A1EcQgXvZkHB5EoEaEr4eMHHiTiHIqo+v8ECwxXaIzvPmfUyhI9jDZVG8ngNPp+J+OtoB9LWUL42nl7IFldpX014prC3mkbhsTMD727AM0BZmISeZrpx0thdk2GZDpTPbJpPmPyn3zfm33PbKDfLw3Ltl7or/SZ+uxbJb376yTfgBNzDYYmSrLVeUl9sXy9j99pJTL/uGSIi3RwwfJtnBg+TZ9mbpvd02sjBsfytDm52ZLhk/YbzMn/aSyM03SNdTj8nyZx+XVS8+K71WzJdBuXYZHtqefPt10j79eekTjj/1CM5weOvus8bOk1K6x+v1qfVq6payBZXar629dAStDNZ2XfsE1q+ur+sSlFnd04D247UDtK59WN3WL4W1LecTWL+6vq5LUGb1aI/oKQYmIYVZ5JIRpO6DRxxMCr6TyZrtd8XwLNaT7vspkM0XMzJg4EjpP6C/zJ75ouQ722PQlhjCYawQUsh1B4HwA59xPvyXje2wLUhJvudFtZgmGkiWPxlBQ7+TYLO7fviH7+FhZC3TPRIXg7ZgX1MTToLRjoHfmuuRo2lkjeXvRq9Xq+v5cljbcj6B9avr67oEZVb3NKD9eO0ArWsfVrf1S2Fty/kE5fzquoC2pfQ3AvrGCBtG7DwQUCFYtO2irtcX6phitA/1MeKHKYI8XUf7YF809KPxNKD96DYA7bWufVjd1i+FtS3lE3h+tabr4gpAbbFOeuX7ycg+oyXbWisrVi6X5ZlFUlPbIbUhEBvRKnJUny1k78wQ2XJVVvp1ZmLANae+TZ7t0yynXH2pyBHbS3tHQerrsjIr+P3C7TfIvHGby5SmJlkYAnYc+Tava5SB02bLY5+5UOS5KaHjoR+deUTvEiJsaRjYX9rmzpDG9lbp3d6JeE/y3cedSpffW/ZSVOMTWL+6vq5LUGZ1TwPaj9cO0Lr2YXXMJ0fxlJRNnDjIxIT57hT/v3rkqlvHjhLvmQiBDXaSKIYdBqZBLYQpvm3X3NEh203cU4487lTJNvaXjhAUhfAo2uD9QUgJITRCIBXbSWBghZdGduGyZ3e97h6EnbMnH+djSuYwkoc8dmAEVri8muzcCCKDnxBrxb53B2dxNw/+oEez8L8i6oT+xdmQUjZ8cNDWB3TL2spsIjpPrA3Q8xj5wg3sSHyVBBNG3/TJhkAr5RNTlOOyaD6fjwGeDc7eStj1VA4cKvB7LJ8tSFvtKnlp5WR5sfM5Wdx7jnQ0tYZ1WpD+HV2yU+Ng2SUTArjWEMwVuqQ9/NhszRZlYVe7LO4fwqgtR8SDQRaBVpgOgfPps2TF08/J8LqGGGjV5LIyv7NNmrcYIYPPf4/IoP5BFGmor5W+oVrjgrmS/98z0rByhdQVQlgWj4NwlPJaSD+WnvIWIjnY6+MFQh2qyT+Wh//XZEOIkwvBTEjh8IR8AcNWIWLDxUTJ5CRfbJQ5cxfIrNmvxDdm00Mx2CHwKtbkwjTUi8FbcuN+8vqMTNQkWysFBGfIY/Qt1MPBOV7ijCenJBhLgPekv4nfbDDvbjO2l5E89OAHLaA+PvnSVRNOdCEVuqCGvqAfqBdPivCbhIYpKRsC1QQnKWHvDTtxPCqE1VaUvBRDQIbPLeVrOsIRoSi92wqyU6a/7N+0mWzZnJUhndn4cFJrtksW1uXlseY5Mrl3uxx93rtE+iUvA4a7XJj8/i9/kTuuu162OvhgqQmBeEv4ldeRzUhr+IG3xZjRsnTlSik89WQ4toj0D/1oCu31CseuHH7VhvnkYrw+hqVUQzgrlMbuKMmJI0kaTwNao41Onu5p1IHOE2sDqHl6paxvn1YDWqONTp7uadSBzhNrA6h5eqVU49NqQGu00cnTX63F+CSAwwbuHQtB0ep/+AWZC7FSvbTnc9LSWRd+afaVtq6QpK80FxqltRB+S4aApzZXJ9Neel4ee+xBqQkHLPiEr3y+Rlpas9LS0SCr2nOyMvhpr+ktnZne0iENgkH/1mKt5DPwlZMVbV2ysqMmTIvSmkfwhcApH/oRQi68zKwbjpwh0OvsapS2Qr3ku2rDr2cEkTUhnw3+6qWt2BAO0wjK6kMw1iQdxSZZ0VEr7Zm+UqgbKoXcIGkLy9UZ2o7vR3MOn3rdEb0ONXa+HNX4tBrQGm108nRPow50nlgbQM3TK6Uan1YDWqONTp7uadSBzhNrA6h5eqVU49NqQGu00cnTPY060HlibQA1T6+UanxaDWiNNrgvMDmGhTANo/bBBLdS1IbjQaYzL4MKGdmrfpBs3ZqT/kXu713SUtslk2pWyoMyV2bV52V5LjkOYNSdo16jahtE7n9YJv3xL7JFS7v0zWNkXqQjHOyW1mdl53NOEzl473C8apfWcLRpD3ohBHDoBB5TQv/0KKhdJi6Dp1dKNT6tBrRGG5083dOoA50n1gZQ83SQPiRQBmu7IfjUejV1S9mCSu2raa8U1rZan1qvpu4a9bqnAIeO5OWvYRpmMLqfL4i0h4NaMddbdtztQNn/4GNlx533kB1CGjZ6nMxftERam1dIZ2eXjN9md9ln/4Nl5oyX48MCbZ0ivfoNkwk77Cnjt91Fho7cQjpqGmXCxH2DtqtMf/llaWvPy74HHSXDN58gU2cskC0n7CSbbb6lDB4+KhziamXZ8pUh+AvBWQjQMCqG4xuf6sSks5iV7XY5QMZutb3MxqdVQsiGBUFQtvfBJ0qvvkNk1oyXpL6hjxx2zBki9YPDjj5ADjnq+LAce8p2O0yUQk1O5sydGw6i+fBrt+cASta2DjWldA9rW61PrVdTt5QtqNS+mvZKYW2r9an1auqWsgWV2lfTXimsbbU+tV5N3VK2oFL7atorhbWt1qfW17CJWfwPo+EhCOvCfaj40HmX7NB/uOyVHSzDm0V6YxQ96M3ZLplR1yF3t86Wp4pLpThqgLz9rFPj5eo4Ihd84wfnfXfdHeKzR6Rl+nQZPGGCDJmwlawshkCskJdCZ6cM6t0oW22+uUx//EkpLFwUjiXhABoOJ7FrwQ+OqZrXu/wer9en1qupW8oWVGq/tvbSS5yvA71y7YrGfKmVn7J+wTFDHzfi5QEQ/lz4m+ESYF56yX6HnCDb7364LFzeIfMXzJOVre0yeutdZMCQUfLClGels71LttntKBm3zW7ywguTZOnS5dJnxFZyxPFnyIQd95L63kNk+JjxskUI4hoGjpdefYbKtBeek+bWNtlq4gEyfOxEGTF2R9l5z4Nk1ObjZez4HWTMljvL/MXLZfmyRYIfovglHH8ZJ0fgGKx1FGtlrwPfIQOGjpYpk5+SQrEjef1AwwDZ94gzpK5pkLww6clQuUG22+NYGThqR9ly213jPXKvzJgmdY2Nsu3O+8jylS2ycM5LUpdNfhWnpKRsfPQcz8LPua5w3kmy8chRG45nI+v7yvhMH+mfz0pjHvfPdsmcXl3yUOs8uS8/T2bWd0r9kH5y2plnrA7QcBxEgHbnXXfJg48/Ll35vMx+aZpsscce0jhwgLR0dkhDOEANDQFZbt5CmX7XfVJYsFjq8WqV0Dz6EH/wdudTXhtYfyUpFXSU0i1ao41Onu5p1IHOE2sDqHl6pazNJ4ducXLE+3ww5cYdf4V0l2s/Og/or5Ru0RptdPJ0T6MOdJ5YG0DN0yulGp9WA1qjjU6eDuKTjSpRB8zjr4WnoTrzRek/cIhM2G5nef6lOXL97/8ud91wi9z+j+vkyaeek1GjNpfBg4ZgyEraQ7DU3JmVjkKtSG0f2fPAo6VhwAj553XXyZ/+8Fv5/dW/lWnTXpFcw8Bg2xg6gs+tZGXZqhAGBm34yHFy330PydVXXSX/DP7zmV6yw65vE8n1ls7guy0cVNtwibSAlA0a7iqpi1prB+ZxnxzuZ8MTnBlZ2S7SVqwLTeBSaq2s7MhJr37DZfHSFfKPa/8mD958vVx33d/llTkLZLtd9pK6Xn3DMmN94HDeg153hJqnV0o1Pq0GtEYbnTzd06gDnSfWBlDz9EqpxqfVgNZoo5Onexp1oPPE2gBqnl4p1fi0GtAabXTydE+jDnSeWBtAzdMrpRqfVgNao018/U+cYh/unuLMHlJnODq8vHSB/HfFbHmhrkVm9y7IrJD+m18o/+1YIIuaumRFbSE+zUmi3+58OIlJNgRnfbLh+Pbc/+SBn18pWyxbLhNr62TrQpdMu/FWueNzX5TC1BeldwM+6dT9U7LH3Rro/gMug6dXSjU+rQa0RhudPN3TqAOdJ9YGUPN0UDZAY4BBGHSU0i1ao41Onu5p1IHOE2sDqHl6pZSrixWI9/bgcyt4NBxPHeHpI8zjRY4I1gBfqkg8n0waTwNao41Onu5p1IHOE2sDqHl6pVTj02pAa7TRydPjpo4vj+NPEp9kVLaxSPkM/7I5vIG9VZYuXSwjRo2UbfY/QIZN2EGkTz954sE75NZ//l46Vy4KQRSsQ0SUKYZtoCgDBm8mozbfWp595lmZOekRyTTPkI5Fz8ukR++QYttKaajNSW34hYlrqHiFQO/Gennx2cdkyv23SHHZKzLvpadkzqzpMmjIcKmra5ICAq3aAVLTMExq6kOqGyQ1tb2liCAvBHJ5fIhYssEu+VGAl5nmQ3CJy6L4f7Ljh/YKnfLsY7dLYfEL0rtPQQor5skLk5+Wvv36ycDBI0KdcBjAL++wGniY0OuIUPP0SqnGp9WA1mijk6d7GnWg88TaAGqeXinV+LQa0BptdPJ0T6MOdJ5YG0DN0yulGp9WA1qjjU6e7mnUgc4TawOoeXqlVOPTakBrtIlaPL6hLIRIYYqEY0Bntkbm5Trknvw8ubZtmtxRv1Durlsod3bOlGm92mRVOJTkw46PmqvfkYd894EAX6roKhaktqsotSEAK/zrXzLn93+QrV9+WSZd+kOZ9aVLRF6aKb0ytVIfjoG50Jf45DuOPyHBLxKxy7TGMijsfDmq8Wk1oDXa6OTpnkYd6DyxNoCap4OyAZoX1TFpPA1ojTY6ebqnUQc6T6wNoObplVKqLkbL8EkUfLYEHyr+7W9/Gz8I/Je//EW+/e1vy3777RffEYQAzq54zyeTxtOA1mijk6d7GnWg88TaAGqeXinV+LQa0BptdPJ0gF+ZOOjEpx5jvudgBA1/JSTkYde8cpncedvNsmzRbDlg393l5HecIO89+z2yz157ycL5C6QlBOJ4UgmvuYA9XpvRu3ffkKmVWbPmBD+d0iscGPvWd0nLsvmyYtlCqa1N7v/Az1scvgohcJo3+5Uw3ya9azulrqY9vksNu2V7Z0HGbjlBzj73/fKud79XTjvrHHnPe98vu+y+V3xPkdSE4KyIC6C5EKJl4/LhA8ctra3Rf/hfDDzxwMPKZUvjpcyGunw40LaFILEoq1YsD/2pk/r6xhjgYeEzWJAI1lEyqqax65TY+XJ4dUv5tBrQGm108nRPow50nlgbQM3TK6Uan1YDWqONTp7uadSBzhNrA6h5eqVU49NqQGu00cnTPY060HlibQA1T6+UanxaDWiNNkjJ8a37mIb9OCS8E7EQpNa6GpnbUJBnMyvkPytfkTtWzZCX6tpkcX1RWvFpuG5ftXU9n5ci8BsONJINx5I+YR7PETz5xz/JHz75f7Lgd3+QTEuHDAzHmN4hOMsGO9z31nM0fTXaN2D/Pb1SqvFpNaA12ujk6Z5GHeg8sTaAmqeDNY/ABi+qY9J4GtAabXTydE+jDnSeWBtAzdMrxbPFCxqhn3feeXL33XfHb8bhG3j46DA+CIyPDuMDw3gL9sCBA+ILF/XK9/rDpPE0oDXa6OTpnkYd6DyxNoCap1dKNT6tBrRGG508HYRDVZK63xmGFHaL8A+FYT5kkPC4OI5zjfUZmTv9ebnhTz+Xf/3lSnnkgVtl/vzZstOu+8hJ73pfvP8r3wk/8VklHA+lqxA/1hS0MMng0iN81YRgKwRehY5wyIrjWiLZnNQ39JK2+EmdVXhbR3dZqBj6gj7lsrWyePEi+d//ngnpaZk06Rl5LqRXpr8iNdlMfMqqtq4u3nOSxSXKsCsX88Xgr737DfDYtUNZcN6BdlpWxadC48EzdKwu24ifzlLId4Ym8b4i9AGl3SmYcd0RrjdPr5RqfFoNaI02Onm6p1EHOk+sDaDm6ZVSjU+rAa3RRidP9zTqQOeJtQHUPL1SqvFpNaA12ujk6Z5GHeg8sTaAmqdXSjU+rQa0RpuehCMO3nGYvP8QcwAhWEc4HKwKx7QZDV3ycl1Blod8W9D4tCZ+3K1a1RzqJZ/zQgI4duDGf5hlQ9N9cuGYs3SlrPrfVMGb0fqEYxnK7IuuS6H7D3T/NXa+HNX4tBrQGm108nRPow50nlgbQM3TQdkA7a0OAytMMfyLb8fhg76//vWv5bvf/U4MyPC5k8MPP1w+97nPyZe//GX5yEc+ImeffbaMHz9errzyF9K/f/84kgYfTCnrHmzu3AX0roC/BhOtsHPgkuXOu+wsm48dI/NfeVkef/ghufmf/5QbbvqP9Ok/VMaO3yaJ5rAjhYNbTQhyOttbwg5VkNGjR4dgLSPtXfWyqj0ESfV9pb6xj+SDLQ6caAPxU/LetOSFsnjZLN59Vlebka4ivmhXkCWLF8jdd94iD9zzb3novtvl/rtvk0Xz58RAa+WKxYgBpStTJ+3FemnuCEFZXX/pP2h4aCMsTbxcgVG1gvTp21/6DBguzZ05aZNG6SzUyshRW8RL86tWrpBcDrboW1j2kAPJtGfNpKSkbNhw39XEk3+YFsKxpjUcX5aFKGtFXY00h2NIZ9jtcTRqqK+XxUsWywc++AE5+eST5LTTTpNTTz015E+W//znP/Hlw/G8FX48ZkNqqsnK0FyD9CnUSC4cJ3H8cxtPed3gyJyyFrCR5/PhBNzZKRdffLEce+yxcvrpZ8gZZ5wRvxmHS0MDBgyIH/XFxozA7ayzzopvwr7kkkvi/Wh8gAApDdLWBww2knWfhEk9AQnum8DYUTYcxBC44DUUe+x3qBx8zLukz+jtRGp7h4iqTmrr62KQ1YF3cYQoC3d7ZUJw1lCblQVzZ8jcGVNlh+23kSHjdwzBUH+pHzhW9jvkeGnqHwKk1vDLNB9+mdaEoKyYD20WpNjZEdsG2VxW6utzku9slXxHizTkCtKvUWRAL5H+jUXpF379NmRxuaFNFsx7UfoPaJRBo7aUtvZ6KTSNlr0Ofac09RsR4sZcaAMv0S1Ke0e71DX1k132O1akaQtp6ewvm22/j2wzcVeZ9sq0cGBelFx6jUufwM9SpcfclJSNi+S4lhzlkOI+HM5PGCnrClMQz2ehBF9EQTkGHzra2uWeu+6WW26+Jd6uc8stt8hNN90kc+fOkVxtLqkfEg4NeJ4AnhA8IM/5lDee9DUbZdCB1MqVK+Xoo4+Wz3/+8/LhD39Y/vrXv8ZLmL164c3LSZwLe2zseGBg2bJl8uKLL8onP/lJeeaZZ2TatGnxxnDYpAHauoVrO5ny/zg04SCDUSxoCFHwN+wKwXSNtOfDr8z2omy+5fay/U4TZcTwITJh++1ltz32kEULZsnjD/xH2lqbZfxW28nmI4fJC88+LMuXLpbFK1bJ+K23iXWGjx4je++9nwwcOkqaO2ulZdUKeWXKQ5JvXyHbbr+TDBvcXyY99bC0Ny+RXCaPxmWHnfeU+toamfL0A4LxrqzgpR+FcBDEKF0hpkKhS1o7OmXzLbaQcePGS99hm8ne++4vI0aNkbaOcIjON8vU5+4PtkUZv80ekq1tkCHDBsvYrcbLqLHjZO999o6v8bjr39dJTccSqQ9BH74DxfXETFwf3espJSVl4wO3WOiHoJJ7ysIPU+7smCLACjo/uD927NiYx2e3kFCOGzBQFwEaqxI7n/LGUfWLar0Aw9OA1mijk6d7GnWg88TaAGqeXim0xZMsyH/jG9+Qp59+Wr75zW/GETNsxHpEDFPmEYzNmTNHDj74YNlqq63k5ptvXh2gaVinlG7RGm108nRPow50nlgbQM3TK6Uan1YDWqONTp4O8OMR2Z4UyvAvHKniB8758zAEKrlcNgba8+bNldmzZ0i2plNGjhgiTb3q5X/PPSGP3HerdKyYLY114eDX2SFL5s+QhXNeDAezLmnp7JKXp8+MPoYOGSzTpr4gDz/8mAwduWUInNpkxuSHRDpXSH1dRpqXzZOXpz4ttTXtkqtJLhPg6au5M1+S5QunS20G3wPl2Ba2s9BFLEvoGx5SWLZkkWw2YoRsFoLHjrblctftN8vyJXOlMdsi0194PCxXl2yz3W7xyeKHH7xDRgzpK4P71stLk/4r993xD2lbMUuacsloHh5bSMCPjbBewgTthQ08qlHDOutOGjtfDq9uKZ9WA1qjjU6e7mnUgc4TawOoeXqlVOPTakBrtNHJ0z2NOtB5Ym0ANU+vlGp8Wg1ojTY6ebqnUQc6T6wNoObplVKNT6sBrdFGp7i3qoMdrGNQFfL4MRqOdEmgFf6t3rMRxIU5XCXqFQK0L3zhCzJ9+nSZNWtWzzku2MUfs6gbEuoiRf9hvlKsLf15eqVU49NqQGu00cnTPY060HlibQA1T4/ToUOH8u+UYsBKwsaJe8iGDRsmv/rVr+IDABj6xb1o2KBxsqQd6xA86fnpT39aTjjhBDnllFPiKNxb+QPA65OeQwrA3yjsFPFnZPL3itl4gQD3giXfyewoZqUtpK5MvTQ09MYPT2luWRVf7NqnNn5BU9o6gm2+EAKuomTqm+Sod54n0+evlPv+fYdIXb2ESEpqh46SU979UVk0b7rcfd2Ppa64PDSbizfo54Kv2kxXPHDi/y3x3twu6VWfXDpd3eXuTPwFHFoOtaStEHqQa5IufM+z0BEfOsjW1scvA2SKK8OBt5cc/Y6PSr6rTq77868lE/rYkAsH4vblks20SUNtOGAXw/LiHrq47GglWR9JewwOAfWUlJQNlbi3hl119V7bneHey3uasLfHPTwU8PxVDOezpl5NcsUVV8jPfvazePsO3lSA23NQH8cejsYlR4v0qPBmw7+Xiw42AOaZNJ4GtEYbnTzd06gDnSfWBlDz9GqIG27YQEeNGhXnp059If6qgGaDM4A8E0bMcD8a7PF0J+pYyvXTakBrtNHJ0z2NOtB5Ym0ANU+vlGp8Wg1ojTY6eXqi4W+V7U7Ih+AmFHVh5CoENOGvnBywkt+YcceoqylIn1xIIZjJtC2UbPtC6V/XLr1zHVJTaJeuEBTVZzulsT4Ea5m8dHS0yaJFi2SXXfaQPQ87XqRxsEjfYbLHPvuHA1+tzJ35ghTbVkhDTafUS4c0ZgvSkImfYA8Nd4Y2O6RXbWdIIfAPwVlPUNmTkie0UIa2OySbXxr7VV9YIQPrO6VPzSppKK6QOoGPUKcz/CrO1oQ+5oO+RHIdi6R3tl2awmLmQnDW81g8SPJI+BGeBINMa65XjZ0vh1e3lE+rAa3RRidP9zTqQOeJtQHUPL1SqvFpNaA12ujk6Z5GHeg8sTaAmqdXSjU+rQa0RhudPN3TqAOdJ9YGUPP0SqnGp9WA1mizRgo6RrrwbDkSduT44/PVlxBCim4iDORwjsKABM5tuBeX5zY+QIQ2UBdVWT1qFWJtV/fb0SulGp9WA1qjjU6e7mnUgc4TawOoeTooG6DpwAPo4EPjaUBrtNHJ0z2NOtB5Ym0ANU+vBmyoBNfjM3h0rhusxHL+UI570WDDoWKvP+V0i9Zoo5Onexp1oPPE2gBqnl4p1fi0GtAabXTydBAPMN0J+eSAk/xD0JNYhR0l/AtF8XiGBwZy+FZlCIbqMp3SkMXXLkNQVAwBWgjokoTAKgRDwRbz99/zH3lh0hOy9+4T5d1nnCannHaS7LTdeJnx4pPywrMPSWMtHkSInzuXXAgAUVdiwBUCxTDNRH+dIY+D4+rfua9K+Jh6TQjq6kJgWB/6VlfTIbmu9uQ9Z6F+FverIYDMhX7ngl5cJfU1bcG2Q2prQjt4SCH+MtZ+Af0nSUPN0yulGp9WA1qjjU6e7mnUgc4TawOoeXqlVOPTakBrtNHJ0z2NOtB5Ym0ANU+vlGp8Wg1ojTY6ebqnUQc6T6wNoObplVKNT6sBrdFmtW1I8bTenacGePxbfeyDHv6LgVmx+/6ykGVQhnvRQLTrJjlmrqkBO18Ory6T5s3yaTWgNdro5OmeRh3oPLE2gJqng3QEbS1gRaHOkiVL4iXNIUOGxKc5oXElej5ZzkuhrGNtqZXSLVqjjU6e7mnUgc4TawOoeXqlVOPTakBrtNHJ0wEOQGsm/O3498OIWbBFPvzNcEM+ymLV8L81d53EP4kmyBRrpC7E7sX2BXLPv/8od/zrKlk84ykprJop/73vernnxqulpnVuCJhwAMSbiZIEdD9Jj9bTT7BG2902PbYJyOHdRQj0nnr8Dnn0oZtDvlWymRCQBTscaKNdrLKmf2J9AmqeXinV+LQa0BptdPJ0T6MOdJ5YG0DN0yulGp9WA1qjjU6e7mnUgc4TawOoeXqlVOPTakBrtNHJ0z2NOtB5Ym0ANU+vlGp8Wg1ojTb6uEY9/C8pC0eD+KQl5sOvTm0LayaCcxaSHpggbJvt6lQp1raUjzfLp9WA1mijk6d7GnWg88TaAGqeDsoGaCnJBltbm4s3TGI0DO89wzAwgzONXdl42d9uu+0W70VbuHBhvHE8ZQMnBG7xkkAIWuK/GKyVBwFe+H/4+ZmXhmwhjlZNm/yI3HXLX+TWf/5Onn3kDsnll8QvC2RCcLaa2Nart6M3AmyfCBinT3tWXp76lNRmk1E+LFeyjcIG23EStKWkpGyc8Aiip8kxLB6VkhTEmLrnNdj/eT5Dnrfi6CBNHyOS48ea57qUN4f0NRtrIbnPLHlJLb4K8IEPfCC+NuOFF16Iw8B2A+VGu2LFCtl6663lO9/5TvwE1H333RdfyeEFdilvPlzrmDIBHMhiIIZgKarJ84xJefL/5C9c+kCUWGVCABS2lfD3zQbT+hCM5+L9ZZ0hUArBEm7cD8EZvIctJGkjusTl1TCXOHnDiNthmGbDMbY2tB+Xyr1kmpKSsrHDPTu+rwxC966NCY9cmCJIwykIerdJOHThWJEEZrgV56ijjpJJkybJSy+9FOc1aUC2bik7glYq+CilW7RGG5083dOoA50n1gZQ8/RKgS0CKkwRXN12221y1VVXycUXf1V23HHHeNkTo2TYsOkXH6zGSNtmm20ml112mcyfP1+uueYaaWpKgjOvP0waTwNao41Onu5p1IHOE2sDqHl6pVTj02pAa7TRydOphf/FpHUcppJsOFyFaXKAQ3kSmEexG9brqZuQzIcwKwRA8fIBROSlEJ+oxL1muF8MXweAKQ+M8eW4sA/p1T51+z2pR0vKbQL0FfsT2kRCSAgdRUzEtg0S2x69Z514fX11/VJ4dUv5tBrQGm108nRPow50nlgbQM3TK6Uan1YDWqONTp7uadSBzhNrA6h5eqVU49NqQGu00cnTPY060HlibQA1T6+UanxaDWiNNkjxGIIbZ7t1HlOQcLxhHjYxhbwHR89wruL5iok6pzpVim3X+id2vhzV+LQa0BptdPJ0T6MOdJ5YG0DN00FyRE9xwYa3ekVlMvEVGT//+c/kjjvujB9I//jHPy59+vSJ75nC6Bpeo5HL1cZXavz73/+On3u64IILZPHixVG3f4SUdUccKXNW/+phfxxjYp4HG+SS8S6kciQWuNE/H7YZ3FuGUAzPZtbi/tvV93yBrjhihpvzk6ApPmmJgyIuNXbb9IAdtycgQ8JnnPCkKR5fKHbh4+uJXZLgH+UJyY7P+q/2XgnwVQx+ukLCl63gp5oDckpKyptPPEKE3ZKJJFcIkh+eCL040gZWHxVwkFLwPIUHBkByHOlJ6f6/7kgDtDJgY9T3m+EpzmLYmH/wgx/EkTRc7vzHP/4h3/3ud+M3OL/0pS/FF9L+9rdXxXvWTj/9dHn22WfjKzbSjXpDpPsQ1R25xf/HP1O1fyvYJwmXORFAteXxLc6cdGVwiYBBUgJDKLaHF+XGQKr7ABjlsL0kKRmdjTpswg+F+AxoMSf5rtrQdQRqwS666mljTUrplZG0H5YHH1HGp6lUP1NSUtYvle6JDNaSo8+rwT7O8xT2b+YxOJHc6uO3lB4L3jzSAG0t8GTEQA3vNquvr5ef/vSn8QW0f/jDH+L3N/fbb7/4QMDUqVPlve89N46iPffcc6vvU0s34vVLHClzj0z4u/Qk5qoBbum6q1CUXG2DHHbMO2XcNruEoAYq3kgU/qEPYZdLUvJPMAoWynExEiNVhZArBsN4qTQUI+HzU9h8EJ+15ztl4LDN5KTT3ydDR24lrfnub+qFBNxFXAPd27UDt/kQmPXt01c++5nPyuBBg6WlpSUpS7fplJT1Trm9OTnmdE8dw3L7MMtw7tMDFSnrjvQhgbVgN2DM83Inns589NFH5YYbbpAbb7xR/va3v8U0ZcqUeHNl/I5ZAFP6STfyDRV7oMLfqdK/VWKHgKurWCO5+n6yy75Hxe95znhpSnxIIPkYO36VwhBtIYVALROCs6B1hW0qXp4MZVm8ay8Eboi6YuAVorQu5IN9Z2deBg0eJjvtsrdMffFFWbZsbrBHABcMYxvwnMwn2xrbSppNtKS/1NdGPrSJL2nsuksIONvb4vaMz5jhh4rdP1JSUtY9eq+uBu6/nOLcxocEMNiA8xzgeSvd39ctZUfQ7B8D80waTwNao41Onu5p1IHOE2sDqHl6pcAWGyaS9oV5bMgIwnAPGt51hjwSvtGJETWMtOFEllwWLcbr+ZgC3Qf61RrwNKA12ujk6Z5GHeg8sTaAmqdXSjU+rQa0RhudPN3TqAOdJ9YGUHu1jt0IWhJk4TNR+ARUvlAb5jFChjq5MM2EoC0vzW3tIeWlvTO5NBmJI2m5kMlKvhjqhuCuEynoHWG+uT0f/NVIY0MvmT93jvz6l5fLzBnPS2N9CPK6gq/W1mQ7ha8Q8WEkL7Qa25Qa+E7uX0uG5YIWA8IEuzxgzeXEq2ay8tJLU+Wf//xHHCneeeed45PKxPPh8ep1V2qdvloDWqONTp7uadSBzhNrA6h5eqVU49NqQGu00cnTPY060HlibQA1T6+UanxaDWiNNjp5uqdRBzpPrA2g5umVUo1PqwGt0UYnT/c06oQBGM5rwNqwHNi6dr4cXl0mzZvl02pAa7TRydM9jTrQeWJtADVPB2UDtLc6eqO0eQRbWIkc+kUewZi1ow3gxq9tUjYFsDMlwRnySVBUJx2FEBSFv3khk5X2EHwt78xI05BxsuXEA2Srnd8mfYZvJcs7aqUj0yh5BHI19dLcWSuthSbJNo2Suv7jpFUGSnt2iIzbYX/J9h4Wvw+aL9ZIU/+hkm3oEwI5kYbG/jJqy4nSJv1lZUcvaa/pH1NzvkHaQpCY7wqBHz4IH4Iz3K/W8+UEsubBwaMrbMO9m5pi/je/+Y1su+22ss8++4YgbWUIJPFwRCx61YEmJSVl48Xuz+m5a92SXuIsATZMbpzM641Tb7jaVkN7BmaY0o+uk270GzP4G/Yk/CmzdX1l3Hb7yKKly2TWzElSk+uSVfmMbL3z/nLgse+WMdvuJ6PG7yJjtp4o85e3yIIFi+MIVWtbXnoN2lL2PfRU2W2/E2T8Dm+TYeMmStOgsbLngcfJvIXLZc6MqTJ087Fy3MkflgWL22XOzGkyZsvt5KBjzpV5Kxtk9NZ7yD6HvEO22+0gGTxyvCxctFRWrlohtaEPeMpUP8cVtsD4b21g9HfQoEEyZswYeeihh+L2+uSTT8rEibvEy5wzZ86Ml0Kyudpu1+n2nJKyMaDPW9ivMchw5JFHyuTJk1e/B82e2+x8yptH2RE07w/DpPE0oDXa6OTpnkYd6DyxNoCap68N2HDUC+CmaFzOwRQvrMVrNfBKDcy3tbXFKeZhgykSXrsBO2h8BQfy+BAt/GNnYCrVT6sBrdFGJ0/3NOpA54m1AdQ8vVKq8Wk1oDXa6OTpnkYd6DyxNoCap3fnJL7wNiaEKWE7CqmlvSBbbrebHHLUO2TugiVyzV/+Ir//4x9k6cpmedthb5fGQZvLqvYa6dVvmBx53Gmy2ZgJ8sKL0+R/UyZLXUNv2W7iXrKivV5yfYaHJkIgVN9buur6SyHXLzRSJwVpkNau3jGI22WvA2TR8lUyc+4CGTV2ghx01ElS13uodOCTn2Fbi72swQ8F7ProN5aH+R7scmbifXBJ/V133VXOO+/98enkCy+8UHbfbXdpC9t1JV8m8NadbQt4GtAabXTydE+jDnSeWBtAzdMrpRqfVgNao41Onu5p1IHOE2sDqHl6pVTj02pAa7TRydM9jTrQeWJtADVPr5RqfFoNaI02Onm6p1HXlNt3S+mgXJnF2mKeSfNm+bQa0BptdPJ0T6MOdJ5YG0DN00E6guaAlYOTEQIvjB5sscUWst1228k222wju+yySzxB7b777rLbbruG/G6yxx57yD777BPTnnvuGcthN3HixPhC2y233FK22mqrOAqBl9ji4QJ89okjaoAnv5SNleS3Dt6DVlPXJOO221sWL1suc15+Vnr37Rd+lZ4uixYslluu+420LZ4qnUuny9LF82SnnfeUto4umTd1muy230GyxZbby5233yJPP3BdqPuEzJ71vIzZYnOpaxooCxbMlwUvPSX9Bw+RMRP2lBenvSzLZz8vA4cOk9Fb7RbHrR6+9x/y6L3XyyvPPSSZXEa23HY3mTFrrjQvmy21GbyrDds3HqcP0/hv7WAfGDx4kPTr1z/+wMC2Py203dLcIg8+9KDMmzdPOvN4ES98pqSkbEwwQMCgBN7XiRE0fkkA91KzvOcHXrqXryvKBmj2D8E/VCndojXa6OTpnkYd6DyxNoCap5eC9jgJ4ePm+++/v3z2s5+Rc855r5x88smy1157yfDhw2PANXbsWBk3Lpni0s/mm28uo0ePjtNx48bJhAkTYkJQhylew4HXcpx44gnxqwTPPPN0/AoBhpA9vL4DrdFGJ0/3NOpA54m1AdQ8vVKq8Wk1oDXa6OTpnkYd6DyxNoDaq3Xef4b784uSaegj47bfVxYsXirzXnwmBF1by7Y77id333mnrFgwRfrUt0s9LnuuapbNxmwrjU0D5KXpr8jue+wtrZ1FeeDu/0iv3Erp3ZAPwfxi6d1/sAzbfBuZN3eezH/pCek/ZLCM3WZPeXnaSyFAmyIDh4SAbZu9ZMHCefL4fddJtrgs9KZDejU2yZjxu8rsOXNl0azJ0lCLl+OGUJLLEIM09B89X/MHgl5OBGh9+vSWU089Lf7A+Ne//iXTp0+PlzZnz54t+UJecrU4kMNfUqcUr153pdbpqzWgNdro5OmeRh3oPLE2gJqnV0o1Pq0GtEYbnTzd06gDnSfWBlDz9EqpxqfVgNZoo5Onexp1oPPE2gBqnl4p1fi0GtAabXTydE+jDph/rQGanS+HV5dJ82b5tBrQGm108nRPow50nlgbQM3TQdlLnHZUB/NMGk8DWqONTp7uadSBzhNrA6h5ejnwqSZsqF/+8kXxO5qzZ8+RL37xi3LKKSfLWWedKeedd5588IMflA9/+MPxRbXvf//75fzzz5f3ve99a6T3vve9qxNs3/Oe98R00003x3oXX3xJHEHDJVMPr+9Aa7TRydM9jTrQeWJtADVPr5RqfFoNaI02Onm6p1EHOk+sDaC2pt5z0328rBnKYsAWdrB8fEN3VgYOHCorWttk0bLlITDLSYjNJIedMvxb1dIqNdmghQNjXX2trGjBk5GFEEQFH/l88FUIgdxiQQvxlRtoKwRE8RNONbgMH6bZ5AGV5hDwSaFTGjJdIYWifHuwC8FTyBdDkIX3IGXQKvoftvFwyIXD0Oeey/lELycOFni9B364PPjgg7EtPLnct2+fmGrDMsFfWBFm3bwaW852SukWrdFGJ0/3NOpA54m1AdQ8vVKq8Wk1oDXa6OTpnkYd6DyxNoCap1dKNT6tBrRGG5083dOoA50n1gZQ8/RKqcan1YDWaKOTp3sadcJ57Os4L9EG8zgfWntNuTKLtWU7nl4p1fi0GtAabXTydE+jDnSeWBtAzdNB2QDtrQI2QiSAE9HnPvc52WOPPUPgdZ5cdNFF8aSESzrz5s2P9+JgRAGBHKbYeJOEfJJQhvdFJak9jpThfjSMOlx66aXy9re/PY6qffWrX411Yc/2UzZOej62jp0rTpIAKERViNNydXWSD4EQnsDMZhviKzRqMnUh0BkgbSFI72xvkXyhXRrxpGRNVgqhXvwKQU1OCqEOtpP2jva4x8aACpdS4T9sbzigZrKZuL11hW0pFzalmqDnQp8QoOE7oPj+ADq25laGjnZ3tgx4AADfnf3CF74Qf1DgwQDeb8aUkpKycYJgQJ9/cDzBFaT0nLT+SQO0ADdQ3Mh/8MEHxxf1fepTn5Inn3wq3jeG0QJclsSJCiMdOEHV1tbFkQRszJhCz2bx7rM1U3y6LZRj2tDQIIMHD46BGvwfeuihcuKJJ4aTXlu6M2y08O+WBDvx8iG2pxC0ZGNRQebOnRkCKJEtt5oQAjGRFW1hW+vIxvvNRgwfKXNmzRBpWSrz5syQYUM2kyGjx0tre0FWtIbgq26gbDF2x+AnFwN5BGbF4BNBUdIyduHkB0YB79wI0SC+xYdtuhb3OYYArdjZInW1YTvFO9AC9tfa2oBvBIjcjlNSUjZueL7BFMeDeGzpnkfCwALAfk8tZd2TBmgBbHz5cHLD/WBnnXWW3HzLzfL000/Hl86iDBswgzjmkViXKY5kmMQyXsvHL5P+/fvL888/L3/+85/j5VC87BajcSkbLxjNQsLlztpcRprqwvZQaA0Blsj82S/LKy88LQe/bR/Zeb9DZODICbL7fkfIYUcdJ/PnvCLTpjwhku2U5//3lHS2Nsshhxwu47bfQ7bYdnc55sQzZdSYCSH4Kkoe340qhEAp7LWNtTWS7cJBtSC1IRKszxZDYNYeEh4ESILFpqZGqQt6IQRoGVzfjHr1cFvH9qy3/ZSUlI0T7MM4H2GaDB40hnNgIWr4IQaS/b38U9kpby5lAzT7h8E8k8bTgNZoo5Onexp1oPPE2gBqnm7BRorACTf84wGA22+7PY6YsYx4JyZoSMllzp5vltnEAIyBGwK2+++/XwYOHCjjx4+Pl0F137y+A89GJ0/3NOpA54m1AdQ8vVKq8Wk1oDXa6OTpnkYd6DyxNoCa1VePmoUACFtIsdghnS2LpXPlPKmvaZdc53J5/M5/yowQiO1zwOHyzrM+Inu+7RiZNW+B3PXvv0qmdbb0b8zIwlmvyM3X/TWOvB19/JlyxPHnSKZxkMyYs0ByYVcttLaEQC4E+oV88L1ACi0LQmudIXBbKTUdS6Rjxdxg133pM5AvdEhb6zJpDymL+9VCH/GiWnzUM3m1RoJdHuAtJzVPr5RqfFoNaI02Onm6p1EHOk+sDaDm6ZVSjU+rAa3RRidP9zTqQOeJtQHUPL1SqvFpNaA12ujk6Z5GHeg8sTaAmqdXSjU+rQa0RhudPL2UBvCaqJ122kk+/vGPx/OUHjHDWwze9a7T5aSTToqviCqF9rc2rC3b8vRKqcan1YDWaKOTp3sadaDzxNoAap4O3vKv2eCKwAja1ltvHZ/UvOaaa0LA1B4DKaBXHvLYkF8veM0GnuLD050zZsyII2rp5aONF24hmVyttHfk4xNQSxbOltoQoNXnwvbV1iwvTZ0qs+ctlPnz58tTTz4mTz5yjxSa50rv2oIUwg+EESPHSG2vgXL/I4/LoiVL5YUXX5JH775b6nr3k3FjxsmLk56SlhUzRTpWyvOTJ8mKJSEAzOWleeVymTlzhsye/oLkupolV1MIcVxWlq1YJi9MfUFWLF0YAsXkPjSEkQmvfxtO2XTxjnNv1LEvZf2CvyPObQjGQGdnR3zwDd+QnjVrlhx//PHxvmsEZXhADgMJL7zwwurzkz4fpry5vKVH0JDnAQdTvHhz6dKl8VdFsZgMAbMM0L6cz7VBW4xgtLQ0x7bw7U6MsGk/yHt+PRudPN3TqAOdJ9YGUPP0SqnGp9WA1mijk6d7GnWg88TaAGqeHv6/OtWEQKh15bxw5Fse8smIVmNtl/TKrJTF0x6U5x++VhZOvV8aCoukD159UUyekNx87JZy4qlnyvgJ28i0R++QGY/cGvy1yPgtNpPO1mXB52Kpy4RfuPkWaV82U7IdS6RWcNlzlcx55fEQuM2VumwIxGqK4QCcl0II5FYumim5YnPyxCf7n1lzGezygGhndGqeXinV+LQa0BptdPJ0T6MOdJ5YG0DN0yulGp9WA1qjjU6e7mnUgZe3xznmMWUiOr82rK3nD3ga0BptdPJ0T6MOdJ5YG0DN0yulGp9WA1qjjU6ebjWez3ApE/dTv/LKdLnjjtvlHe94RwzakJqbV8lxxx0bz4e33nprPEeVgm1UgrXV/dK8WT6tBrRGG5083dOoA50n1gZQ83RQNkDjH5JgnknjaUBrtNHJ0z2NOtB5Ym0ANU+3QEOAxA+eY+XYS5W0QxnniZ0vh1eXbeFXDf8wmPf8ao02Onm6p1EHOk+sDaDm6ZVSjU+rAa3RRidP9zTqQOeJtQHUPD2hO4APARruCauLL4YNf9tiIRjlJVfTIX3qOqR/fXsIzNqksaZNMsUOqekqSH1dTiZPek5mvDxVjjz8QDnoHcfJ8B23kX0OfptsMXqYzJj2rKxYPCMEeiK1IUiry3RKbfCHS5e5MN8rBHp1GXylAt/FxMMC+VjWWFuUbFdH0JIHC2KK21vPk5d2eUCp5SylV0o1Pq0GtEYbnTzd06gDnSfWBlDz9EqpxqfVgNZoo5Onexp1oPOg1Mmi0vrlsLaeP+BpQGu00cnTPY060HlibQA1T6+UanxaDWiNNjp5utUIR9EQpN1yy63xzQL4xi6+fDNgwEA56qij5YYbbog/Hu02odE+14a19foF3iyfVgNao41Onu5p1IHOE2sDqHk6SO9BC2BDxa8JbKy4Nwx5XIKELfI2cKrEZym0LUbR8GRnkk8eVKB/Jsua9XvsmDzd06gDnSfWBlDz9EqpxqfVgNZoo5Onexp1oPPE2gBqnh6ngicou0JAhBv2ww4WtqcsNBTjU0k4IIY8bv9CUJWtwbvMUN4ldbmMtK1YJHfdfI1MefJ+mTB+azn5nafLTtvvJJP/95Q8ct+NIZhbEny2xYCPL5uNrkNTma5M2JnDdhp3bPgM2y7K2C+0GzTorEvs8oDo2+jUPL1SqvFpNaA12ujk6Z5GHeg8sTaAmqdXSjU+rQa0RhudPN3TqAOdBzw54HgI7MnD+mHa0PH6jOThlZWqY+fLUY1PqwGt0UYnT/c0/G1xvgEI0KZOnRofjDvppHfGtxngVVC4L/rmm2+KD7ER1PW2h0qxtuyPp1dKNT6tBrRGG5083dOoA50n1gZQ8/Q4HTp06JprWwEj/cfQTjzd+8NR03UJyqzuaUD78doBWtc+rO7Z4VfDMcccI6eeemp8BQYuPaIMwRlAHdbzfOj5ctCWB7+f/OQn8VfKtddeu3pHYJ+A9avb0nYEZVb3NKD9eO0ArWsfVrf1S2Fty/kE1q+ur+sSlFnd04D247UDtK59WN3W18TyWBU2iR0CuLBbhhxSRvKFTAjg6qS5s0sKmXoZPHy0NPUdKC2tbTJ/zgyprWmV+kynZIt4UhMBWs92CZ9J35JtVPcTeBpgn73+017r2ofVbf1SWNtyPoH1q+vrugRlVvc0oP147QCtax9Wt/VLYW3L+QTWr66v6xKUWd3TgPZDG+sbJ2k8QGWfMrd2GwPoK36A19Yi1a0+BuvlJlwuretltbqtXwprW84nsH51fV2XoMzqpTSCMjwQMG7cWPnGN74Zv4SD9x1ecMEF8tBDD8UH2fD3135sfT1fDmur+7UufALrV9fXdQnKrO5pQPvx2gFa1z6sHtsoF6C9FeCKQMJnnEaMGCHPPPNMnMcOzBE0HqD0SnwjwFOjS5cukUWLFseDBw8aKZsaYRuLr7pIqAkRG3ZNjHyFuZi6QtCFrSzsltLWidFUjGJ0hV+4dRLOKdJV7IzvV4MF63Tv8vH/KSmvBX3iYB7HO/xIxSuB8D1hPOGOkRaMuuBl3fopYKBPNBsa7BuWZ9q0aTJ58uT4oE5jY2O88f2NPqZvbGD94LyDoOzYY4+Vr3zlK/Kb3/xGfvrTn8ZBA5wDOdqWsm55S4+gMY8pEjZC/FrEjguw0eoRNE61D2Dny6HbBBi5ww6QvPy2do3LnMD61W3RRqPrEk8D2o/XDtC69mF1W78U1racT2D96vq6LkGZ1T0NaD9eO0Dr2ofVbX1NUi+UhwmtkgCt+18Q4+svoMfNjVbJFGXIIeHkGLUQp8Wb/WnaDfqh+wk8DbDPXv9pr3Xtw+q2fimsbTmfwPrV9XVdgjKrexrQfrx2gNa1D6vb+hbaWNtyPoH1q+vruoRtaDwN2PZwvMMxCMdA3HeEy1x4/QKOTYsXL4qfvcNIC45XrEOYt/3dEECf0Gc8BIZXGmH+t7+9Sv74xz/FEUK8UgmaXR/A04DV9Xw5rG05n8D61fV1XYIyq3saoK79YX0MGTIkfnMX2wMGDVBufbAO0D7WhrVd1z6B9avr67oEZVb3NKD9eO0ArWsfVo9tvNUvcQJqug611+qzFLot1uE8gkHkOc8yja5HG42uSzwNaD9eO0Dr2ofVbf1SWNtyPoH1q+vrugRlVvc0oP147QCtax9Wt/V9aEM/3QEa6ncroLvl5P/wG8oLYT7a4enioHfHaa8C9rqfwNMA++z1n/Za1z6sbuuXwtqW8wmsX11f1yUos7qnAe3HawdoXfuwuq2vQTlOdhjBqaurDSe92u6SNfvmtWX96rZoo9H+iKcB6xtAwz1IH/3oR+Mn7371q1+FQOaP8Wk+fK7OXuq06B+1GxLoV2Njg4wZs4WccMIJ8fvI//znP+XCCy+M64bHXsL15WnA6t669LC25XwC61fX13UJyqzuacDzg/WEIA2BOoJa3b62s7qeL4e1Xdc+gfWr6+u6BGVW9zSg/XjtAK1rH1aPbaQBWg8oYzmnr9enxfon1jfnrV9dT9chui7xNKD9eO0Aq78ZrMu21i+v/hsAvdRrWnTPhfVT6AonRqwnnADD1PeUUgpvGy9HqW3ytWyrsMXDQHjPIt4nNW/evPjaAvveQ+2zXPvUaKNBmdU9DVjfACNkeBfkD37wA/nOd74jf/nLX2JfccJm4FWqb8BrZ0Mh+UZyR7xKgU/6fe9735Pf/va3qy/l6eXxllEvm9W9deFhbcv5BNavrq/rEpRZ3dOA9uO1A7SufVjd1i+FtV3XPoH1q+vrugRlVvc0oP147QCtax9Wj22kAVoPKLP1Xq9Pi7ZFHr9Y6JdTlOu8xta36LrE04D247UDtK411tF+rQ+i7UtRvmzN+/JwXxax9TBfylepMvwNPEr5WRu6Xk/+1esfoDT0KhSHdYRJIgeSXCaDX7FFKaI8rEN8ZQA+a+K9awk9rfnovxHQIxx22VFm/1a6vvUFrObZAE/nJVvA+5r039ve61SOUu1Wilc/ruu1+GW5XmcajEjg8hoCgtGjR8sf/vAH+fvf/x5HpfCdX45UwA99lPLp2WjoR+NpQPvG3533GaGfixcvls9+9rPxBnFe0iznW/sqh7XV/jzd+tX1dV1Sqh/aH7Z5vIT1ne98Z1zGs88+W/B9ZNzaYn1rf7o9q5dq12Jty/kE1q+ur+sSlFnd04D247UDtK59WN3WL4W1Xdc+gfWr6+u6BGVW9zSg/XjtAK1rH1aPbbzVHxLQlFvhbwZor1SAtqHBvuGeOYB+s+/or+4zdJ7oAfKcZwKsy3wWH5nsBoGJtYct8j2vQkmm+HXPcjyhhXtmksCmp0+ww4iFDkAS+9qoUyP0C/tKgQ/U4/JiedCP7tIkGFvdBpYphmZxipRYJCVJYJIsd6FYiN/4LGKKS0zoO97XEYC/eI9aSOwr28A88jjxIuHv4tHTp+SLGggooHG9E2gow2UultFOt4OkdbSLoKtQSLYZaEldzCfvIITu9U/b01+Semzho8fnq/sNdLkm8ZX0ke2zHYI8fdKeMI9yJgBfyPNvgnWCYOzII4+MT4qjDN/i/de//hW3Gb5uR/tel6A/uAQbzgfywx/+UK644gq599574+gZl8muB+TXV39fC+wvphhNw6XmX//613LLLbfIVVddtfop+o1pmVI2bdIRtCp4I3xqW1uP/qHpvMbWt+i6xNOA9uO1A1gXJxwELNtss008kCE4wkkF5dARFCEx2Glqaoonp0wIUnJZPNaOe2+S4ImBEuYxhT3y1NEWT1qYsoz9iX4z6FNyYtUUCnjKrOcXP9FBAxLqd3R0Rh3+Ccpgh0Ak6Vc2BhZrA0EGEttkG8lMd5AXNMRcoReYQaY7BKPC/mKeJSEFnwjSCt3LENddWKeZsG64PITlzMe6YZ0g4MO6ZNDIOrSxo1b8u6BMw3kEwtnQB12OdQkYpLK+DnyQUAYbwHXGBNg39Bt/I9hwXeJvgZMrP+wMUA82aF9vD2wbZQhuAQNCbg+0Rx5/c8wzcASYt6+ZgC9uO4B1YYM+sa3Ozp5gF8uLy4eLFi2K+w9e6XP00UfLTTfdJD/+8WWycOHCuD6JXjYNdGq00aDM6p4GrG88GIARvksvvTR+4geXY5MfO93br6JcH9Yna1t+5rkN/PjHP47r/qKLLlojQNP2RPu1up4vh7Ut5xNYv7q+rktQZnVPA9qP1w6oRC9V3/NvbekPrM1nKarxCaxfXV/XJSizuqcB7cdrB2hd+7B6bCMN0Epjbd9on55/XQasX89GgzKrexrQfrx2AOviEewxY8bEA9mwYcPiPHQc1AECKJyMAE5oOPhhil/lOMlhHrawgYaTLE5yDAxwMmttbQkHzmTEhCc85rVv+gTwy5Mn+oPy5CS75jrCyR5taF3XtaCMflinHPCj7dkuYO040rVaDplQgFlKybS7f92VYK99AQY/PHHacg/aI0BDAGbrcBlhk7ykmUEeg6tkHuWJnyQIA6wLn0hoA6MTyPPvBFiGABF12YckcEwCceh6HVKnDTSmZPQT7fS8BifR6mIACRBoQUNie7o+7BjQo21obAegbdpwedkn7ZN/f60BzCNgYxvIYxtHULDddtvJrrvuKp/4xCfk97//fbzExrqcct0S6Hp9W7jeNJ5GdBn2K7xO44orLpf/+78LZNKkSWv0CSCPOqyH6YaGXVa9jMzjb4W/xXe+81158cUXY6CGV4rg72jtifZrdT1fDmtbziewfnV9XZegzOqeBrQfrx1QSsf6W758efwhjiDe7ueYx2VkbD8oL9UW/QGr27ZLUY1PYP3q+rouQZnVPQ1oP147QOvah9VjG+klzvWL94fc0Fi9sYSpHuVCwgEtOTkV4g24gMENdNjihAa4nNofT3oso848yjFF4kiXPhigXNsjz3kL/aGctggYMBqjgY4TK2ySZfD9WRjEEPaDf93upY//jxP0oTtbCvRBg4DJBk+VwlEhoP3q9WXbs6CcCaAu/x78WwHoSJjXfy+dB/z7Q4ct6ui/EdY/oE47TNmGxrYPbB8I26MdbXQ92nAesH+YMq/1pAwpuawOUBc/ahAE4VUP55xzjhx66KFyzTXXyNVXXx33GdRfl6CfevnQP/TtF7/4RQwa8T5InIC5HgDr2PyGxNr6xXL8aPve974fA1HvQYGUHriNYP3gRzDuTcRH1W+55WaZP39BPF4C2GE/wjy+7fn444/L888/v3o/SKmOdAStDNb2zfKJ+VJtWb/ajjYa+tJ4GtB+vHaAbQsjWdgBk5MTTkY9JxXdhm2P85iiPvzqE1Kpvlg/BDZIKLd1yoE2EejhIAMQPDIIIPRHn6X6QGhv65Go08fqIbRgv8Y0obKlSLDtvBl4bXA5LVbX68WitUqWw9p7fr12PFgXCdsDtkcGZ6CUH91PnYc957VOOOo7duwWcsopp8gxx+Aj1EvkRz+6LN7nhVEGHcgB9sH60215/USZ1T0NWD+4BIvvMeK+LLyGAgEa3xFGaFuqD9p2fVFu+ZnHFH9zPBDx3HPPrQ7QWKbtifZrdT1fDmtbziewfnV9XRdY3frDPIJSjOBiXgdVAOXYVjHlqDXA8RE/ILCNohwJgfyjjz4q559/fvyRgdFHtoFtHS99v//+++OXcr797W/H+y8BbQjbBlbX8+WoxiewfnV9XZegzOqeBrQfrx2gde3D6pgv+5PNNoB5Jo2nAa3RRidP9zTqQOeJtQHUPL1S1pVPPSWY9/xqjTY6ebqnUQc6TzwbJOykuDcMU9wzkwRqPSMJSDrPxPo8EWqN88Cb13aYah+Vov2hPn3i4MN5wjIuF+fLJdYDaEv3LeoYvUK3kQ8pXsLszms/a0tE5y22/dcDfXFd8G+r55mAnqcdfRDk9fJoG2tnNQB7fRnSg/69RJDH3x9T7UvbImH74DZHbN+Y18uNPmKUEyenb37zm/KnP10j2267XTxhnX76GTE4w9OdNjgDbNvi2ejk6Z5G3YIfXTxxazsun9X0vLVdHwmwT7ZvzGugsZ7Gs6fm6ZVSjU+rAa1ZG7ynDkE2wDIhkMILZ5OgrBAvSeIHNR78wLaJ991xvaEclySxLSIohx+MqMI/bDFiBv8A+wICNnyNAcEYtnXYwT/ag92SJUvik8AoQyK6v4DL4OmVUo1PqwGt0UYnT/c06kDnibUB1DwdlA3Q7IbLP2Yp3aI12ujk6Z5GHeg8sTakkrrlsPb05+lvJqXa07rN6+Rp1IHOE2sD9LzeoKyd3uiYvDbKwTo6EevLs7VJg4MR0X1jX5H0PPF8AV1P13m1PdpKpknqsfH86rLXUr42bH0v0a4S1mZHn1w/gOsLOk4ESAxyWKbtAeZtwAR0oM22SiWPcnqpMg+ekNgXXCZctmyp/N///V+8tHnrrbcK7vPjqIJHqTa1RhudPN3TqBOtlVrnwNaDjpM0/x4oZ30vATtPPF1r1HXeg8vCpDWP5EpA6fVBqHl6pVTj02pAa8xj3ePKBkY9zzrrzBhYIW2xxRbxRbxDhw6Lf6OzzjpL7rrrrvhR9Ntvvz0+UQwdx0MEcx/5yEfiqBgu+eIy9+DBg2XBggXxnXF4NczFF381fpvzgAMOiA+7IEjDSBvaR1B21FFHyWWXXRZHI889972xb/bvVGo5Pb1SqvFpNaA12ujk6Z5GHeg8sTaAmqeDTXYEDQsIjRsvNli8IgJT/DqoJMHezjNZXc+XS9x5bPJskVAG/5hy+BmJy8c/LvOANkyeRh3oPLE2gJqnrw3YsK8W+mQZ7agzEZTpX2XE2ttE/8gDtsMEaKvzLC9VDwnQnolaAk5gCCAQHBZX/yvElPwLpdGSlPJn80zsi50vlXTdUslr57UmgrY5xd+RQRn2VY5osbxUX+kDUNNo20oT0G2+1gToDw9L4GT23e9+Tx577LEYlOFyEHTYwF63TzwNaI02Onm6p1EHel4/Gc1AuRT4W+Hy7L777hv/hqxXDt0uYNuldIvWaKOTp2uNYLkQYOC4ynsz+bcA1h5Q8/RKqcan1YDWkEefcf8v1v3pp58uxx339nieQMC0884T43c1MfqFd7796Ec/ipcdL7nk4vjeN1yanDBh6/jAyqc+9ak4sounin/+85/Hz3zhYRHQv38/2WeffeTUU0+Tf//73zJ79uzVT/eifZxf3/ve98YvM0ycOFEGDRokX/3qV+MTwXgwTG9DpZbT0yulGp9WA1qjjU6e7mnUgc4TawOoeTrYZB4S0DtXstEWY2ADcD0cTx5iaJcHEbtC3kzW1hY3YLsMuh42dAwpI+HAgl/lOChqe7Aul+v1YJdPU25ZWEb08le67NYH0fW1v3L9AZW1jfIemy63C+EE7xdsUtj1z3WHqS6zdsRb19p27X8Ln1LtvRa4LLov9E/Nlq9P0BeMpmy55Zbyy1/+Mn6D89lnn40BmO4v4DyOpX369Jaddpoo//3vf2N9fUza0MExFYEEAg6M+uD8sDHC+8quv/56mTlzprzvfe+LfwN8+BwPoOBm/kMOOUS+9KUvyeGHHy533HFHfN8d7g/7/ve/L8uXL5OHH35Efvazn8kXvvCF6PPEE0+MX5HYfffdZY899oj3JeL+SbxgGbe44B60G264IW4nGFXDqBseGDj//PfHgO2Tn/xkfJ8eRo0R8KUPYLw2NokATR/okMeOh19GBx10kJxxxunhl8QucR7X2NfFRoI20A8k/VoBYvuAAx2CLkxZDwlD73jCEHWRBzNmzIw7Ii6T8OZi+ENiG+tiGd8osJzE9htla9NYv9pl9nwD3R9g2yrXjq7r262tj2u2vSmxtnVTbr2vDdatps6bjd5WbP902YYC+oTjJi6LIVi54IILVgdoKNN91suBYxZGbHAc2hCXy6L7iEDi61//usydOzcGExt7gHbjjTfISy+9JOedd34Morbddpug3RQvXT788MMxyMI5EZ8aw/njyiuvjIH1aaedFgM55Hm1Bn/3t73tbTGww7svcekSdfFuPJxnMDqG89A555wd+3DTTTfHb5xihA5tjxgxQu6++2750Y9+KJdffsXqd8ylVMcm9ZoNbDidnXhnVqd85jOfie/seuSRR+LHfhHhY8PEzomddF2A/vDyDe45Ifp1BwB9Si7t9Fwi4NORvOTTq1ejbLbZSDnuuOPivQM33nhjXD4cZHBTJ4AdDz4pKSkplYDjIRJGwMaM2TwEKz+Kn0DC6xEYoGl4jGGwg4Rj3MZ27MGxEw9v4BIfLu9trEEEAjT8kMflx6lTp8YRNARJGCV78MEH5ctfvkh+/vMr47kIo2oHHLC/vOMd74znDVz6HDBggPzjH/+I95nhwQHo2BamTJkcArffybnnnhvXz2GHHSaTJ0+Of3e8ww9fwsBIG65OYbQNL15+8skn47mqf/8B8p///Ed+85vfxBcf42GYlOopew+a3TExz6TxNKA12ujk6Z5GHei8BcEM3sWFX0MIXhD1I6DBL0IEahjKnjVrVhwGxvTNTjNmzJCXX345vghxypTnVyf8CkHCARBTlMPulVemr06YR4IP3C/wwgtT4wb/oQ99KN5ojB0NQ8ccfQP6wGnXndWoA50n1gZQ8/RKqcan1YDWaKOTp3sadaDzxNoAap5eKdX4tBrQGm108nRPow50nlgbQM3TK6Uan1YDWqONTp7uadSBzhNrA6h5eqVU49NqQGu00cnTPY26BSMxOI7yxnkkHXh5QVgpXx7Wlm2U0i1ao41Onm41gOXgsuBrJ9SJtiXUPL1SqvFpNaA12uDHPP5muP1l1KhR8XyAq0UYAcON/itXrpIjjjhCLr/88jhy9pnPfFYOPPDAeB8ZLn/i/INRUARXn/70p+WDH/xgDL4OP/yIeM8kynraSkZNk5dZJ/eQoj7WJe5bw+jb4sVLZLPNRsR733ArjgZ1NNqvxs6XoxqfVgNao41Onu5p1IHOE2sDqHk6KBug2Z2RG3Up3aI12ujk6Z5GHeg84cJgozzjjDPiL4hPfvITcWPDxoWNFL8KMAyPXxZvdsKGrxN+hdoEO523ddFXTKGx7/iFhxuMMXSMUTS8hRwjhbghFDuoxq47Pa91oPPE2gBqnl4p1fi0GtAabXTydE+jDnSeWBtAzdMrpRqfVgNao41Onu5p1IHOE2sDqHl6pVTj02pAa7TRydM9jTrQeWJtADVPr5RqfFoNaI02Onm6p1HnsRMnXU5RVlvb8+oPffLQefoAOl8Oa4d5Jo2nAa3RRidPtxrBsiDAKJgXVQNrCzwfwM6XoxqfVgNaow2WAee5a6+9Nl6G/NznPicXXfSl+FAAlhEjZxgRw497jLKdd9558X40BE94ohOjbr/73e/iSBfuS8MUV2g233x0fG0GXruC8w/v6QbNzS3xXLTZZpvFAO3yKy6Xz3/+8/KDH/wgnnd/85urYjnOYRq7TFwGT6+UanxaDWiNNjp5uqdRBzpPrA2g5ukgG/5IX405B70zAswzaTwNaI02Onm6p1EHOk+g4f4JPD2CDQ03Ml544RfjBoIAhwtrfb1ZsB3dnu5DOXQdYPNICNgwCogdAzsFfhVhR+Kb9gFtWV/Pax3oPLE2gJqnV0o1Pq0GtEYbnTzd06gDnSfWBlDz9EqpxqfVgNZoo5Onexp1oPPE2gBqnl4p1fi0GtAabXTydE+jDnSeWBtAzdMrpRqfVgNao41Onu5p1AFO8AAneTxQhcteuL8I77LiO9GIrkc8rRTWln0ppVu0RhudPJ1oDYEolhsjS7jEiSds9bLaukDX19j5clTj02pAazqPAGrKlCnxfPfud787vm8Plx1xyRLLdvPNN8cX8uLrFbhUiYdBvvOd70Sb3r2bwo/+u0Ldxvi333777eM55cMf/sjqS57YFvBqDvYL6w5tPvDAA9HmkYcfiRrq77XXXrEtDBrg1iK874+Bml0m+vP0SqnGp9WA1mijk6d7GnWg88TaAGqeHqebyj1oCFDwmDE2uv3220/mzJkTh2f5y3BdY1e4xkbLGtRbWznAcmHEEMHofffdKz/+8eVxecvVTUlJSbHgxIqE48mOO+4YbybHU3i4fwmjLDim2OOZ/sH5Wo455Y6Pltfrn/3XfnD8xMgSboNB4IFLeghENkawbEi8/xpXWhAcIXBCYITAE+Wcx3IiGMeVF+Txwx4DHEi8JIlLldAR8MFva2tbLMN2ArD+YINyBGrIY5QObaMtbEu4Tw2visK93+zDa/lbvpXZJO5B4w64//77h2Dlvnj/FzYULzjTPt/MVCnl6lgN89zAsaPgXgM8NbPnnnvFHZJl2id9WI060HlibQA1T6+UanxaDWiNNjp5uqdRBzpPrA2g5umVUo1PqwGt0UYnT/c06kDnibUB1Dy9UqrxaTWgNdro5OmeRh3oPLE2gJqnV0o1Pq0GtEYbnTzd07SO4yRO2PX1dXFkHi8n3WWXXeIJmzY4tujE+jzmWNiGl4D1Vy6xDtB5Yn1jqutrWIZjJ4ILXHXBk4+6PrDzgJqnV0o1Pq0GtEYbLA/+hni3HpYJwVI+3xmfSkWQxXXALwi0tbWG80U+niMxj7oIshCAYTvAukHghmAOdeEXZbptnH8Y3OHcgwAM/pMHFjqjPe6xxhOy8A3gyy4Tl8HTK6Uan1YDWqONTp7uadSBzhNrA6h5OigboG1MYAPBBoNHhfWGYBd8fYD+6FQOXe7Z6uXBzoEdYPjwYet1tDAlJWXjBydiXMq6447b46Wwvn37xFGRcuAYhWNSueMsy3j8wzzzpaBP2nrocm1j7WFjwWjSMcccE4PQ5GPea17K3VjBsiIgwt8SeY6OEgRkKEMCel2xLke7ANct5rUGMM9zDsvx+T9+ApBBXsprp2yAZjd0/rFK6Rat0UYnT/c06kDnCTRsHPj1gBsZkadm7TG/rlM5Stlxg9d4Ntih8JQOHhnXO6L1q+e1DnSeWBtAzdMrpRqfVgNao41Onu5p1IHOE2sDqHl6pVTj02pAa7TRydM9jTrQeWJtADVPr5RqfFoNaI02Onm6p1EHOk+sDaDm6ZVSjU+rAa3RRidP9zSt4zjCY0djY0O8wRsn3i984cJ4XEEwg5ERnoxRR4/YQ+c8EuaRdDnnWb42aGuT9sNEbBnR7SMgwzcj8fJV3Cz/+9//XpYuXbo6YCHWB6Dm6ZVSjU+rAa3RhucKllG3ySsDui7R5YQa7Vmu8xZbZu1Y7umVUo1PqwGt0UYnT/c06kDnibUB1DwdlA3Q8IfQcEMopVu0RhudPN3TqAOd10DHiJLF2tPf+kyaUnop9B8UBx382sFBFElj/ep5rQOdJ9YGUPP0SqnGp9WA1mijk6d7GnWg88TaAGqeXinV+LQa0BptdPJ0T6MOdJ5YG0DN0yulGp9WA1qjjU6e7mnUgc4TawOoeXqlVOPTakBrtNHJ0z2NugbHFIx+IGC5+OKL45PiV111Vbwvrb4eD1sVY4CDy2AIyDDFcYeXxZBnOaa41IZ7kDAKh3kep3RCmS1HnjrLmLRmy7Rf+tHzWD5c0jz//PPlT3/6U3waHjfP49IcygDXi7eOqHl6pVTj02pAa9aGeeq63GrUy2FtStWrxBcp5dPTK6Uan1YDWqONTp7uadSBzhNrA6h5epyWe0gARtxwgXbi6VoDur6uS1BmdU8D2o9tB4EKDgp4KR4+BvurX/0qvhiPfrS9V78U1lb3a134BNYv62OKAyl+BWKoHp/hwD0FtNHQ3kLf9Kmhvda1D6vb+qWwtuV8AutX19d1Ccqs7mlA+/HaAVrXPqxu65fC2pbzCaxfXV/XJSizuqcB7cdrB2hd+7C6rV8Ka1vOJ7B+dX1dl6DM6p4GtB+vHaB17cPqtn4prG05n8D61fV1XYIyq3sasH50Wxg123bbbeOnf/DEH96xhdspEIgBXCpjPXwtBYEd6iNhNA5lLNcj+9Bgg2O2RrftQV9A22odcKQMYIr+sj1cxtxxx53i7SB4cz4eEEDf9D1SoJK2rK7ny2Ft19aW9avr67oEZVb3NKD9eO0ArWsfVrf1S2Ft17VPYP3q+rouQZnVPQ1oP147QOvah9VjG5tSgIanjxCgYfpmBGjA61u12P4QT/fap4YnVxmgnXrqqTFAQ5nto6cB+tE+ide+9mF1W78U1racT2D96vq6LkGZ1T0NaD9eO0Dr2ofVbf1SWNtyPoH1q+vrugRlVvc0oP147QCtax9Wt/VLYW3L+QTWr66v6xKUWd3TgPbjtQO0rn1Y3dYvhbUt5xNYv7q+rktQZnVPA6V80xYjYLW1Odlhhx3jE3l4bRFgUIMXvGZq8JWUXBzJZ2CGPOfhDwkBXayjgjVg50uh+4YpAi8c9/WlVSSMmjGI5EgegzRcpp0zZ6488cQT8RVFCNjwvjcdLNp1gDyhBqyu58thbcv5BNavrq/rEpRZ3dOA9uO1A7SufVjd1i+FtV3XPoH1q+vrugRlVvc0oP147QCtax9Wj21sSgEafhXhkWl87Be/kuhH23v1S+HZen2rFtsf4ule+9QQoGG4/thjj5GTTjo5BqUos330NEA/2ifx2tc+rG7rl8LalvMJrF9dX9clKLO6pwHtx2sHaF37sLqtXwprW84nsH51fV2XoMzqnga0H68doHXtw+q2fimsbTmfwPrV9XVdgjKrexrQfrx2gNa1D6vb+qWwtuV8AutX19d1Ccqs7mlA+6GNnhJcSsTxFToCLZRhngGZttXzmDIPnYn1KsXzr4MqXQ6d7UBHW7RFIAkdy8AAEtAWiXlMgfZNDVhdz5fD2pbzCaxfXV/XJSizuqcB7cdrB2hd+7C6rV8Ka7uufQLrV9fXdQnKrO5pQPvx2gFa1z6sHtvYFN6DxgDtH/+4Vm6++Zb4SQv+2nsj8Vb6+mTx4sXxfUWHH354/CYav3e2ofUzJSVlw0cfN1afIMIUUGdQg5ErlLFco4892qdG+64E67MarD3n6VP3xetrSsr6ouz4srdhM2k8DWiNNjp5uqdRBzqvoY5fRszbuqBUfQ9ryx359SbN2nSL1fSlBA3r017Pax3oPLE2gJqnV0o1Pq0GtEYbnTzd06gDnSfWBlDz9EqpxqfVgNZoo5Onexp1oPPE2gBqnl4p1fi0GtAabXTydE+jDnSeWBtAzdMrpRqfVgNao41Onu5p1IHOe9gAxpvXSWPnWY+BXqXAHnV1Pczb5OnA9tH2i5r1oaHm6ZVSjU+rAa3RRidP9zTqQOeJtQHUPL1S1rdPqwGt0UYnT/c06kDnibUB1DwdVLeXbIBwQbjD2QV9I9G+uUOzXT1fLr2R0B+G7pFH/5De6HZSUlI2fbzjhtUwr481QB8XK0X7qCR5fasU1oUfoJdB83rbSUl5oykboNmNlRt2Kd2iNdro5OmeRh3oPNE7mrW19l79Unh116VPqwGrYdn1O4kI61PX81oHOk+sDaDm6ZVSjU+rAa3RRidP9zTqQOeJtQHUPL1SqvFpNaA12ujk6Z5GHeg8sTaAmqdXSjU+rQa0RhudPN3TqAOdJ9YGUPP0SqnGp9WA1mijk6d7GnWg8wSaPa7aedbz6peiGlsPXZ990MnTCfLeuQIakrXV84Cap1dKNT6tBrRGG5083dOoA50n1gZQ8/RKWd8+rQa0RhudPN3TqAOdJ9YGUPN0sMlc4vSwdUG19TX0t658Wg1oDTe74k3N+FYadP2HZn3a63mtA50n1gZQ8/RKqcan1YDWaKOTp3sadaDzxNoAap5eKdX4tBrQGm108nRPow50nlgbQM3TK6Uan1YDWqONTp7uadSBzhNrA6h5eqVU49NqQGu00cnTPY060HniacDWBd58JcnC4xePYcDO63rWH8vKaTqv29NtAG1PqHl6pVTj02pAa7TRydM9jTrQeWJtADVPr5T17dNqQGu00cnTPY060HlibQA1TwebxAiahQtn64JK6hOv7rr0aTWgNSwn7snI53seNecfm/O01/NaBzpPrA2g5umVUo1PqwGt0UYnT/c06kDnibUB1Dy9UqrxaTWgNdro5OmeRh3oPLE2gJqnV0o1Pq0GtEYbnTzd06gDnSfWBlDz9EqpxqfVgNZoo5Onexp1oPPE2gBqnq7RdtUkjdX0MZ3QRidP9zTqpfBsStW18+WoxqfVgNZoo5Onexp1oPPE2gBqnl4p69un1YDWaKOTp3sadaDzxNoAap4ONokRtFILZ+sCr34pvLrr0qfVwKvsMv59E6xPez2vdaDzxNoAap5eKdX4tBrQGm108nRPow50nlgbQM3TK6Uan1YDWqONTp7uadSBzhNrA6h5eqVU49NqQGu00cnTPY060HlibQA1T6+UanxaDWiNNjp5uqdRBzr/Wni99StBH9MJl0MnT/c06kDnibUB1Dy9UqrxaTWgNdro5OmeRh3oPLE2gJqnV8r69mk1oDXa6OTpnkYd6DyxNoCap4NNYgQNnyABNTVrLo6tC7z6pfDqrkufVgNaY57v+eEflXWZPI060HlibQA1T6+UanxaDWiNNjp5uqdRBzpPrA2g5umVUo1PqwGt0UYnT/c06kDnibUB1Dy9UqrxaTWgNdro5OmeRh3oPLE2gJqnV0o1Pq0GtEYbnTzd06gDnSf6pIHjS7mEe2A9/c1Iui3kbfJ0rSFv8ZbfriNAzdMrpRqfVgNao41Onu5p1IHOE2sDqHl6paxvn1YDWqONTp7uadSBzhNrA6h5OigboKVseOhIW+eJ/UOnpKSkvBYQzOBrAviOZfI2/iS4wXRjTAjQmpubZcWKFWF5OuOyMBBlSknZkNjoX1SLnQo7G+7D+uc//ym33Xab/OAHP3BfVIvgBfabShCDb3FedNFFstNOO8VPPb0ZL+dNSUl568AgBV8PQB6fkTvggANk8ODB3fe7Jp9R2pCxx3csB/qOd0a+8sor8WszDz/8cAw8Gxoauq0SNqXzQ8rGz0YdoHFnwjfWEKBdd911cvfdd8u3vvWtGKzolxrCblPb8XSAdtppp8XPW6WkpKS8VnBMxagZvuv79a9/PX6l5IEHHpD//e9/Mnv2bCkWcZlwwz+O8liPKZYJCUHmxIkTZZ999onf4rzwwgvl+eefl969e0fblJQNjU3iW5wM0K6//nq57/775GuXfC0GKwjQYEufXlvlsG3p+lZfmy9SjU9Qzq83gqb9EfgopQPbJ+C1r31Y3dYvhbUt5xNYv7q+rktQZnVPA9qP1w7QuvZhdVu/FNa2nE9g/er6ui5BmdU9DWg/XjtA69qH1W39Uljbcj6B9avr67oEZVb3NKD9eO0ArWsfVrf1S2Fty/kE1q+ur+sSlFnd04D2QxtcjcC9vJdddplsttlm8uUvXyRPPfV0HDnDJU/Y0H5DxfaP80h4NdGee+4Zgs+vhXxOzj77bJk/f34cSeM64BRYP8Tqer4c1racT2D96vq6LkGZ1T0NaD9eO0Dr2ofVbf1SWNt17RNYv7q+rktQZnVPA9qP1w7QuvZh9djGpvQtTgRoDz30kFx88cXxu5QI0FAWF1StCG9FbYwgQPvyV74sO+6wo5xyyimrRw039uVKSUlZt/CYiPuzzjrrLHnf+94nZ5xxhkyfPl0GDBgQAxsGaDyueujj7LrGHudLsXz58nisvPLKK2P+Yx/7mNTV1a2ui2l6DE3ZENjoX7OBedwASt0rT2x6npaodOcr5cvTK6Uan1YDWkO+q/jq5WFdJk+jDnSeWBtAzdMrpRqfVgNao41Onu5p1IHOE2sDqHl6pVTj02pAa7TRydM9jTrQeWJtADVPr5RqfFoNaI02Onm6p1EHOk+sDaDm6ZVSjU+rAa3RRidP9zStAxxDMHqGKw9HHXWU/P73v5eZM2fKoEGDYnAGOwRma/sByOPr+kil2tdgHpdvly1bFm+F2XXXXWWXXXaJl3X1utDriFDz9EqpxqfVgNZoo5Onexp1oPPE2gBqnl4p69un1YDWaKOTp3sadaDzxNoAap4ONvrXbGBev15D2+u8XRHUy2Ft6M/TK6Uan1YDnqaXC7Cu9mE16kDnibUB1Dy9UqrxaTWgNdro5OmeRh3oPLE2gJqnV0o1Pq0GtEYbnTzd06gDnSfWBlDz9EqpxqfVgNZoo5Onexp1oPPE2gBqnl4p1fi0GtAabXTydE+jrikUijJw4EBpamqSJ554QhobG+N3fgmOMbwiQXjsscegDQm9vAgw0c+mpl4yZcqUeG/dgQceGJ/w1Mul6xBqnl4p1fi0GtAabXTydE+jDnSeWBtAzdMrZX37tBrQGm108nRPow50nlgbQM3TwUY/gkaoewur/ZSq72FtS/l4s3xaDWiNy1nJ8lqNOtB5Ym0ANU+vlGp8Wg1ojTY6ebqnUQc6T6wNoObplVKNT6sBrdFGJ0/3NOpA54m1AdQ8vVKq8Wk1oDXa6OTpnkYd6DyxNoCap1dKNT6tBrRGG5083dOo89jBeQQwAE84AgQugMdV2hHqTGvD1mdfSukWrdFGJ0/XsI+4/wxlbW2t7sNVXl1qnl4p1fi0GtAabXTydE+jDnSeWBtAzdMrZX37tBrQGm108nRPow50nlgbQM3TQdkAbWOj3IGilL6xg2XiHxPTTXEZUzZ9Xu92m273rx19cshmM/ESIO7J0usUeSZ7MtkY4LGR/cc0k8FDEQWZN29u1DbG5UrZtNnoL3FqsIMV1f1onm25+hZri3kmzZvl02rA04A+uLCu9mE16kDnibUB1Dy9UqrxaTWgNdro5OmeRh3oPLE2gJqnV0o1Pq0GtEYbnTzd06gDnSfWBlDz9EqBLU+Gepu18147QGvaxqury61GHeg8sTaAmqdXSinbSn1qHXmbPN3TqAOtYWSpV69eq9enXq8A87putdi6um2NpwGt0UYnT6cG7PIklzxffW+drkuoeXqlVOPTakBrtNHJ0z2NOtB5Ym0ANU+vlPXt02pAa7TRydM9jTrQeWJtADVPB5vMJU4NF5h19cJXUp9YW/rz9EqpxqfVgGenl5eaTp5GHeg8sTaA2trs29vbZdWqVauf+tJ487ou8TSgNdro5OmeRh3oPLE2gJqnV0o1Pq0GtEYbnTzd06gDnSfWBlDz9EpgXW6vXqIv2lq0RhtdX+tMnkYd6DyxNoCap1eKtdX9JmzD6kDXp51Onu5pWgdoC/trLpeN953xXjPdP9oCm9fz5bB2rFtKt2iNNjp5utbWXJ7kaVTvE1C6LqHm6ZVSjU+rAa3RRidP9zTqQOeJtQHUPL1S1rdPqwGt0UYnT/c06kDnibUB1DwdbFKXODVcQO6Mmwp6ebiM+mC6PkA/0DbePr5y5UrZaqut5IMf/KCMHLlZPPjpjc/2kf0upVu0RhudPN3TqAOdJ9YGUPP0SqnGp9WA1mijk6d7GnWg88TaAGqeXgm6vk2EeasTa8t5bGN6n9fJ06gDnSfWBlDzdA/2SSdPJ3Z+XbFmH5JTAp/cLAWWmeU8/rD/5eqtb2zfSv3tUlI2BDa5AC0TDjB6J9yQDxavB7tcmF9XBxt9MMalATyej8fWR40aJd/4xjfiI/rbbrtt0JYHW/99SSlvXbjt6PR6wTa5oZ1s2ae1JexDyaW2NUcD34j1UikMyOynnPTfB30iuo/19fVx1E3bbshsDH1MSQGbVICGLwrgqZxNGXuw5FNWYF0feNAe3h8EPvrRj8of//jHGKR96lOfii9/XLJkSTjxZFdfQsDfJ01pSlOSsE8w6YCHifv4ukAHiPrJzVLAHi8HHzJkiBx33LHxO5fr81j0WsCPRzytui7Xc0pKNWwyXxLAweHvf/+b3Hbb7SU/lr4pgQPgokWL5DOf+Yzstddecvrpp8fHxdfFwYYHchyg8ev5K1/5ikyYMEEuv/zy+CFilOHTKfogjV/o6YEw5Y2gkpP/hrCtleon+oaEIIfgGAa4b9n8mwnaQcKPrXHjxskvf/lL+cQnPiFPP/10/E4l+0tbgj5jP8dxZ+HChVFjOe3XRf9fC+gXjl9f+9rXZObMGXLFFT9Jv8mZssGxSXyLEwcKDM3/+c9/lnvvvVcuvfTSeNCgH23v1S+FtdX9Whc+gfXL+phihAoH0v3220/e9a53xaCUZRpPA/RNnxraa11ryOOy5oc+9CH54Q9/KLfeeqvMmzdPRowYEU88pfylvLWpZDuw2w55rdtQKX9vJuX6iv4g4YZ8/MD59a9/Ldde+4+Yxw8Z/NhEfSRvP6LmtYEyq3sasH5wD+nYsWPlpz/9qfzf//2fPPvss2UDNMBjL17LAWhXCtTXNtqfp1t/ur7tC0CZ1bXGPPqNAA23ZOA1G5de+oM1AjRtT7Rfq+v5cljbcj6B9avr67oEZVb3NKD9eO0ArWsfVrf1S2Ft17VPYP3q+rouQZnVPQ1oP147QOvah9VjG5tCgIZ5DFX/7ne/i9/ifKNG0Ly2SuH12cP60/V0GXXPHhqmDND233//1R9Lp42G9hb6pk8N7bWuNeRxQMcvbgTE+LAy1j8O6ijjyYb2yHOUIOWtiR4x8ljb9lGuPurq7XljAMuDvk6aNElmzJge9pHkPi69HHr/A7bcgjKrexqwfvD0NQI0/OD63Oc+F9+y7wVoSNTsvGensRrmiaeXq6/rEpRZnZqeIuGc8c1vfjNeifj2t78d3/9G6AN2RPu1up4vh7Ut5xNYv7q+rktQZnVPA9qP1w7QuvZhdVu/FNZ2XfsE1q+ur+sSlFnd04D247UDtK59WD22sSlc4sSCYGe7+uqr5eGHH44HGO/t0MRbUR525ZVamUCXrQ1dt5xPi+03RrA+/OEPxxE0fOC43DK/GeAEg8si+F7f2WefLbvttlu8LPKPf/wjfioG/cQBHr+w+eh+Ssr6ANui3Ue5H0G3+57d10CpfdXWt+2UgnVwmZAjUARlXr/eDNgORpTGjBkTj58XXnhh3Jf79u0by9gP2NIeyc5vDKC/OBbhnIHvcSJAwxQBGpclJWVDYJO5xImDC0fQfvSjH8UDy9rwfK0Nr85r8bM2uA7KLfeKFSvk/PPPl0MPPVROO+20uMywY12CelYD5XzTXutWwzwSRtKQdtppRzn99DPit+1mzJgRHxq47777YoC2ttGTlJS3Itz3OCV2nmgdeQt9aTwNaD/IYwRtiy3GyGWX/TiOoGFkD9/lRJm2pT2SNw9o/1op5YdtMW/RfSDUdD2eMzByNnfuXPnud7+7RoBGH6wDtF+r6/lyWNtyPoH1q+vrugRlVvc0oP147QCtax9Wt/VLYW3XtU9g/er6ui5BmdU9DWg/XjtA69qH1TFf9qxpG8A8k8bTgNZoo5Onexp1oPMEC4OEX0R4Dxd2PCZopRIOSJhq+0rqWFur6bJqE+vBJ/vHeZbjCTBMERThfhXvEXe77vS81oHOE2sDqLEd5NE+nuDCwW3KlOfjL+/3ve99MmfOHHn7298ey9JXbaSk+HAf8/Y1D60jb5Onexp1fdyA1tjYK47E43jzeqDfahPRfdRojTY6eTo1wDYwj2MTbsVYvnz5GjqnzBNqnl4p1fi0GtAabXTydE+jDnSeWBtAzdMrZX37tBrQGm108nRPow50nlgbQM3TwSY1gvarX/1KHnnkkTiSxhs+S/nygoZiMfGLb7TxhY20Y5ntn+5LKZ2gHL7LwXaI7gthO4sXL47BEEasTj75ZBkwYMCr+gc8DbCPKLP9pb3WtY9S7SAxcBw4cGD8u+DvQ1tbJ+XNx/tbAf5tUcY8ob3WtQ+r2/rAa3Ndo5fRosts/2lvl5NY3dYvhbUt5xNYv7q+rktQZnVPA1pHHkHZ6NGj48j3JZdcIjfeeOPqYwoS4Eg4NdRHYvkbwev1VW756Rs/cnO52njO+MMf/iA33XRTHC0Enj3Qfq2u58thbcv5BNavrq/rEpRZ3dOA9uO1A7SufVjd1i+FtV3XPoH1q+vrugRlVvc0oP147QCtax9Wj21szPegcSGws7W2tskNN/xLhg8fIZMnT473dXCBuRIw0lTqUpteUQTBEd7jhTLWY4ClgzlgAysP9AfBSrGI94L59vqPBDDPBPgiSfQJwQ/e2r9gwQI59thj4wFG35i/LkA/uO7YJuYRoKGv+JXK8pT1g90W8PfQmp1/o9gQ/u7raj/YWNF/Ix6brrzyFzJr1qz4JCfuL8WxD+sRCfbcXrx5oH2uD9gPDywLlhM/IsePHy/f+9535YILPiPTpk2L5wxQrn5Kyrpko39IAAcDDFHvu+++csUVV8Sncpqbm1c/rs6DCOYxZaDFPKZI1IDeQWGTzeJN39k16gJ9QCq3U6OM5QywtKaxGg4mqKPtMUWb9PX5z38+Pi6Od5Dxpt51ibfeQCk9Zf2ht9W1bbebAm+FZXy9cB3h+Ib7Wg866KA4gvb+978/PpWNUTSUwQbJ7td2HlBbH+h+WNAvjBS2tLTE8wVAINrY2OguR0rK+mSjD9CwM+Gg8ve//11eeukl+eQnPym9evWKARnKEOAwsELe7nyYtwcTa4NybcdybefV8YBeqgyszQ/mtQ2eovziF78oBxxwQLzMiV+BWF5rZ+dT3rrobYrbRLp9vHXh3x5TfLYtny/EAG2nnXaKXwTB6zZwXMFoOI+nsOXxVG9PxNPWN+gvjpcIOPG1kyOPPFLOO+88efHFF9d4nQjXR0rK+majv8SJV00ccsgh8dcQbkqfPXt2vPFT/+LTVLPz8SDj1eF8KX/U6aPSNj3oA1g/+DWI95/985//lIsvvlj+/e9/x5t8bdtvRD9SNg74t8a2gTxe4cBtgFPa8FNd+paAlLcOepvg3x8PI+F2iW9+8xuy3XbbhR+/18aRtKVLl8bbSQqFNT+O7m03pbYl6pyWql8O1NFwnv3R8BYU9BkPMuGyJt4Zuf3228cf8//6179edZ/da+lTSsqbwUb7kACm+EWEy5nXX3+9PPPMM/FSH3a2crC+znOe8BcipmgDeHYEthptxzL60eh6rENNz2vNlmOKF9ZeeOEXZM8995IzzjjjVS+JRR3tj2iNeWLbAV5d4NUvhbUt5xNYv7q+rktQZnVPA9qP1w7QuvZhdVu/FNa2nE9g/er6ui5BGXSMhDQ1JaMCLS3N8YZoXY6EbZKXxHGbALZ3oP2yLVBO1/PlsLZra8v61fV1XYIyq3sa0H68doDWtQ+r2/qlsLblfALrV9fXdQnKrO5pgLpug3YI0qAfddRRcsopp4Qfgf2kszMfy7Gd6Pe24d5eHG94Kwht9BRwHrbc1tAG26ddOWADe9zegVtYNNB42wfK8AMlscWT70Xp1asxpCZ54YUX4quYnnrqqdWv1gCcoo7OE90/q+v5cljbcj6B9avr67oEZVb3NKD9eO0ArWsfVrf1S2Ft17VPYP3q+rouQZnVPQ1oP147QOvah9VjGxvbCJpecFzaPO644+R73/teHK6eP3/+6pGAUguuoS9bDl3XJ6X8vB7YDn3bPrEvum2tIeGG12HDhsVA9Qtf+EIcRbPvgYM90H5SNk3w8AhOmhgdwPvo8K48nFB5UuT2g/3nuuuuCz9q+ssRRxwZ63A7SXnrwGMJ4TaAwKa9vSMGVOE8EbcTfO0AlzqxrZAkOEuCLgZkNgGW0V5DG7C2YxR+WDDpII0PJvG4yCATdtA7Oztk8eIl8TyBvmCf0H1cW7spKeuajXIEDeDg0dHRGW+Mv/fee+Tzn/+CDB48eHWb2g/rApbrvJ7X2Pq6vJTPSrDtANSnH+vPm9fgAIQREHz4d4899pB3vOMd8QCEAymgPX1489o/sDZAt2t1W78U1racT2D96vq6LkGZ1T0NaD9eO0Dr2ofVbX0Pbef5J7Tz/FbSFgL2IUOGyJNPPinPPz9Fjj32uBi0cdSDvnGj9G9/+9uon3nmmatHXrV/ry3bh0r6RLy6xNOtX11f1yUos7qnAe3HawdoXfuwuq1fCmtbziewfnV9XZegzOqeBrQf2w5gHY5A8aErgGOOhrr14/VFT3W5rVsOBnuoo33Z9mBHUIbt2z7NTz8a+tG69m11W78U1racT2D96vq6LkGZ1T0NaD9eO0Dr2ofVbf1SWNt17RNYv7q+rktQZnVPA9qP1w7QuvZh9djGxjiCBnBZD0PvGD07+OCD468inGCAt3I8aBdXRMjbemyrEl/VwvYA+6Ap1bbuI31gHpd68aHyW265JV7qxTuMeC8aEu10nZR1A9Y3wP1eCJ74d8CJAjcns9za4SSIE0nv3k0h2E7uI9N/QwRY9KftUH/gwAHy8MOPyJQpU+LDI3h9Qn19Q9xOEKzx0g7b4SsG4Af+4BsjEOwDnnLj6DRSyqYNt0Vub3r6eoAPJGxT2La4PVEHa2uD5dYe82uryzpkbfYpKeuTjW4EDWDHxknmP//5j9x///3xsh5v9LR90X0Ael7bWjsP2oNSPjXaHuh2vDINyz1da9qO35Tba6+95Pjjjw8n61wIAvAm//K+rU/gtU8NWN3WL4W1LecTWL+6vq5LUGZ1TwPaj9cO0Lr2YXVbn6AMCYHR8OHD4zdT8TJQvGfq1ltvjTdfI/CBDQI2PPSCkeCTTjopftv0v//9b3yRJoIlBlGwxYjpFltsEW94xrvw7r333vigCC/x4HLUI488Gr+Jevrpp4cTIgK6Vtlzzz3jvnLPPffE9jbffPPob/p0fKw7eTUNLn1OnLiTnHDCibGv+HwafK9atWqNl3kS1C+1/BZri3ni6davrq/rEpRZ3dOA9uO1A7SufVjd1i+FtS3nE1i/ur6uS1BmdU8D2k+5djSen2rx2gJee2tD97OavqEOEgJF+tDte33S/q2u58thbcv5BNavrq/rEpRZ3dOA9uO1A7SufVjd1i+FtV3XPoH1q+vrugRlVvc0oP147QCtax9Wj21sjJc4cQI5/PDD5fvf/74cc8wxMTDB6JnXPtA6NDsPPA3odjXlfBLo2j+SZ6ttiKeBcvUxcoIggE904p40fkAddXAwYl77KedT69SA1W39Uljbcj6B9avr67oEZVb3NKD9eO0ArWsfVrf1Ccrw+bFtttlG/vSnP8mECRO6SxIfX/nKl+U73/lu/Dsh6Np7773lN7/5jWy55ZYx2EIQhY/P43UAsMd2jtFj3Lz961//Ol7KJH/961/ju6vw4wXbAb6qgeAKH7LHE3i77757vCUAwRhey4LRM/zIgS2+54pRM7SJVyt86UtfjJ/9IY8//picccaZ8buF/D4jKbf8Fmtbbp0C61fX13UJyqzuaUD78doBWtc+rG7rl8LalvMJrF9dX9clKLO6pwHtx2sHaF37sLqtD7w2QSU+10ap/nHe+tVlgPk0QHt1nwDtta59WN3WL4W1Xdc+gfWr6+u6BGVW9zSg/XjtAK1rH1bHfM+FeAfbAOaZNJ4GtMY8bb35Uhp1gnnc+Ix3n7388svxvWd24fWCI8/EeY3nn0nDeau/Xjx/XvtAa1wOargM9corr8jVV/9WPvOZC+JbwDHyopedttpPqXasTs3TK6Uan1YDWqONTp7uadSBzhNrA6h5eil4GecrX/lKDM4uuOCCGAy9853vlEcffVQuueRr8RLkwoULY/k111wTX5vygQ98QPbbb1+57LLLou1FF10UAyiMxO2zzz7RDn/bc899b3xJ8w9/+MM4mvahD30o2vFvjh8zCM723HOPeNkbwRXuVeSDBOw78rDFR/fx0uNnn30ujrzhCxU/+MEPQnC3R2wDo2y4J0lTbvkt3rpj0nga0BptdPJ0T6MOdJ5YG0DN0yulGp9WA1qjjU6e7mnUgc4TawOoebqHttcJYNtkcPRaEtHz9A1sex7aj8WrW8qnnS9HNT6tBrRGG5083dOoA50n1gZQ8/RKWd8+rQa0RhudPN3TqAOdJ9YGUPN0sE5H0JC3PvQ88DRAPzgpjRo1Kj6peM4558gDDzyw+rubACdE1Pd8eNCuXN/YNua9/nl1gacB+mGeWBugNVCuLhLWDy6RYaTkE5/4hNx2222r7zey9fQ888TaANse8eqXwtqW8wmsX11f1yUos7qnAe3HawdoXfuwuq1PMHqGgAp/DzxViQc4EAwhQMJoGUa4fvnLX8aRL3wXEN9WhQ2ersTN+wiIbrzxBpk4ced4ryVeGooRNQROeIIZ+wFs8CPlzjvviJ86w4MiaAMPCVx77bXRF0bb4A/tYB4jbwjkrr/+Ohk2bHgckcPl1bvuulPGjh0X+zx16tTupRC56qqr5F3vepfsuuuu8V2DvNwKyi2/xdqWW6fA+tX1dV2CMqt7GtB+vHaA1rUPq9v6pbC25XwC61fX13UJyqzuaUD78doBWtc+rG7re1if2h+oxAexdQl8eH5t20Tb6jLPvpyt9VsKa1tN+0DX13UJyqzuaUD78doBWtc+rG7rl8LarmufwPrV9XVdgjKrexrQfrx2gNa1D6tjvuwI2oYI7pHBKABOQAhGeNkOYKF0AnqFAcxbDeh8KViPPrQvBIYcLVmbL9Z5Lei6un2AdrE+EBTgfiEN+1XJcqa8ceCSIe4Vw3pHkIbtFveAIYjGly+OOOKIODI1btw4OeGEE+SWW26OQRfKYYdt/He/+30cDcX9YHjR5mGHHRYvZ+LyJF6vgmALI2t4oejIkSNjXQSA2A7e9ra3yZ///GfZbLPN4succfkb5dxW8E1YTPHOKIzgjR69eQzU8Mm0G264IY66/e1vf4tvlUed8IMuLlNKSrXY4xXntVYpum419XkMZGLdanykpKwr1mmAxh2i2p1KU1dXG2+wxiUhvPsMgQjebg3fBL65A5aD/dDBFRPLK0W3p+t7SbM23cJ2dIIdp7ichZM+RjieffaZNZ5sTVm/IAjiDwpM8feaN29e/Jv16dM7vrvu9tvviPeGsRyjXrjvC09hQkewhx8o9913b7ykjdEzbrvwD/iBegRSuPdt8uTJMmnSpHj5EgEcX+AJMMU2gvYGDhwY87gfDqNz2L9wryceWMCo9c9//nN5/vnnQ7s9o2cpKdXAYxaPR8xjO9Rl5RLxtGrQ+0BKyobIOh9Bez07FergRYmLFy+WK664PH7k9j3veU8I0prjr37cQ4ORBCTM46ZrBHAYSUAZR5ao2QQbJq3jUhDqYMo8fTBvky6zdvRbbSpXF8uLhwRwH9Kll14a7xuaO3dePMGnrD8QQCEIA/vvv9/qIArBFoKyO++8M943hhdo5nLZeDkaJwwETEiw23///WMdbJcYGQP9+w+IvvhuKiQEbyiHHcClfzwocPTRR8t3v/td2XbbbeXTn/503I7sSQkBPX74oP4zzzwdL5Meeughse5+++0X7/nE6Bvawz6YkvJa4faqwbGdui7TmtbfSF7LuSglZV2w0b0HDWDEAKMDuHEaN1A/+OCD8fMd2NE4egBwcuQ8d26dL0UyIoFRNf/AUKq+9b22dl4LXDYA/2wTl8623nrreDLHpSwEaRhh4UhMyvoB2xKCHlwuxCsucBkTlzDBueeeG+8NwwMEeD3KY489Fi9r4hIm7//aZpsJcscdd8ZRNDxcgAAOr8hAUI7RLYwkgx133DHej4nXcuDJZlz2RB7vxcN9Z9g+cKkT967hHjfcDwdfeNAGT4xitAxPd+LVHwjIDjvsULnvvvujb+xH0BG04R40/EDiyGxKSkpKypvDRvmaDeRxWRPffcPJBCck3KODEwxOhrTFt+H4a1/XB5zn1MIAjfCjuzU1mXiyQ0LwA+CDCSdknNDQDspplySMHL72QUv0CV9PwDKiHYC2EKxiNAX63XffHU/gGD1BGZevknWqsesJaB9Wt/VLYW3L+QTWr66v6xKUWd3TgPbjtQO0rn1Y3dYnKMNILoIuBEUItPDePoxsfv3rX482CLTwPjS8DgNv9sd3ZVGGpzk/+9nPxvvO8FLmm2++Of7dP/jBD8b71u666y75yU9+IqNGjZT/+78L4j1qGPFCMIV3oyFAQ8KlTfQBwd6dd94VR1vxUACe+MV9bLBFH1588cUYqOHBgYULF8kXv/jFOBqNBxfQf/QNH5jGjx5u+6Dc8lusbbl1CqxfXV/XJSizuqcB7cdrB2hd+7C6rV8Ka1vOJ7B+dX1dl6DM6p4GtB+vHaB17cPqtn4prG05n8D61fV1XYIyq3sa0H68doDWtQ+r2/qlsLblfALrV9fXdQnKrO5pQPvx2gFa1z6sbuuXwtqua5/A+tX1dV2CMqt7GtB+vHaA1rUPq8c2NtYADWCKS0AAv+hxMmFZJbCttdVhf/RUn6AIgyaWaTvW1VTTV9ZHHZ3gH+0iSMMUl6qQYI9yPbVAB7TR6PaI9mF1W78U1racT2D96vq6LkGZ1T0NaD9eO0Dr2ofVbX3CMgRIJ554YhzdxE36YM6cOTHgQeCG+89w6RHvO8PIMN9vhnf84csQeK0Ggu5C+BsXwt8aT+h+7nOfXf2uspkzZ8qXQz3c0I99Aek/t90Wgy4EfpiHr4999KNy2Y9/LKe/613y57/8RW668UYZPmJEHFnD5Uv086R3niQ/vvzHq/uJwP9nP/tZHOXD/gZflS6/xdqWW6fA+tX1dV2CMqt7GtB+vHaA1rUPq9v6pbC25XwC61fX13UJyqzuaUD78doBWtc+rG7rl8LalvMJrF9dX9clKLO6pwHtx2sHaF37sLqtXwprW84nsH51fV2XoMzqnga0H68doHXtw+q2fims7br2CaxfXV/XJSizuqcB7cdrB2hd+7B6bGNju8SpFxx5JJxYcBM1R8tKLbRF21niyukuL+djbbyeuqXw+m21N6PdlOrB34V/C9wbhsuJ+EIANNwfhsCKo50IsBEgwQZPVMIeI27Tpk3reeFw+DMX8gVZtXKlbL/99jJmzJgY2GH0GB9G7x/s0GZnCOIGDx4U9o2iLFm8OI56oc1iSPA/NwSHuGcRT4Gid/PmzZHaHO5XrIkjbOO2HBdfbIs6GN3DJ6MQ+DM44zKlpKSkpLw5bLQjaNpGz9OO0J6sbV5Trqwc1fjEPPF0atX2xfrV86Scb9s+sD6JV78U1racT2D96vq6LkGZ1T0NaD9eO0Dr2ofVbX2NroegCK/OgD0uc+L9ZYA+kHC5mja5EFghMMp1j8RijLYmE36UhGCutaVViiFYw3xtLie9GhvRsWgXHEprW1v02xCCqs58Z7CpjYEb/Peqb5BsLhttCuHHTRP7IZkYxLW0tgQ71E8uzyOIfK3Lr7G25XwC61fX13UJyqzuaUD78doBWtc+rG7rl8LalvMJrF9dX9clKLO6pwHtx2sHaF37sLqtXwprW84nsH51fV2XoMzqnga0H68doHXtw+q2fimsbTmfwPrV9XVdgjKrexrQfrx2gNa1D6vb+qWwtuvaJ7B+dX1dl6DM6p4GtB+vHaB17cPqsY2N8SEBi7cy3gjeLL+vB/0H9djQ+ptSHvv3tDtpEcXFEKh126EUWh47bwicMkGoQQp62FqjbSTEc0kuqYcgLG7PIbDLIOiC3lWUmmzyNndaszqCPmSDyWrSbSslJSVl3bFR34NGaK917cPqtv7a8PpTjnL+bfvl+gmsL13f6xfKrO5pQPvx2gFa1z6sbuuXwtqW8wmsX11f1yUos7qnAe3HawdoXfuwuq1fCmtbqi7bKoQwKRPy2W4TTApSTEbSugOtrhBVwTrkoi3yXfGfCrhiO/jKRqgTbZJ5WKJevHYa/ksUDewShX2tdBk8vLrE061fXV/XJSizuqcB7cdrB2hd+7C6rV8Ka1vOJ7B+dX1dl6DM6p4GtB+vHaB17cPqtn4prG05n8D61fV1XYIyq3sa0H68doDWtQ+r2/qlsLblfALrV9fXdQnKrP7/7Z0HoF1Vmf2/V9MLKSQQekcgdOlFAcGGHevYZnScGZ3Rcca/XQe74+hYRx3Hsfcyig1FlCogBALSW+gQAukvyav/vfZ9K1n5+M7JvSF5eQn7Bzt3n7W/b+1z7ztl39NupAH1ifoBqquH131+FT52pD2B99V8zSVo83qkAfWJ+gGqq4fXcx/bwhG0QmFbBqswVlicesSRMUzjyBnAgGvZ8hW2sqcnT+NU5aSJE/KgDQwNbwA62zvy0bPBfLhNHr0yNJC9OtIALW0ObCBNcNgGoBYKhUJh5CkDtEJhFMPvVxgw9aeJ/q52W7l6VT6iNr6r26y335799Gfa8SeckAddf7zwAvvNL35lk8eMtfaBIYznMIqzgQ7kD9lQEgby4Azf0AbzAKwjtbflc6mpLcXoAE1rhUKhUBg5GlceFwqFUQmGUnmI1NZhq9NAatma1TZmv72tc7+9bEmH2ZLePjvj6c+w1//t6+xv3/B6O+XU062/b9DG9LbbrLZxtruNtZm9aRDW15+PwOGAWlsagrUN9aeVv/HdDMM0DN5QMDgDjSNnqWBQl0qhUCgURpYyQCsURjEcoA0MDtnq9g6bdtIJ9tpPfNSe9va3ms2anloHbPGqxulNsHLpChvf22a7DY63k6fsak+ZtLPN7Zhq2w115aNueJRH4/Qmjos1TmtqWf+/QqFQKGwpagdoegEbwDSLEmlANcZoifRIow60TnwMoBbpzbKlPb0GVGOMlkiPNOpA68THAGqR3iyteHoNqMYYLZEeadSB1omPAdQivVla8czHrfAg4lTv7R+w7Xba2V7y9rfZsj13tVVHHWqT//bVZhO6bUkapJFxQx22w+AYO7l7tp28eqo9dfUMO9Zm2czeLhsz2N44ldnWaUO5dGR/DNjaU15HKu1DbbmkmnW0pc0Dbh4YHqrVzWuzRLlVnl4DqjFGS6RHGnWgdeJjALVIb5ZWPL0GVGOMlkiPNOpA68THAGqR3iyteHoNqMYYLZEeadSB1omPAdQivVla8fQaUI0xWiI90qgDrRMfA6hFerNsaU+vAdUYoyXSI4060DrxMYBapIOOCRMmvD/XCoXCqAKP0RjAUS98j2rvsiWrVtl947pt2sEH2X1jumzOfvvavQ8+ZLvvOMfOPOzInHP7H660Ry+61k4fv7PtvLorDbTa7K6eZXbTwEpb0d2RvXBKMz+qY3AwdZKs08YANwrkGw/ydqFxPG3tgbZ1L4VCoVAYIcoRtBq2tKfXgGqM0RLpkUYdaJ34GEAt0pulFU+vAdUYoyXSI4060DrxMYBapDdLK54YHw2lQVpvqi8b6DfrWW33f/P7duf5l9rYtjH2SBp+7ffKl1vbYQfaokaa7W1j7YgxM2zHNWOsbajLrupbZhf3PmpLrMv613RZ55puGzs4xjpSd22daSCGfvC4jbY+G0LJV6FBx8E1zME66ua1WaLcKk+vAdUYoyXSI4060DrxMYBapDdLK55eA6oxRkukRxp1oHXiYwC1SG+WVjy9BlRjjJZIjzTqQOvExwBqkd4srXh6DajGGC2RHmnUgdaJjwHUIr1ZtrSn14BqjNES6ZFGHWid+BhALdJBOYJWKIxCsIL2WZutSGWfo46zfU86wxaOn2L9y1bbwgX3Wtuhh9uU2TvYhHHd9ugdd9jxu+9hs4c67ZLPft2671pqOwxNt8WrzP60aqkt7tzOZs060Obud6yNbR9vS5YusdVtq6w/9dDe1pEGchiIDaROcUNA2likQSHqg2ng1rhpIGn5tVAoFAojRe0ALRrVsSiRBlRjjJZIjzTqQOvExwBqkd4sW9rTa0A1xmiJ9EijDrROfAygFunN0oqn14BqjNES6ZFGHWid+BhALdKbpRXPnqE2W9M91g58zktsysnPtY65x1nb4cfairGTbdmSlTZ92nTbZdIk++O3vmN9f7nZ7v/txfbbr33Pdpu6s1nfdtbfNcem7nikHXbgmXbkLqfbHlMPtM72cXbPA/daT9sSG+joNTzqFkfMMCDL17sN4d7OfIIzabzPM83f8DxVzWuzRLlVnl4DqjFGS6RHGnWgdeJjALVIb5ZWPL0GVGOMlkiPNOpA68THAGqR3iyteHoNqMYYLZEeadSB1omPAdQivVla8fQaUI0xWiI90qgDrRMfA6hFerNsaU+vAdUYoyXSI4060DrxMYBapIOWB2gRzeit5FbFgmbjW+mvCh87GjxVbyW3KhY0G99Kf1X42FY9VW8ltyoWNBvfSn9V+NiqfnDh/urBQZs4Z2eb+9Sn2+LxM2xpx3gbM3mGTd9jXxs7YbLdfvEldvPvfm2Dt95m877/Y7vx0itsSvsY6+3psEmT97V9DjnVJs/ez7q6Zpr1dqe1PQ34xq62mxfeYA+tvtcGunrRGy5CSwMxnObEDQMYsDXmCbOGwVqu5+lG3bOp3z9oRm8ltyoWNBvfSn9V+NhWPVVvJbcqFjQb30p/VfjYVj1VbyW3KhY0G99Kf1X42FY9VW8ltyoWNBvfSn9V+NjR4Kl6K7lVsaDZ+A31V05xFgqjjHUrbfpmNdRmCx960Fav7rHJ3d02uWuCdfa125QxE22Hri67/3vfMLvhOutu67COgTZb1T9o3RN3tAMPPsP6u2bYsjTd07baFtuDds2Df7KLF5xvd6+6zVZ39dhAO340qvEbnY0+0+AsD9Dwc1Cpirs781wUCoVCYaQpv8VZg48daU/gfTVfcwnavB5pQH2ifoDq6uF1n1+Fj63zBN5X8zWXoM3rkQbUJ+oHqK4eXvf5VfhY76nTg3g4bV+bLR/oToFTzLbb03bY+1g77Mkn28re1XbtZb+2vrv+aF2r77e2wYH8c014VMY4m227TTvRDtn/Kfkas2vmX2H3P3iDLVt9r/WNWWzdk/pssGuVrRlYmfpMeWk0luYqzQBOcXbm+WhvQ8E8Na5Cy4zA+yfUva/may5Bm9cjDahP1A9QXT287vOr8LF1nsD7ar7mErR5PdKA+kT9ANXVw+s+vwofW+cJvK/may5Bm9cjDahP1A9QXT287vOr8LF1nsD7ar7mErR5PdKA+kT9ANXVw+s+vwofO9KewPtqvuYStHk90oD6RP0A1dXD65gupzhr8LGjwVP1VnKrYkGz8a30V4WPbdVT9VZyq2JBs/Gt9NcsPhfTKHigbEdbp41N/00dnGp7de9jR409yI4f2NvmLtnOdr9/wHZZtsbs0btsoOcRS8MqG+wYskf7e2xgl51s++c+x5Ycvo/dvecUu3tOtz00zWzh2FW2sm+R9bWnvKFea8fvcKY+85VmuAYNs5IGefh9z1RJr5gj2chUvM9W3n/0fiOa0VvJrYoFzca30l8VPrZVT9Vbya2KBc3Gt9JfFT62VU/VW8mtigXNxrfSXxU+tlVP1VvJrYoFzca30l8VPnY0eKreSm5VLGg2fkP9lQFaDT52NHiq3kpuVSxoNr6V/qrwsa16qt5KblUsaDa+lf6q0Fit49vSY3z62236mOl2+qFn2Gm7nmInzT7KDhyzs+05NN726x5nU1cttkUL5qWx1XJb1r/SHrY1tmbGRFs9caz1Hnu0De23mz0ysc3G7jHL5hyyj+19yL42a4ep9sDdt9vAyqU2riMNzfAstMS6b28YnA3PG+YpTw1T8T439v2Dqtxm9FZyq2JBs/Gt9FeFj23VU/VWcqtiQbPxrfRXhY9t1VP1VnKrYkGz8a30V4WPbdVT9VZyq2JBs/Gt9FeFjx0Nnqq3klsVC5qN31B/ja1xoVAYNXCw1p7GTmMHum3XiTvbzl0728Te8dbV2W+Dgwtt2T3zbNWNl9txY9JgrbfdDtt3f9vhwP1sxtNOssPf88/20NjVdv3df7G+lYus2/psJcy2n2Hjd9klDePabLAdpzLTBiC9tuFRG+0daauQNgft6BsDs8F8irNxBE2OohUKhUJhRCg3CRQKI4h+Y0LdX3dAUO8Y6rT2NPjafsIs237iLFv00P12y51X2h1/ucS6HrrDduhaYxO7VlvvuEF759c/b3s++xS7fPnDduCZz7Ap++1rC+641ZZ++9v2wKKHbWzbgG0/pt3uuvIye/TqK2xsGoh1DeIH09NAMD/3LM1L6jdfc8ZZwuvwLLljaYVCoVDYzJSbBGrwsSPtCbyv5msuQZvXIw2oT9QPUF09vO7zq/CxdZ7A+2q+5hK0eT3SgPpE/QDV1cPrPr8KjfV+2ifq7YPt1tXfbbMmzrZJNsUGHu6xcatX26Ft29mzJ+5oEwd67daBh2zu659re33mTfZoyv3YNZfavPZBe2DOztbe32HXffizZj/8udnkqTZ11vY2tPRhW/ngvTa5Y8jGDA7m3+ZEf0MpB88+wwANtwzgtzgB7vPkO/PzS/Q9bQgfW+cJvK/may5Bm9cjDahP1A9QXT287vOr8LF1nsD7ar7mErR5PdKA+kT9ANXVw+s+vwofW+cJvK/may5Bm9cjDahP1A9QXT287vOr8LF1nsD7ar7mErR5PdKA+kT9ANXVw+s+vwofO9KewPtqvuYStHk90oD6RP0A1dXD65gupzgLhVEAV0iupHgdbBu0ga5+u2/F3Xbz0vm2pOMumzah1/bcYayN61hpgx2r7N6BpWY7bpdzxqay+IZb7N4/X2WT0gCsPeWe9IrnmR20p9nSB235TddY/4P32OT2AetaO+xqgG4bfaf5wHTabqAUCoVCYctQTnEWCiOIfmPioMzDmPzwi+H2zo422z4Nq46fOMf2ahuXT0/eM7Tcfrtqge36zJNsz2MOTa1mf/jd7+0X3/ym7XXicdY9dYrZ1Mm23U472oNX/tlsyWLrbh+09sEBaxvEiCwlZP9Uhmer0Rt+oL1xRG1tQ6FQKBRGlNojaLozAZhmUSINqMYYLZEeadSB1omPAdQivVm2tKfXgGqM0RLpkUYdaJ34GEAt0pulFU+vAdUYoyXSI4060DrxMYBapG8sVZ4g63hGWRqc4Whaf9uA9Qyttkc71thdY3vtsp777VZbaYvHDSckZnd2m13zF/vjpz5nO69YZbOSR0fvqmQ2mAZnQ9aZbwBAARiYDaY+hgdpWU2t6SX/HieKUDWv0bxXEeVWeXoNqMYYLZEeadSB1omPAdQivVla8fQaUI0xWiI90qgDrRMfA6hFerO04uk1oBpjtER6pFEHWic+BlCL9GZpxdNrQDXGaIn0SKMOtE58DKAW6c2ypT29BlRjjJZIjzTqQOvExwBqkQ7KEbRCYQTRFRH16AgaySsuBk1pUIUH/PcO9NmSNT32aPeQ3TG40v7S84jd395rpz7/TDvwkLk5Z96V8+zX559vds99NmGwzVbMv96u+M/PmS1aZNM6u6x9cMja8awzHX+lecj9YHA2XMtjtzxrDb1QKBQKI8v6X5EdujMBeYcxXJRIA6oxRkukRxp1oHXiYwC1SG+WLe3pNaAaY7REeqRRB1onPgZQi/RmacXTa0A1xmiJ9EijDrROfAygFukby4Y8B4caF+njdGNvd7vd19Vnf175gP255yF7cLzZ8s4hW7RsSY4Fq1autO40+uoaNLv8q9+wSz/3X2aPLrapbR021NdvbQND1rFeX40TmfiXNYCYdsxXnmqwoXlthii3ytNrQDXGaIn0SKMOtE58DKAW6c3SiqfXgGqM0RLpkUYdaJ34GEAt0pulFU+vAdUYoyXSI4060DrxMYBapDdLK55eA6oxRkukRxp1oHXiYwC1SG+WLe3pNaAaY7REeqRRB1onPgZQi/T8WncXZ6FQ2LRgxeNRM617ojZ8m+pIEo6AAbT2p3/HjB9n4yeMz4/LWLFipfWsWmWD7W3Wh0dmIGkwDcqGOvJPQbUnT/yME/S1QzP0g6N0OHo27J2/uaEZ8zFcLRQKhcLIUQZohcII0uwArRmQD3p7e62/vz/Xu7u7rLMTtwukQdXwAA1dDA6mAVpbexqg4TEaaTDWtu7xGThMhuHZ8FzlU5t5gJYpA7RCoVDYEpQBWqEwgmzKARrgIE19VEO1cUtAe57uSKMv/PYmfiS9kYGp4fj0OtiopkEa1UKhUChsCdZ9US4UClsdGHT5Qd46rTEwa8v/NaZwVG0glUHUh0sDRqA0XtZ3LRQKhcJIUn5JoAYfO9KewPtqvuYStHk90oD6RP0A1dXD6z6/Ch9b5wm8r+ZrLkGb1yMNqE/UD1BdPbzu86vQWPUDUV/ety4foK0Nt2jmevonxSAKw7QhPPusPQ3e2oafcobY9F87jqI1gocfTtt4gjWqSCHan86XztOG8LF1nsD7ar7mErR5PdKA+kT9ANXVw+s+vwofW+cJvK/may5Bm9cjDahP1A9QXT287vOr8LF1nsD7ar7mErR5PdKA+kT9ANXVw+s+vwofW+cJvK/may5Bm9cjDahP1A9QXT287vOr8LEj7Qm8r+ZrLkGb1yMNqE/UD1BdPbye+yinOAuFkUNX3Ggl3nSkoVcaqA1iJcdU6qa9vS0fPRtKE7wCLR9dS1VuJjg3OPHZIM3jcK1QKBQKI0c5glaDjx1pT+B9NV9zCdq8HmlAfaJ+gOrq4XWfX4WPrfME3lfzNZegzeuRBtQn6georh5e9/lVaKz6gagv71uXD9DW0HVeBxta+l/d8hG1RH7sxrDnQP63ocEBAzzmaH9+Xv18VuFj6zyB99V8zSVo83qkAfWJ+gGqq4fXfX4VPrbOE3hfzddcgjavRxpQn6gfoLp6eN3nV+Fj6zyB99V8zSVo83qkAfWJ+gGqq4fXfX4VPrbOE3hfzddcgjavRxpQn6gfoLp6eN3nV+FjR9oTeF/N11yCNq9HGlCfqB+gunp4PfdRjqAVCts+OGrWIG0QUlU3Lajn5lThtWm8OLVsHAqFQmHLUI6g1eBjR9oTeF/N11yCNq9HGlCfqB+gunp43edX4WPrPIH31XzNJWjzeqQB9Yn6Aaqrh9d9frPUeYJovqhpLkGb1yMNrOczXGdv0JCBI2hEPXS+oOt0HT62zhN4X83XXII2r0caUJ+oH6C6enjd51fhY+s8gffVfM0laPN6pAH1ifoBqquH131+FT62zhN4X83XXII2r0caUJ+oH6C6enjd51fhY+s8gffVfM0laPN6pAH1ifoBqquH131+FT52pD2B99V8zSVo83qkAfWJ+gGqq4fXMV3u4iwURpBopR4NYNOw/ubksdOFQqFQGDnKKc5CoVAoFAqFUUY5xVmDjx1pT+B9NV9zCdq8HmlAfaJ+gOrq4XWfX4WPrfME3lfzNZegzeuRBtQn6georh5e9/lV+Ng6T+B9NV9zCdq8HmlAfaJ+gOrq4XWfX4WPrfME3lfzNZegzeuRBtQn6georh5e9/lV+Ng6T+B9NV9zCdq8HmlAfaJ+gOrq4XWfX4WPrfME3lfzNZegzeuRBtQn6georh5e9/lV+Ng6T+B9NV9zCdq8HmlAfaJ+gOrq4XWfX4WPHWlP4H01X3MJ2rweaUB9on6A6urhdUyXU5yFQqFQKBQKo4wyQCsUCoVCoVAYZZQBWqFQKBQKhcIoo9wkUCgUCoVCoTDKKDcJ1OBjR9oTeF/N11yCNq9HGlCfqB+gunp43edX4WPrPIH31XzNJWjzeqQB9Yn6Aaqrh9d9fhU+ts4TeF/N11yCNq9HGlCfqB+gunp43edX4WPrPIH31XzNJWjzeqQB9Yn6Aaqrh9d9fhU+ts4TeF/N11yCNq9HGlCfqB+gunp43edX4WPrPIH31XzNJWjzeqQB9Yn6Aaqrh9d9fhU+ts4TeF/N11yCNq9HGlCfqB+gunp43edX4WNH2hN4X83XXII2r0caUJ+oH6C6engd0+UUZ6FQKBQKhcIoo5ziLBQKhUKhUBhllFOcNfjYkfYE3lfzNZegzeuRBtQn6georh5e9/lV+Ng6T+B9NV9zCdq8HmlAfaJ+gOrq4XWfX4WPrfME3lfzNZegzeuRBtQn6georh5e9/lV+Ng6T+B9NV9zCdq8HmlAfaJ+gOrq4XWfX4WPrfME3lfzNZegzeuRBtQn6georh5e9/lV+Ng6T+B9NV9zCdq8HmlAfaJ+gOrq4XWfX4WPrfME3lfzNZegzeuRBtQn6georh5e9/lV+NiR9gTeV/M1l6DN65EG1CfqB6iuHl7PfZQjaIVCoVAoFAqji3IErQYfO9KewPtqvuYStHk90oD6RP0A1dXD6z6/Ch9b5wm8r+ZrLkGb1yMNqE/UD1BdPbzu86vwsXWewPtqvuYStHk90oD6RP0A1dXD6z6/Ch9b5wm8r+ZrLkGb1yMNqE/UD1BdPbzu86vwsXWewPtqvuYStHk90oD6RP0A1dXD6z6/Ch9b5wm8r+ZrLkGb1yMNqE/UD1BdPbzu86vwsXWewPtqvuYStHk90oD6RP0A1dXD6z6/Ch870p7A+2q+5hK0eT3SgPpE/QDV1cPruY9yBK1QKBQKhUJhdFHu4iwUCoVCoVAYZZQBWqFQKBQKhcIoowzQCoVCoVAoFEYZ5SaBGnzsSHsC76v5mkvQ5vVIA+oT9QNUVw+v+/wqfGydJ/C+mq+5BG1ejzSgPlE/QHX18LrPr8LH1nkC76v5mkvQ5vVIA+oT9QNUVw+v+/wqfGydJ/C+mq+5BG1ejzSgPlE/QHX18LrPr8LH1nkC76v5mkvQ5vVIA+oT9QNUVw+v+/wqfGydJ/C+mq+5BG1ejzSgPlE/QHX18LrPr8LH1nkC76v5mkvQ5vVIA+oT9QNUVw+v+/wqfOxIewLvq/maS9Dm9UgD6hP1A1RXD6/nPspNAoVCoVAoFAqji3IErQYfO9KewPtqvuYStHk90oD6RP0A1dXD6z6/Ch9b5wm8r+ZrLkGb1yMNqE/UD1BdPbzu86vwsXWewPtqvuYStHk90oD6RP0A1dXD6z6/Ch9b5wm8r+ZrLkGb1yMNqE/UD1BdPbzu86vwsXWewPtqvuYStHk90oD6RP0A1dXD6z6/Ch9b5wm8r+ZrLkGb1yMNqE/UD1BdPbzu86vwsXWewPtqvuYStHk90oD6RP0A1dXD6z6/Ch870p7A+2q+5hK0eT3SgPpE/QDV1cPruY9yBK1QKBQKhUJhdFGOoNXgY0faE3hfzddcgjavRxpQn6gfoLp6eN3nV+Fj6zyB99V8zSVo83qkAfWJ+gGqq4fXfX4VPrbOE3hfzddcgjavRxpQn6gfoLp6eN3nV+Fj6zyB99V8zSVo83qkAfWJ+gGqq4fXfX4VPrbOE3hfzddcgjavRxpQn6gfoLp6eN3nV+Fj6zyB99V8zSVo83qkAfWJ+gGqq4fXfX4VPrbOE3hfzddcgjavRxpQn6gfoLp6eN3nV+FjR9oTeF/N11yCNq9HGlCfqB+gunp4HdPlLs5CoVAoFAqFUUbbzJkz1x/mFQqFQqFQKBS2KLUDNH+Yru5wHFANaL7mErR5PdKA+kT9ANXVw+s+vwofO9KewPtqvuYStHk90oD6RP0A1dXD6z6/Ch9b5wm8r+ZrLkGb1yMNqE/UD1BdPbzu86vwsXWewPtqvuYStHk90oD6RP0A1dXD6z6/Ch9b5wm8r+ZrLkGb1yMNqE/UD1BdPbzu86vwsXWewPtqvuYStHk90oD6RP0A1dXD6z6/Ch9b5wm8r+ZrLkGb1yMNqE/UD1BdPbzu86vwsXWewPtqvuYStHk90oD6RP0A1dXD6z6/Ch870p7A+2q+5hK0eT3SgPpE/QDV1cPrmC6nOAuFQqFQKBRGGWWAVigUCoVCoTDKKAO0QqFQKBQKhVFGuUmgUCgUCoVCYZRRbhKowceOtCfwvpqvuQRtXo80oD5RP0B19fC6z6/Cx9Z5Au+r+ZpL0Ob1SAPqE/UDVFcPr/v8KnxsnSfwvpqvuQRtXo80oD5RP0B19fC6z6/Cx9Z5Au+r+ZpL0Ob1SAPqE/UDVFcPr/v8KnxsnSfwvpqvuQRtXo80oD5RP0B19fC6z6/Cx9Z5Au+r+ZpL0Ob1SAPqE/UDVFcPr/v8KnxsnSfwvpqvuQRtXo80oD5RP0B19fC6z6/Cx460J/C+mq+5BG1ejzSgPlE/QHX18DqmyynOQqFQKBQKhVFGOcVZKBQKhUKhMMoopzhr8LEj7Qm8r+ZrLkGb1yMNqE/UD1BdPbzu86vwsXWewPtqvuYStHk90oD6RP0A1dXD6z6/Ch9b5wm8r+ZrLkGb1yMNqE/UD1BdPbzu86vwsXWewPtqvuYStHk90oD6RP0A1dXD6z6/Ch9b5wm8r+ZrLkGb1yMNqE/UD1BdPbzu86vwsXWewPtqvuYStHk90oD6RP0A1dXD6z6/Ch9b5wm8r+ZrLkGb1yMNqE/UD1BdPbzu86vwsSPtCbyv5msuQZvXIw2oT9QPUF09vJ77KEfQCoVCoVAoFEYX5QhaDT52pD2B99V8zSVo83qkAfWJ+gGqq4fXfX4VPrbOE3hfzddcgjavRxpQn6gfoLp6eN3nV+Fj6zyB99V8zSVo83qkAfWJ+gGqq4fXfX4VPrbOE3hfzddcgjavRxpQn6gfoLp6eN3nV+Fj6zyB99V8zSVo83qkAfWJ+gGqq4fXfX4VPrbOE3hfzddcgjavRxpQn6gfoLp6eN3nV+Fj6zyB99V8zSVo83qkAfWJ+gGqq4fXfX4VPnakPYH31XzNJWjzeqQB9Yn6Aaqrh9dzH+UIWqFQKBQKhcLootzFWSgUCoVCoTDKKAO0QqFQKBQKhVFGGaAVCoVCoVAojDLKTQI1+NiR9gTeV/M1l6DN65EG1CfqB6iuHl73+VX42DpP4H01X3MJ2rweaUB9on6A6urhdZ9fhY+t8wTeV/M1l6DN65EG1CfqB6iuHl73+VX42DpP4H01X3MJ2rweaUB9on6A6urhdZ9fhY+t8wTeV/M1l6DN65EG1CfqB6iuHl73+VX42DpP4H01X3MJ2rweaUB9on6A6urhdZ9fhY+t8wTeV/M1l6DN65EG1CfqB6iuHl73+VX42JH2BN5X8zWXoM3rkQbUJ+oHqK4eXs99lJsECoVCoVAoFEYX5QhaDT52pD2B99V8zSVo83qkAfWJ+gGqq4fXfX4VPrbOE3hfzddcgjavRxpQn6gfoLp6eN3nV+Fj6zyB99V8zSVo83qkAfWJ+gGqq4fXfX4VPrbOE3hfzddcgjavRxpQn6gfoLp6eN3nV+Fj6zyB99V8zSVo83qkAfWJ+gGqq4fXfX4VPrbOE3hfzddcgjavRxpQn6gfoLp6eN3nV+Fj6zyB99V8zSVo83qkAfWJ+gGqq4fXfX4VPnakPYH31XzNJWjzeqQB9Yn6Aaqrh9dzH+UIWqFQKBQKhcLoohxBq8HHjrQn8L6ar7kEbV6PNKA+UT9AdfXwus+vwsfWeQLvq/maS9Dm9UgD6hP1A1RXD6/7/Cp8bJ0n8L6ar7kEbV6PNKA+UT9AdfXwus+vwsfWeQLvq/maS9Dm9UgD6hP1A1RXD6/7/Cp8bJ0n8L6ar7kEbV6PNKA+UT9AdfXwus+vwsfWeQLvq/maS9Dm9UgD6hP1A1RXD6/7/Cp8bJ0n8L6ar7kEbV6PNKA+UT9AdfXwus+vwseOtCfwvpqvuQRtXo80oD5RP0B19fA6pstdnIVCoVAoFAqjjHKKs1AoFAqFQmGUUU5x1uBjR9oTeF/N11yCNq9HGlCfqB+gunp43edX4WPrPIH31XzNJWjzeqQB9Yn6Aaqrh9d9fhU+ts4TeF/N11yCNq9HGlCfqB+gunp43edX4WPrPIH31XzNJWjzeqQB9Yn6Aaqrh9d9fhU+ts4TeF/N11yCNq9HGlCfqB+gunp43edX4WPrPIH31XzNJWjzeqQB9Yn6Aaqrh9d9fhU+ts4TeF/N11yCNq9HGlCfqB+gunp43edX4WNH2hN4X83XXII2r0caUJ+oH6C6engd0+UUZ6FQKBQKhcIoowzQCoVCoVAoFEYZ5Rq0QqFQKBQKhVFGOYJWKBQKhUKhMMooA7RCoVAoFAqFUUbbjBkzKk9x+jsR6u44AKoBzddcgjavRxpQn6gfoLp6eN3nV+FjR9oTeF/N11yCNq9HGlCfqB+gunp43edX4WPrPIH31XzNJWjzeqQB9Yn6Aaqrh9d9fhU+ts4TeF/N11yCNq9HGlCfqB+gunp43edX4WPrPIH31XzNJWjzeqQB9Yn6Aaqrh9d9fhU+ts4TeF/N11yCNq9HGlCfqB+gunp43edX4WPrPIH31XzNJWjzeqQB9Yn6Aaqrh9d9fhU+ts4TeF/N11yCNq9HGlCfqB+gunp43edX4WNH2hN4X83XXII2r0caUJ+oH6C6eng991E3QCsUCoVCoVAojDzlCFoNPnakPYH31XzNJWjzeqQB9Yn6Aaqrh9d9fhU+ts4TeF/N11yCNq9HGlCfqB+gunp43edX4WPrPIH31XzNJWjzeqQB9Yn6Aaqrh9d9fhU+ts4TeF/N11yCNq9HGlCfqB+gunp43edX4WPrPIH31XzNJWjzeqQB9Yn6Aaqrh9d9fhU+ts4TeF/N11yCNq9HGlCfqB+gunp43edX4WPrPIH31XzNJWjzeqQB9Yn6Aaqrh9d9fhU+dqQ9gffVfM0laPN6pAH1ifoBqquH13Mf5QhaoVAoFAqFwuiiHEGrwceOtCfwvpqvuQRtXo80oD5RP0B19fC6z6/Cx9Z5Au+r+ZpL0Ob1SAPqE/UDVFcPr/v8KnxsnSfwvpqvuQRtXo80oD5RP0B19fC6z6/Cx9Z5Au+r+ZpL0Ob1SAPqE/UDVFcPr/v8KnxsnSfwvpqvuQRtXo80oD5RP0B19fC6z6/Cx9Z5Au+r+ZpL0Ob1SAPqE/UDVFcPr/v8KnxsnSfwvpqvuQRtXo80oD5RP0B19fC6z6/Cx460J/C+mq+5BG1ejzSgPlE/QHX18HruoxxBKxQKhUKhUBhdlMdsFAqFQqFQKIwyygCtUCgUCoUtAE5wPfZEWaHQoAzQCoVCoVAYYfLgbKgM0ArVlJsEavCxI+0JvK/may5Bm9cjDahP1A9QXT287vOr8LF1nsD7ar7mErR5PdKA+kT9ANXVw+s+vwofW+cJvK/may5Bm9cjDahP1A9QXT287vOr8LF1nsD7ar7mErR5PdKA+kT9ANXVw+s+vwofW+cJvK/may5Bm9cjDahP1A9QXT287vOr8LF1nsD7ar7mErR5PdKA+kT9ANXVw+s+n1M8AjI4/NousXDrTP9iaiBNDCadPUT9A+1L54egzeuRBtQn6georh5e9/lV+NiR9gTeV/M1l6DN65EG1CfqB6iuHl7PfZSbBAqFQqFQ2DQMYciF/e7wC/7lTlZ36ah3DDfkAVp61fZCoRxBq8HHjrQn8L6ar7kEbV6PNKA+UT9AdfXwus+vwsfWeQLvq/maS9Dm9UgD6hP1A1RXD6/7/Cp8bJ0n8L6ar7kEbV6PNKA+UT9AdfXwus+vwsfWeQLvq/maS9Dm9UgD6hP1A1RXD6/7/Cp8bJ0n8L6ar7kEbV6PNKA+UT9AdfXwus+vwsfWeQLvq/maS9Dm9UgD6hP1A1RXD69zegjnLBtDNBlsoZZKEnkEje04gobXwfQPjqA1XBqeIJovajo/BG1ejzSgPlE/QHX18LrPr8LHjrQn8L6ar7kEbV6PNKA+UT9AdfXweu6jHEErFAqFQuHxkgZYaYCGHaruujFmS7ta1BrCMJjKp0CHE/BSdsYFpRxBq8HHjrQn8L6ar7kEbV6PNKA+UT9AdfXwus+vwsfWeQLvq/maS9Dm9UgD6hP1A1RXD6/7/Cp8bJ0n8L6ar7kEbV6PNKA+UT9AdfXwus+vwsfWeQLvq/maS9Dm9UgD6hP1A1RXD6/7/Cp8bJ0n8L6ar7kEbV6PNKA+UT9AdfXwus+vwsfWeQLvq/maS9Dm9UgD6hP1A1RXD683phsDNIIqr0FrtKa49vYc256E7FbjCVQDOq86PwRtXo80oD5RP0B19fC6z6/Cx460J/C+mq+5BG1ejzSgPlE/QHX18Dqmy12chcJWjN8IgEgrFAqbh8ZJSi2PJVbTupoaUAqFiHKKs1AYJfhvZBsaaPlvaVXfxgqFwqaFa1f78KCsMY3Tm489irZurUxxwxMMYeT6a36h0KCc4qzBx460J/C+mq+5BG1ejzSgPlE/QHX18LrPr8LH1nkC76v5mkvQ5vVIA+oT9QNUVw+v+/wqNJZ1fQWDg4O5zum6vjSXumpA64qPVzSXqIfXfX4VPrbOE3hfzddcgjavRxpQn6gfoLp6eN3nV+Fj6zyB99V8zSVo83qkAfWJ+gGqq4fXfX4VPrbOE3hfzddcgjavRxpQn6gfoLp6NB6JMfxf0gdTGAZnySm3r+8mHu0pIgXTKfeN11SivqL50vn2oM3rkQbUJ+oHqK4eXvf5VfjYkfYE3lfzNZegzeuRBtQn6georh5ex3Q5xVkobCGwAnJF5Cvrjxf1KxQKm4Z8SjK9Yg3NZXj1ary0WXsK6Eilc7isPcKGPFTz1DpQx04Y+WVNLXjKAK1Q2EL4wRk1Fg6wUI/QPKKa5vm4QmFLgeWyapl+PHAZ31zLevYdPvqVB1b5LQz3mf8FjVY8TqNRT/+2Yzc7XE+BbFkXse61UFDKAK1QGAX4nRZ2Bpyu2+H4HZ3mEXpvrh1XoVAFlz1dBlkwvalQP75uyuUdjuuV9E96F2nwhUsSBmz5sqX26OJHbeWaVTbU0W69KaY/xQykQJwORVbbUCr5vzSVJNzJqUAvFJRyk0ChsAXBzgTXnLWnb9moDwwMrN3BgGZ2Nj4GXqijoE7QD0HOptyBFQoeLmNYBvv7+62jo2OzLnO6HrBfvG6KZR3ObRiNJfrSxPL+Nfk9Tewea+O6uu2Qgw+xKZOn2J13LLC777jTxmAwhvWtq8P6hgbyLwXApA3z4eaFpz7L2ljwdIwfP/79w/XHwAWeYJpFiTSgGmO0RHqkUQdaJz4GUIv0ZtnSnl4DqjFGS6RHGnWgdeJjALVIb5ZWPL0GVGOMlkiPNOpA68THAGqR3iwaizp3HFrnoIqxG9q5aC5AHQXf7AFvOoCvvwEBaJ34GM+G8qvwseynSveoxhgtkR5p1IHWiY8B1CK9WVrx9BpQjTFaIj3SqAOtEx8DqEV6FWzDK5ZJLtuo04tFiTSgGmNY1F9hjo8nWic+JoPptg57tK/PBidPsI6ddrA1ix61qTNm2pe/8EV78QuelwZgHfaHX/7Gdmofa9u3j7G2Nb3WmfJwVG0Qs7buO1KD9nXzo2t52H9CNcZoifRIow60TnwMoBbpzbKlPb0GVGOMlkiPNOpA68THAGqRDh67NBeaQj9UbBgKTxw25d8bXsuXL0/fxvvy8tTZ2Zl1XWF9ndN81Z0dWLNmjS1btsx6elZl75UrV9rq1avzN37swBCn70Hr9CCYRv6jjz6afVFWrFiR21atWpV9C4UquGwNDPSvXW6g6TKn6HIcxUBjjPpQ59HovjSIwjpA6Pl4SD3Y6t5+m7bTzvb8d73DXvmB95sd/CS7f3WPPbJ6VZ6HjoEh226gzQ7snGJHT9nBnjRxpk0d7LSO/pSdD5UNzy+KzFL8aRSe6NQeQSusgxsEDzcWhScmulxwWeDyoK8s3JEA7EzGjh1rp5xyii1a9EjeqVBnjO54MFDq7u5+jBfroLe31w444AB71ateZU972tPsuOOOs/322y/n33fffXnnxUFaVOhJPwzIDj74YHv1q1+dpydPnmSHHHKI3XzzzXb44YfbzJkz7f7777eurq7cTp/CExP9+3M5wjK500475eXo4YcfXrtsaaxf7ghjtPh8P40vIrNnz7YnP/nJeZnn+qRxvp8qMHe5pJzBNKJavWbAZh94kB34kufZyu2nWvuM6fbQrbfYaac93faYOtVuv/Ivdu8frrDTJs6x3QbH5lOcj/SssKVDA9bbmTwwFMt3Cgz3v3aU1tz8FJ5Y1B5Bw0KpYJpFiTSgGmO0RHqkUQdaJz4GUIv0OrSddazgOFKAb2RLlizJ3wSx44KOgpV9Q74kmh8WJdKAaozREumRRh1onfgYQC3Sm6UVT68B1RijJdIjjTrQOvExgNNVOpYFgKNhXDYw6MJ1ZR4sMzgChR3JBz7wAdt9993zAAw52MFgeeP1aNjBzZgxw1772tfYhAkT1vrhqATasCzCDwV5L3rRi+xv//Zvbdq0abbLLrvYy1/+cvvGN75u/+///b+ch/lDHuLhhVeAV+icf9TR3wc/+MG0AzotDw5PPvkp9rznpZ1TmtezzjrLXvrSl671Aqhz2n9OIPrsWJRIA6oxRkukRxp1oHXiYwC1SG+WVjy9BlRjjJZIjzTqQOvExwBqkc5X/N25LPCLALabc+fOtU9+8pM2bty4vIxCx/KLZRfLG+Ayg1esN1gG6cVXgDZufxXEQFu6dKmdeOKJ9u///u82adKktcsj1xeuVyiAr4q2p4qlDFs5MGRrOsbarVfOt+///De2YqjTph98iO2W1rdVXY0j37O6Jti+k7a3WUMTbfzqblt+f1qnezpt7JqJNqZvvHXi59G1P+yBMa1aYr3+BdUYoyXSI4060DrxMYBapDfLlvb0GlCNMVoiPdKoA60THwOoRTqoHaDpSgEwzaJEGlCNMVoiPdKoA60THwOoRXod2o6NADYuWKlxpODZz362/fVf/3U+MrHzzjtZT09P3lFF/VQRzU+UH2lANcZoifRIow60TnwMoBbpzdKKp9eAaozREumRRh1onfgYwGm8YieD5QNgR4RpLgvt7R15J4LlAzskDLhQZz5OO6JggLZo0aK8Q4EHdhwY/ONo1JQpU3Ie+sDyN378OHvZy16eV1xMY6eGU5gYNI0ZMyb3jT5xIfb48ePtvPPOs9e//vV5oPasZz3LPvvZz9orXvEK22effdJObCgPvHjKCaAfeEDv6OjMfWBnN3v2LJs4caK95S1vsXPPPTcN9L5hb3/723M/eM+YD5yW5Sks1HFUEO+Xn48SfaYsSqQB1RijJdIjjTrQOvExgFqkN0srnl4DqjFGS6RHGnWgdeJjALVI11eA+uLFi/MyDrAdhTZ27Jj8imWNy2FfX+MLSWM5GsjLDpYhLtdYjrDcc/DFZQw50NAGT7QhHh5Yv5CH5RRAB1iWsWzr+shXBXdeZh3/p7IqrVtTd93d5pz6DLOd9rElP/6dzf/DldY9YYbtfMDBdv+iR3L8I9ffZrM7J9uq/i5bsLTfHh2aZDvMPNwO3fVEmzEw27r6uqwtvW88Hy0NR3MO+sr9DfcNoEfzpRpjtER6pFEHWic+BlCL9GbZ0p5eA6oxRkukRxp1oHXiYwC1SAflFGcAVnjsbLCTfO1rX5t3TjhlhFM6OH102GGH2YtedJYdc8wxdtddd9k999yz9tRTYdsHO4YXv/isNEjfxW688cY8MDrjjDPsyCOPsMsvv9ze9KY32aGHHmqnn366vfvd77anPOUpdv3119tDDz2UB11HHnlkXqbOPPNM22GHHWzffffNgx8sS695zWvs/e9/fx5MYfmCH3ZCGGzttdde+YjbTTfdmHd8//qvb8uxOEKGmHnz5uWd09FHH52PHPzud7/LOzMc9b3//vvsJS95Sdb23ntve8c73pFPAWEeoGHZxRG29773vfmLyB133JFPY2I5x/w/9alPzT7wRf2KK66wZzzjGXnnisFgWmvyfHzkIx/Jp0N33HFHu/LKK/PADYPPwhMH7FwwCMKy9Q//8A92wgkn5OV2zpw59tOf/tQeeOCBvEx94hOfsL/7u7/LyyuWXawfyMWXig9/+MPpC8nL8jJ/9dXz0va4MVB74QtfaB/96Eftda97XVqu2uxPf7osDcLaU3999pznPMf+6Z/+KR8922233Wz69Ompv5/YwoUL7eSTT055H7M3v/nNeTs+f/58e+SRR9aemvdwU45nnQ2kfeXqgUE74tSn29xnvdA69z7Q+nbY2RYvXWHtXd02Pr3XK3/8Y1s6/xa75Mfn2IzOqWkAtp1Nm3Ogzd77SJuzx4E2Z8fdbOHihfbAintssKsfq8vwgAxHT9b1N/xSKGTaOXorZd0IFt++9txzT/vyl7+Ud0LYSWJHi0Eadpw4ivae97wnr9z/9V//la/zwc5LfdS3lG2nYCAEnvWsZ+cBDnZEGLBh0PLKV74qt2NnhB0FBmmf+cynczt2Rvg2f9RRR+VlBqcfcVQBA7LJkyfn5QcDOuxAcJQKOzYMrrCTwt2Y+OaPgQ4GSDjC9fa3v8NOPfVU+9znPmc/TjsH9Pf85z8/Dxax49luu+3yoAvTOPr7xje+KQ8Ob7/99ny6FPOO64J++9vf5h3fe97z7nxk+DOf+Yz95S9/yTvIXXfdNS37l+UbBDCIw3qAHR3i8D7xecAf+Wed9aI8MMUO+Itf/GJ+L//4j/+Yj/IBfn5aL2XbKwBHq/7mb/4mL0P4oovlG8sx1hVsWw855OB8+hFfWj784Q/l6xo/9rGP5eUTyxYGaN/73vfysojB3dlnfyDnveAFz7f3ve+9eZn9yle+kgZ3f58Ggc+2xYuX2N///d/nLwdYp3BUDoNDzM+SJUvzNZP/+Z//aXfeeaf927/9W54fDPJwFA5fIPx7WK+k94NlfeyYcWn9S192lq+wsdNm2B6HH2sHHXyMLbrqRrvoP79kN55/oX32S1+w23uX2U1tA9a1/5E2bvcjbcrU/Wxs+wxb3Zu0cd02iIFZWi/h3XjkRlqPsC4Noh70X8oTupSvtg7sTHfeeed8vcRll11uL3rRC/PG5E9/+tPwIfuetNNZaZdeemk+UvD1r389X0OEQRoOmwN8sIVtk6G0QcVACwMT/L0xCMLfG8sGlh2ANuyMzj77bPvWt76dB/cYYB1xxBH5iOxll12WB/o4YoVTjxjod3V1Zp+Pf/zjeYCGo2nY0T3pSU/KO6D//u//zoM4eCEeRwuwk/r+97+fPTB4ggawM9t///3y4O3LX/6y/epXv0o7txfYpz/9n3b33XfnHSIGcW9729vsu9/9bh5IPuUpT107OMQpTHhgwHf99Tfknd7PfvZ/tmDBguzP980BIAaNf/VXr8xHAdHfN7/5zbxeYJC2/fYzcwzgZ1XYNsHfF+vAHnvsnr/E4ksJlikMuM4555y83OLv/5rXvNYefPDBPGj6v//7WV5PcFQXR5YxQPvNb36Tt79YjtCGAReupXzta//avpzWAwzEPv/5z9uPfvSjNBB7Tj4yh6PD2E6jvze84Q35iwLWOQyuXvziF+ejc//xH/9hP/jBD3I+ronDlyUcmcN8xzROPXamL0T4+aYLf3Gu/foL37Cbf3qB9c6736bd02873ddnbQuWWEdPn40dN84WdQzarZ299qehHruiq99++8i99oPrrrCvX/xrm/fAbTYwpsMGsA604SRnA7w26mXdKKxPGaANg5UUKzOOUuBIAI40fOpTn0rf6gbyNy5828IGBtcXoWCjMXHiBPvSl75kv/71r+2f//mf81ELfAssbNvg1ApOq+B0InY4GLDxCCqWH5zuvu666/KRqO22m5qvM8OAC4MtHF0799zf5DgsQzh9gwHQuHHj7YILLshHt7A8/eQnP8kDOhydwpE0eMIf15fhiBiWVQz2LrroIvvDH/6QB1k4IkGw48ERgxtuuCHt6L5hL3vZS9Ng7HvDp+Lb1w4o4X3CCcfnU5o47YPTQnhfyMONC2gHEyZMzK8YePJ9coCGo4G41u7444+3888/3y655JJ8ZPDGG2/I6w9gfGHbBcsFtn9z5uyU/95YDrCMY/344x//mJcrXFeGdQAFR37xZeVzn/t8XlaRv8cee+RlD/lYFy6++KJ8NBlnNDDg+uUvfrnWE1+a4Ycvx+wD22ksZ1j3sKziywMuI5g6dWo+KodT8/jigstS8CUFyzf6XcfwcIlSWtfR3JnK1OWDtvvtK23vyxfa/hc+aLv+4V7b/qqFts/KsTZraKzharcV1m8PTG632/efaNccPNYu2X/Qzt3+Ebtu8mJbMGa5regazJ6DOHKW4tPXnPwvKGtHwVMGaAms0FhJsTPEtQs4tYNvaECvLcMr642dVEfeMHz3u9+xWbNm5VNO8Chsu2Bwg+tdVq5sXMiMHRJ2BADLAgqXk8bFyivyjmX77bfPjxjAgGbmzO1zG/I4gMFg6fWvf12+/gtHDnAEAq8YkAFcc4adCbx44TWOoOFaMhxVw9EInIYEiMERgw996EP5VM4XvvBfacD4l6xjx4dlF/OHLxyNeYXWuOMU84F27EDxiALAHND4EtNYXzh44xE1HEHDUTnMD45mfP/7P8hHARGHPPZb2HbB35dHkjGQwrKKZR06pvGK5QyDdxypfde73pWX06997Wv5S829996bH8eBZQVfbI4++pi8DHMZ4nqDVxxVw/YW17RhvcM1w5jmcoblG31hHcW1ojhijWUTZzz++7+/nI8I44tFNWlZzct9WtbTv0fs8yR71XHPsFfPPclOnbKTHd020U4eM932Xd1uE1f229JlK2xg2lTr22Wm9R0421Y8aTubceqT7Ji/fqad8Pcvs1lHHGAr+3qSZRqkpfnLNwmsNywr60ZhfWoHaH5jimkWJdKAaozREumRRh1onfgYQC3SPdz5YEXGtTlY4XFRNb6dAbZ7oGMFf+ihhfnoAy7qxoaiKh60Mp9eA6oxRkukRxp1oHXiYwC1SG+WVjy9BlRjjJZIjzTqQOvExwBMY7CCnc5tt92Wl5UpUybn0yU4vYjlBzsRnB488MAD7bnPfW4exOECfyxL+Ib/5z//OV/LiJtNsOwgD0decZR2v/32z9/8v/Od7+S+cFoSRwCQC0944QsEjpRhGcURORw9u+WWW/I1Pk9/+tPzfGLHhJ3kpEkT89Et+GNwhuUSBcsoYrCjw/vBkbs99tgzzcuZuV947b///vlaH8Rh58jPAq/d3WNyHr68YJ4w8Lz66qvtsMMaR/Fw5ARHNf7qr/4q56BP5LF/BTqLEmlANcZoifRIow60TnwMoBbpzdKKp9eAaozREumRRh1onfgYQC3S+Yq7NDEYwjL5pje9MR+RxRdePJoFywsGVhjI77PPvvkoLo4W48sLzkDgy8gPf/jDtByfke88xvqBZRHL77XXXpuvZ8PpUpy5wOlJ3CiA9eniiy/OZzxw4w2OuuGU51OecnKeJyzjaD/ooIPykWr0jZg3vOHv8lE1tK//fhoDMr7PPJWW2f6BfpuU1qGpU7azNvz25vL7bend6UvPXbfaQWl9OmS33e35L36Z7X7c8Xbq37zGHhhaYVfddIUtWbTApqTdyE5zdrR2fKFJ2wf4DybvQQzIcj84upy+BMkAjf17VGOMlkiPNOpA68THAGqR3ixb2tNrQDXGaIn0SKMOtE58DKAW6aB2gOY3ptzAVuke1RijJdIjjTrQOvExgFqkR+ADwU4H18zgcPvq1Y1bu9kGvB9zsJLjFBE2RtiZ5m9IFUTz431BpAHVGKMl0iONOtA68TGAWqQ3SyueXgOqMUZLpEcadaB14mMAp7HjwOkZ/P1/9rOf59PcAIMiLA/YCeGoEi6Sx1EtDNRwRAl3kyEWO5Nvf/vb9otf/CIfMQMYBOEUDO4w+9GPfmj/8z//kwdrGFjhWz+OLOC6x7e+9a15UISLnXHBPk7zwAc7u29961vZC/OBUzg8OqfvA/3g1A6WcRzdghcGV7hm7F3vene+Xg3X8eBGBvSPARquF+JRkZU9K/M03jvycQMBwOUAGLjhFCcKBqjwwIAVsXgFXJcIP+fos/YaUI0xWiI90qgDrRMfA6hFerO04uk1oBpjtER6pFEHWic+BlCLdIIbWDCQwsX/uMv55z//eb7OERfqd3Z25C8cuA4M10xCx/KLU5hf/epXcx6Wna9//Rv5pgF8+cBpdqw7OCKM5/HhS/A55/wix1911VX5KDOWaRwVw7XD6A/Xph188CF5vtAfvvDAl/3ihpqvfvV/8jrV2F5Xv38sr1hkB4cG7Pa7b7Grb/uzXXTlb2zepefY8gXX2vShlbad9drrXv1K++gH327HnHSSTZo9w/Y56kDrW3yP3fCtL9sff/kjm3fBefbArTdZ5/AR9mSeVobG4zwaZbjjYdi/RzXGaIn0SKMOtE58DKAW6c2ypT29BlRjjJZIjzTqQOvExwBqkQ7a0qDisU7DYEHSRN24RrrvRPM1l6DN65EG1CfqB6iuHl73+QA6djjYqeL6ok9+8lP5kDzbIg/2gefv/N3fvSHfLo675TBAw+nPiMiLRLqfV83XXKLzRSINqE/UD1BdPbzu86vwsXWewPtqvuYStHk90oD6RP0A1dUDywqul2lcv3VnGnTdlq+9wQ4AOxKc8sa1LjjKdc011+SjCthZ4OgbBni46xPTOPKKwQyujcFROezIcGQOj7jAN39MYyeCnRHiceQAdQyS8Ewz7LAw4MLROXxRwIBr3LixefnDDg8DRsDPAAMlHMmAJ9qhcUCJfvFYAxwFw+AMMRigYX7xfhE3YcL47L1s2VKbMWNm7hNH93Bqadq07eyUU07Ncbg2DvOIASYHaShVnzOIPusonprmEr5PJdKA+kT9ANXVw+s+vwofW+cJvK/may5Bm9cjDahP1A9QXT28rl4oWLZ23HEHO+mkk/OyhdOJOGr829+emwb1i/NRXFwSgqNZWPZx3RmWbxyFxvJz7LHH5psNLrzwovxlAttiLIO48xjrAL4Y/OlPl6bYwbyc4ujYTjvNyQ9SRhyu+cTja/AFic8ZxDqH6zfxSA8s4zzl6t87gA7Qlo9wpXrnYKd1rh5js3o67OTOmXbwlJnW3r/GHhrXb8//7w+ZHbSDffniy+yyntTf0YfZAwsfsus/+imzq/9i1t5lXTZkE9r6rQN3jmb39AV/uB+gX+y1f0XnlzFKY37X1yMNqE/UD1BdPbzu86vwsSPtCbyv5msuQZvXIw2oT9QPUF09vJ77qBugPVHAh4GNAnaevCAV1yvgmxl3cBH8ELEBwG3e+Emdf/3Xf80bDP3gC9sW/NtieUHBcoK/OXcuuBMTp1nwRH/siNCGQQ7zcF0MdiJYdjBYwgAGD6LF0QfszDDYwcAIp3zgjzzsTDAYQjt2ZFguGYs+MHDq7Gw806nxSwAN72hjgHlEQTtBHOYJ8wYd84s+MG/oF/ODadQBYtA3joqwX0zDA/0gH++b/UPTeSlsm3AZA1gesIxiucE6gmUOyzHqWEZxIwu0xpeKdesHNCxHWJ+goxB48kg11g8s+wQ61xcsr/DBFwTEVPXX7DKZ5w2hA2Z7t0+yZ43f1Wb3d9jDK5bZvV299o/f/qx17b+zffyb37EvX3S+Pe19b7PuCeNs6Nqb7Ocf/oS1P7LEpmCgN9ifhmVlPSg0R7kGLYGVFCs8VuSbbropX3+Dw+XYGVX5EjyjChsdHH3AtzIeLaiiyq9K96jGGC2RHmnUgdaJjwHUIr1ZWvH0GlCNMVoiPdKoA60THwNUwzKDjTyuj8GACQMWLAdYjnB6Ed/6sQNBOy/0584AOyhc0Mw25GFwhnbm0AvT6AfLFfOgMxbX0TQGbB05BgV1xKKOOC0AyzkHb6qjT/jBF++TOmI5jR0fc/Gq/aIN+ZhHxvAzoxc/P8L2Kt2jGmO0RHqkUQdaJz4GUIv0ZmnF02tANcZoifRIow60TnwMoBbpBH9nFgzQsSxjecAyheUUyx6XUVx3iWskdXlDwfLNNgymvCf8+CUFGkEslj8uw4xBf1i/uM5xwMdc/36Af5+IzdOprGobtAfae+32rjV2wZqH7IauVbaiu+E1q6vDBi66yO78v5/bLstX2qoFC6xjaMDGpHEkfjAqOeU4wn60LxBpQDXGaIn0SKMOtE58DKAW6c2ypT29BlRjjJZIjzTqQOvExwBqkQ5qB2hPJPCBYKeCayLwrChcoI0BGr5xEf0QUcdKi7v0Gj/9tHO+Rki/0RW2bXTnADCNHQOuj8E1NPyWviEYw1f6rt0pOKr0DYE8egPtr6ooiEehzum6EvkUnhjwb78p//7eE8tYBJc/D/WqvHoaeUv6VtvVi+6xy5feZ7cOLbeHxw5Zx9TGTTiTu3BUus1u+r9z7Icf+Ij97sv/YwNLFlv6+pVUtBQKzVN+6mkYrHj4toVrJ3A9A05Z4roJXIuDQReODgBuGHD4HRdm47ozXMSKi8Z/+ctfrv12Vnhi4Df0nMZyguWJ9aodAnQULlcA05qr0Ef9tF6Fj2kmR0E8i9KqT6GwNYLr0HDwK62ZhueYrWwfsEeHem1Vp1lv24DdlvYVV1x5pV2cvqQvXvyodfX227J77rNxKX5MKp2DOQ1DvOS2/jpdKFRRO0CLNsZVG2mvAdUYoyXSI4060DrxMYBapNeBgRgu0Ma1OHhODw6P43QVBmM4oga9ce1NZ34aPO4ewpOv8ZM+2KliMFfXRzQ/LEqkAdUYoyXSI4060DrxMYBapDdLK55eA6oxRkukRxp1oHXiYwC1Kl3rWEaAP6KqcYDX03BAxnzFa5zm4I3T1HDdD5ZVFM4Hlle0A8a2wsbkRHgP+lbpHtUYo+WxOi7wHj56MdyOT+2xztDSoDo/7iDFp71pDpd9KdqQSB/ip+uIclmUSAOqMUZLpEcadaB14mMAtUhvllY8vQZUY4yWSI806kDrJI4Zsg68pmVjTfuQ9abS3tVhvf19dv0N1+ebdxYtetjGd4+xsUNtNj4tL12pdDRSGrg7/NmP9gUiDajGGC2RHmnUgdaJjwHUIr1ZtrSn14BqjNES6ZFGHWid+BhALdLza7mLs4HqODqGgRie3YNn62Anh1OfePYUdNzphudR4XoIPLcHj0fADhZHz5Bbh++/bj6Bn1fN11yCNq9HGlCfqB+gunp43edX4WPrPIH31XzNJWjzeqQB9Yn6Aaqrh9e1DywDuMNz6dIl9sgjj64dpEX5eNgmHiHAx1gghnH0RMFF0/jygAIdyxte6YOYxrU2HflmFV5/g3nB4wTwXCqcfmW+9tEMnD8s49ovgFezPj6W8wEi3ftqvuYStOWY1ITfN+zIA7QGA9g5pj0lsqFhXe7v7Uvx6X2NHZuaGk94R34/nlKFAVlKSX+Bxn/D/WEAx3nAv/lOvLXTfG3ENv5dh84/0PcQ6aoBzddcgjavRxpQn6gfoLp6eN3nV+Fj6zyB99V8zSVo83qkAfWJ+gHrYvJEXp7wJx5Kr7iDtAOjryRguWnQyGuojQoeo4EBf2b98dl686Xz4PsnOq+aS9Dm9UgD6hP1A1RXD6/7/Cp87Eh7Au+r+ZpL0Ob1SAPqE/UDVFcPr2O65SNoEc3oreRWxYJm41vpD1DHK49o4PTmH/5wftrJDeRHGuD34vCEddzi/bOf/Sz/BuKVV16Zd1o4QoEPtMqf+PYNzY9H9VZyq2JBs/Gt9FeFj23VU/VWcqtiQbPxVRpXLNZxBOujH/1Ifg4UnuWEgbz/eNUAAGAoSURBVDzaMIBCQR0DJ1zziF8AwF3AeNyG3vWIax+xDDIWj+vAMoZHWvAoLby4zKHg9DxOueNXMPBIAyyvf/VXr8i/qYmfu0EfGGghH3maC/jKeeA0jsThCwkeHYJHejCfuYxvBnoSP02a0etiME/5aBjmLb2mT936k75soN8GOhqDtunbbZff19SpU2xVzyprS+t5d/+QdaXRXcM7vRpicXQTWvps0IEDsY3/1sEp1YCf57r3EKF6K7lVsaDZ+Fb6q8LHtuqpeiu5VbGgufi0vKMkvdGU/kn/58F6bieNPGjrPLAMrlsmlar5akZvJbcqFjQb30p/VfjY0eCpeiu5VbGg2fgN9bf+0vIExu9ksHPEXW333Xe/feYzn8lPrcaT0fH63ve+N5/WxDdwxADks9T94QrbFvx7Y7CEgRauX8QR11WrVucHF3Mwg8ETBkcoGMBBA2jHXWcAgzLGwQN1gN/5xA9AH374YbmO/nBEDT5YBhGHV8wD7lLDgOpf/uWt9spXvtJe+MIX5YfI4gej8VBcPIaAOegDAz7EY3lH/5hm/6hDw3vCrxTgqe441b81LOP5VNTw7nMgVXvTx700DcAG0t9kTRoYL0uf3ZnPeY599zvfSYPkT9v0adPMVvfZDm1jbWZfh43vb7euwQ5rH0wDtDRgw1+r8Rdz24k0nYdvGNQNYTDH/8rGddsi/UXbOvLRsIG0CPBIa27JryzrlhCsJ43VPOmDaZ1Jy0ih0Aq12xDuREhjgWsUJdKAaozREumRRh1onfgYQC3SNwSPXACcEsLpIhwlQx1HOTAog4aYyK+uj2h+WJRIA6oxRkukRxp1oHXiYwC1SG+WVjy9BlRjjJZIjzTqQOvExwBqqmMZ4OAId/PiB8zxQEwcHcPAB7EYDOGhnN/4xjfy0/7xSBZoXMYw2EI+4vHTT/iVgf/+7/+2I488Mg+OcFQMD/Q87LDDUzksDwRxdOwTn/hEvjnl1a9+9dplkYMrDBBxxA2/WvC///u/duGFF2YP9IEjcshB7gc/+IG8bCMP+plnnpnnE6fuX/Oa12R9zz33yKf1d9xxx/yQUAzaML8bg352gJ9nle5RjTFaAD7VXNJ0/lH7wQHrTVu6/Y472l76rv9nuz7jdCRb37jG408mjptgE/o7bIfBsXbYpB3toAnb27S2butMO9V1G8jk38anvqd6Q0n/4ihm44ev0y44lzo4j8TPO4k0oBpjtER6pFEHWic+BlCL9GZpxdNrQDXGaIn0SKMOtE58DMha/huneir8wfN1y0OjPBYukQ0Phf1U6R7VGKMl0iONOtA68TGAWqQ3y5b29BpQjTFaIj3SqAOtEx8DqEU6qB2gcQdCMM2iRBpQjTFaIj3SqAOtEx8DqEV6FWjDB4OdD+t45YCNhdM6kAMaU4Vvq8qJNKAaY7REeqRRB1onPgZQi/RmacXTa0A1xmiJ9EijDrROfAygpjoGNVhOzj777Hw375OffGS+cQSDKwy8cMTqrLPOsve///35NysxMPuP//iP/DNNPJK2alVP9sFDkhGHa8YAjtziVCUKTq1jcIZfFsDgDAM4nHLEc/ve+MY35p9nggeOsGEABV8eYTv00ENz7pIljaNf73nPe/KPseMXDo477vg874jFETL8lBR+0QBPdv+Xf/mXfIp0hx12zPOA31TEkTR4bOwArZnPFEQaUI0xWtaCdTjNZ/sANn5pXsd22pHPPt3GHHag7fa8Z5kdfqgt6O/LoR29/bZ9b4cdMmaGHdQ/2Q7q2M627xiX/rhoT59lG37sO200cRQEp6jSej+IwVrbYCopJNUxeMslTeKTwa67sften/XmMRHOeyLSgGqM0RLpkUYdaJ34GEAt0pulFU+vAdUYoyXSI4060DrxMYBapDdLK55eA6oxRkukRxp1oHXiYwC1SG+WLe3pNaAaY7REeqRRB1onPgZQi3RQO0B7IqAfDnY8Oq26vmLnhDoLiTR6FLZNMLDBUa9TTjklP5rlr//6b+xd73pXGiT158EYfgga+te+9jX7u7/7u/xD6fgx8Ze97KV52cCytGZNb75GDAOkj3/8Y3nAhTuE8RuZqON3OTGYwpEwPGPtLW95c76z+OUvf3n+XUH87iFuaMEACoM7eGIABo9Pf/rT9r3vfTc/PPe73/1ens8zzjgj++LXMvB6xBFH5ILBHwaVn/zkJ/NA7SMf+Ugai3Tkn5z6yU9+kl4vyoM5nJbF0bnRDNZAHP/qbe+05QPttmbZSvvmz35pdz682MbM2tH2f/FZNjBre+tJ6+rYoQ7btXOK7dU13ab2pYHZsnYbWNJuY/smWld/t+E/3AiQj52stzpjIq3v6SX9i9Z1oKms+oVC4XFQO0DTgQaIBiAg0oBqjNES6ZFGHWid+BhALdIjoGOnitNDOK2DIx8o2AGj8JofvKLg+hzsgKEhjqeWcAoJPgA74A31j2kWJdKAaozREumRRh1onfgYQC3Sm6UVT68B1RijJdIjjTrQOvExgJrqOFqFgQ2OOGEggwvOcccvBldYFvBjzziF+KxnPSv/LuC5556bTxMuW7Y8nzIHiMOvV8DrJS95aY779a9/bQcffHBuAzxihaO248aNz3d/nnPOOXbeeefZ6173+rwM4rQq4uCDdvSDU/Lf+ta380AMF/g/85nPzPOJ3yPEKU/cCHPdddflu04xMMMpVfz4OvpH3/wBdgzI8PNRQL90+M9oQzTzmYJIA6oxRgt1HOVa09Zuy7sm2MwDjzTb7SCza++yC376e+voMdvxgANsaOZ0W5niVy5aYjPXtNv0gfG2eFWb3Z3Ecba77TvjGNt53F7WtSoN0PrTe05by8EhHDEdsPbURUcambWlwd3QIAZv+A9jsuHaUApGcXAeiZ93EmlANcZoifRIow60TnwMoBbpzdKKp9eAaozREumRRh1onfgYQC3Sm6UVT68B1RijJdIjjTrQOvExgFqkN8uW9vQaUI0xWiI90qgDrRMfA6hFOqgdoPmjP5hmUSINqMYYLZEeadSB1omPAdSieII27NAw2MLgCjs+HIXYb799811zBx10kM2dOzfvgHHKCj9MjYIf8sV1QbiWCEcesCNFPE494cd88duEvNi6rn9QNZ+RBlRjjJZIjzTqQOvExwBqkd4srXh6DajGGC2RHmnUgdaJjwHUIp0DKJwCw6lGDG7wWAuuaBiw4QfN8WPquPYLpygx2MIgDbm8meCyyy6zCy64IMd969vfsk9/+j/X+k+fMT17gTvuuCMPzvDrFYj/8Ic/nH8BAz+RA3B92pve9KZ82vSjH/1ovrgffeHncHCUDfOI3ydEv43rKzvzozhwDR1Ol+IoH/I/9KEPZb81vY1n/3FQubFEnx2LEmlANcZoUVb3D9q4aTPtpOe8wE56xV/b9LNeZbZ00G6Yd7N1DXbZLTfcbN/4yU/sK1/5qi1enr5k2Rhb1T3Tdt7lWDv+sDPtpINPt/12mmudA2OsA8+CH74wHEfTsOFEbyi4M68t/ZlxSjWX4f8i/DxWzXukAdUYoyXSI4060DrxMYBapDdLK55eA6oxRkukRxp1oHXiYwC1SG+WVjy9BlRjjJZIjzTqQOvExwBqkd4sW9rTa0A1xmiJ9EijDrROfAygFun59Yn2Y+n6QWAAhZ0iTlGdeeaz085tii1atCjvDLHz5DVmKNiRYRpgR4VpgHwcsUDB9T489YMd8o9+9KO8M+SdnoQ77cLWDwbiz33uc+3d735XPpKFgRUuqP/KV76ST0vilOBPf/pT++53v2tf/OIXcw4GPTj6+l//9QX7/vd/kI9cIRZHxD7/+c/Z17/+jbzM4REcuMgf16J97nOfy18icOrxC1/4gs2cOTNf24ZlCT/KjjpOoeJIGO7axOAK16dhkEhwdAwx+Bkz3JF811135bs78QP/L33pS+1pTzvNDjjgwHy0DesAPHCa9MQTT8x3L+PLyd/8zd/kAR3XCzDalmcMoDBPi3sHbcfDjrUjn/9ie2TydFvcMcZ6+oesZ9FD9sgNl9uaG6+xzrvusJ1XDtr+gzPt8NlH2j47nmDd7TNsoKvDlrQttZuXX2vn/eVX9kjHQlvTtcracdQs98Jr8DCdlLUfQeob/ed6Wc8LhcLG84R8UC3A4AwDp3e+8535KNlvf/tbO//88/MADYMt3596NAZv2EGtf5MAYjBww9E07PDw+5zve9/78hEOHNlAO/3IhuZTNaD5mkvYhxJpQH2ifoDq6uF1n1+Fj63zBN5X8zWXoM3rkQbUJ+oHqK4e1HE6G8/JwyDr6KOPsksuuTT//XFNGe6cxIDmpS99ib3jHe+wm2++JT8GA8sCLsDHqcUf/OAH+Xc7cTQM15QhDqcdMQDD4zcwWMIpU9x1ievNcIQLz+H7+te/nucBpy1xpPfLX/5yvvkA15hhAPj617/Obrvt9jyYIvgCgQEbrkvDTQd33bUgHwX+4pe+ZP/5qf/MAzF4wBPXuOGoMfrB8/5wZyoGih/60AfTgPP/1vvSEX1+VfjY6DMF0ecPNF9zCdvwXNDVbV3WO26Gdc7ey8busr9N33V/mz1rFxta8ahde973bekNl9m4th6bOtRpE/on2SF7nmy7zzreBnrG2JJHHrSHltxhD62+1R4dvNt6OhZbX4ptb8MXM2wP+EBqbAPSF7d8+jfNG+db/lVG4v17PdKA+kT9ANXVw+s+vwofW+cJvK/may5Bm9cjDahP1A9QXT287vOr8LF1nsD7ar7mErR5PdKA+kT9ANXVw+s+vwofO9KewPtqvuYStHk90oD6RP0A1dXD67mPJ9oRNIAdFa7XwY4MAzXsIPE0d5z+4ZGxDeE/fIIjDxjg4VQQLgjHEQhcNI6drO4sC9sGWJFwOhPLEx4Iiwca33rrrbkNywGOnOEVd22ecMIJ+SgYTnHidOKUKVPylwMcJcPRLVzbePrpp+c43I2JI7A4bYlB1eDgQFqW/squv/76/PBb3FWJ/rBM4XQkvmCgPnnyJNt1193yPOA0pm4AUMe1anhEzItf8uI0WJmdl0vkog/0j9P0uOEA07iuDjcH4PRnX19/PvLW19dr55zzi3xt2+glDaDa0sbN0jwOTbLB1RNtaudutvvsJ9m+ux9kS5bfb3+583e2aMUtNtjVY6vaBm1l+wTb+UnH264HnGEresxunHeJ9TyU/o4999ikjpU2pmO1dVifDQzx8xxIBdsAbC/WnfCE0tgyNP5tKIVCodA6T6gBGnZQGEDhwn78hBN2pjgqgR2sPnCWpzIjdGCWR7jDO0DdEQJ44jQW7pQ7/vjj84NG8fyqx3sNT2H0gb89/95YJjDIx98Zp7sxaMIADW2IAdB46hE6ppGDXMbBEzoKQBuWH2q8OQXLMwaHEydOzDnoC186EIPlWJdXwHnFYAy5mE/kcpmHJwryMP/8ySj2j3hdV0Ynab3EIbS+Tps1fhebO+cI23PMfrZ9+wybYGOt35bYZbf80m5ccq3d0b/QHpk6xgZm7WBzTnm27XbAU211X3q/a1bYwKK7bOXNV9ldV1xo43qWpEw8VqMx5EqfdKOrtQO0BhgW4l9+MmWAVigUNpban3raFsHOCT/vgscQ4CdxcB0OjmRgZ4WdF0pEtDPysZxGLHa4mMbpKpx2Qr/8OZ/CtgcGMRgU4SgsCgYyOkDCIIqDKx2kQ9flSON4PSPhEV54og3TiEMOgRf8/bKpwIO5WB41loPKqI3va6uht912mLCrHfekE2xGx3Qbt3rQ2pcttN4Hb7ExS+63tt7ltuuRT7Jl20+xnV5wpvVMn2YLFy5KiUM2ZrvtbPaOO1r3UL8tmH9NGuytsa70UaStRGpvFNwqkH9BIA/L0IK/Nb60pZccUSgUChvPE26AhqMLz3jGM9KgbLJ9+9vfWXvkoG6HBjbUrjAWOzucupqeNvxz5uxkV1xxxWN2uoVtA/7NdTnhsrWxtLLMFdYHx7A6hrqss7/LJnaNt6Vp4HX3DfNtzb0329TBlTa+fbXN2H2Wve6TH7D2PefYktnTbfsDDrAHHnzA7vvFOfbgg/fZ0Ooee/jmv9jy22+xsZ3waxw1w18lD8/Wnu5Mr43bONcNysrfrlAoPE4e3x5kKwRHD/Dw0NtvvyOfytnQ0YbHC3bSK1f25J/JwWktPiOtsO0zek8BbvtgjW7rGrSlQw/bJbf+zi664xd2/5r5NnX8cpvY2WOLepfaHkccbLbjRNtv//1sWRqQWd8K2+foA80O3Mnswp/b7d/+vD161QU2wVbZmIFe60iDPmww2/PgDH00jp017trEr3J22GBbeh3enpS/fqFQeDw8oQZoPPWIU0K41scf4dhUAzXumOGHPnDXHU8ZDQzw9vzCtoYfkLWyPEWxZYC3seCzbLeB9F9v2ypbPvio9XQvtvGzzcZOwQ0BK+z21Yvs0bHD24S+Abv6V+fasltutkldQ3b6mafZzMOfZNbzqHX3LLEJbYPWmX+4CX8P/IvX4ROa+eed2AIafcuxtEKhUNgonnBH0DhowkXWuO5M2dQ7RPo98MAD+Wgd+m5lp13YumlleSqDsU1NYz3D6oYftcZgbaX12rKxA3bn0FK7wRbb/WMbR7MnD6Vtwu332rxvfN+mLHrYpq1eadM6O2xs+jKHo2WNJ2hw0DW8/sJ4uNoYnin5uFoqwwGFzUrZpha2VTrGjRv3hLkGDTtBrMvHHntcftYTHlmgFz1jReeOUuutwI0Fc3FzAJ6Jdfjhh+fnoeEaOF7oXXj8+M9b2di/4aakah6o6/yzTqrm3cdtCPq0khfNS1V+K/MO6nwiEF/nVwWeT5ZPRabu0GNvWvf6+3vt3lXL7Pb+FXbwU0+wAw4+wDqG2u235/zCHrn5Zlu2YpnNv+BCe+DKq21iZ9o2DDauO2tv78y/GID54Lzkf9tw13dyb0zgTaAyPM9PjKPlVX/PiGZiW/lbw49FiTwQ43XNb8YDRD6FwuagdoDmF9iqBTnSgGqM0RLpkUYdaJ34GEDN6zhqdtJJJ9qqVT356e28A46xXPGiXGqRTlDXlRd1XPN21FFPtj/84Y9rB2ikztNrQDXGaIn0SKMOtE58DKAW6a3STE4Uoxrq+lljWgva8Bq1UQdaJ1VapDdLM7kaE/WHaX3PdTBXfVjnNFBNdQV6s/0C+tR5VsGcVvI0Z21Jer5mLA2g8HiMVWmw9fDganukfdBWdaX309FmK5b32CWXXmI33XiT9fb12+IF91jvAwttUhqQdWL5SW+5vaM9bzfWW9ZSwS8W5FqS8/0CqaBX9I2jdhFoU9bOa4XuUY0xWiI90qgDrRMfA6htSOfvGeN5k/jc8Nqff1qs8VvHmMbjYKhtigJffBlG8f7U8Ipp345pFp8DcGMXzrrw7x+9/2aJclmUSAOqMUZLpEcadaB14mMAtUhvli3t6TWgGmO0RHqkUQdaJz4GUIv0/Dpt2rTKrS6C1tsoiUmk+w245msuQZvXIw2oT9QPUF09VEcdT0/Hg0DxIE4doAGe9mzFE7pOA/XD0+PxAFAMCLnSkzpPEPlS01yCNq9HGlCfqB+gunp43ec3S+QZ9U00nmheK/OieVV9VXnVzQdhDHStPx7q5qmKjcnxPB6PKJefB0Bb3TShh48F1LQfKI2L+tMAK42i+CAM0NnekXfqq1attrY0UBs3fnz64tRpQ2l9HUw7787OjuFB1pB1dnXZQNppkzx/w3WQPdE/xMGhPDjBDh3bFj9fmF5vHoP3AqL3AzRfcwnavB5pQH2ifoDq6uF1FA6+9txzz3zWANs+DHR4rS+3ra2i/VaBL72cD8bz1b83gDbofMWADYVAQ7nnnnvyQ8zxt0ShF/N8fUP4WEyTSPe+vl8P2rweaUB9on6A6urhdZ9fhY8daU/gfTVfcwnavB5pQH2ifoDq6uH13EfdAG1bBG8cd1IOpg0pB2f5g0i6bkD4AbUCP2z66Ss2VHwGWqu+Wwv6/j1sA9oe6dD4ualGIv/HC/0jb+17Y9gc8wua+Uz4OSp175VE3tAiv1aJ8qP+iJ9fjY1AHCOQ0YhP8w1huAFHxlLgusEVctIrBmid+U7MRq4eCcvtjBueF2UwaePGjrVDDjnE7r///vxTWqtXr8mXUWxVz49rAXwWGBzhcUL4abtXvvKV+Vcu8EP8jaNQ/Wu3sxsDThPjp9Q2BAbU7WnQHdH4+69D/3Zs40+2AbTjPeGn1rBPuPLKK/NPnuGyGNzsxZhCYXPzhDuCtqF8bfexG/Ks8qmjzhN4D/XVXMK+lUgD6hP1A1RXD6/7fA9iGFflSTbUHoGcDc3HhtoJ+6Snr3vq2hTtm/Pi8xhT5+d9gGpVsD8+iw9HDKJ50Gn68rXZ+fJEnqDKr84r4jHvIZXsgOvDhsnT8E2xbfnKf2jD/Qy/dKBteHJYymDw5cl9Jn/MKwZ8/X19+Ugcfj91v/32s3vvvTf/eD528LhRCPF8rE/0eUafi/8cqnJJnhenRxpQn6gfoLp6aC5ugNprr73yT+fhrMRXvvIVe/jhhWn5avxSBQqWNb20o1mQh4EeyNf6VYAv3P49bAx8j1hH8IsZ+Ck2/A4uBmbve9977frrb3jML2lEn18VPjb6TAF176v5mkvQ5vVIA+oT9QNUVw+v+/wqfOxIewLvq/maS9Dm9UgD6hP1A1RXD6/nPp5oA7RW8H1VeWpcNC8kaqvzBN4n6ktBm9cjDahP1A9QXT28jmmc2sE3Tp7S8H0yzuuEefRGXNVGGRtksDEb/Y1FL/rOP5C9GWjmwnLtW+P5mQD93FSPYCx84cd4/B307+zB34d/y3yd1/BOsi4Hbf7vj+koxx/RVjTH53MwlfX0yrb877BNx/AwLGv4DBGT/sf7gJY/iySzVxxRA5inNp6ySwFZRkLKz14J9ItfK8GPzeNoGo6cX3vttXbxxRfnXy7BLzIA/1noe6CuGtD3qrnEe4JIA+oT9QNUVw964rQmrrH9+Mc/bueff7598YtfzAMyPPMR6zP/hlxOuYzpq0eXacAY3//mBqdr8f7w93rnO9+ZfxrwzW9+sy1evDj/Tes+vyp8bNV7ou59NV9zCdq8HmlAfaJ+gOrq4XWfX4WPHWlP4H01X3MJ2rweaUB9on6A6urh9dxHOYLWQHXWfWwznoypm27WE6gGNF9zCdq8HmlAfaJ+gOrqoTrqGCjhTlX8diM2agAbOMbxwlvWUdjGQQGvA1mnDyW9cdoB38YxzTaA+eE3bOicP76u2znE719RX8Xrvn/PhvpREEs/X6+Ccfi88S2fA1Ro0Y6NO0F64pVHcfj5oM52paOjPe1kceoIr4hZf2DIARlAPualEbuuAMbg1ffj+0YO35fG00MHbfSnB2Pz73AmMO9rtVSQCRfU176T3JzUYf8GzBl+5TygvnYw2/g8OvA+Ux3zOzA8b5hHLJN4xUBl9913z9e94nP/3//9qv3+9+evPYpJb8D3CNb2ud58NXRqmkv0MyORBtQn6georhpz8KXsbW97m82YMSP/7rBed6dEWkRVHD5LLlOoo28/z5sL/C3xd/zkJz+ZB9qf/vSn8zTnlZ9FM/hYfb+R7n01X3MJ2rweaUB9on6A6urhdZ9fhY8daU/gfTVfcwnavB5pQH2ifoDq6uH13EcZoFXjY5v11Gnm6HSznkA1EHkraPN6pAH1ifoBqquH6hhs4bD/a17zmvyLCQAbUcRjx8U07NC4gUVbY4PbOPJCuJMn7IfXmGDAhnge9dGjNjp/VWgM5oN+nCd9X8B7RjGAGudDYzCN94Sdsvp5bw+9CKbpCx0DKB18RSAeg1i+V4CL4ZGj86ggFnBwR/z0Y+dt3aBNvRHn55HteOXfAHXGuvAM+0Y/hN2wT/oiXfuFmuvDMbmeCuq8zgyP0QC5Pb0ipi8t2/j8UM/+jYCcmz9/RKY6l1lcywQffnHgcoUL5/fff3/72te+Zp/73OfyKbM8Dwm+ct5BpAHOB+uePO9OjzSgPlE/QHXGsQ3vb86cOfno2Sc+8Qm77LLLbPLkyWvfcxV1/QLNZd3HRXmgSm+WqvnGNXannXaaveIVr7B/+Zd/yQ86500DVe8jwsdqf5HufTVfcwnavB5pQH2ifoDq6uF1n1+Fjx1pT+B9NV9zCdq8HmlAfaJ+gOrq4fXcxxPtJoENEX2wG0P0x9hW4WeGHS0GUTw6gFfsuNCOogMUvPIIDWEMc7Ch5+fnB27qw1fG+DbAXNWA/n3Qn/ZBL84TYD7yUDCNnTEGqdT5qn2hrm0RHBgB9Mdp1n0/LNqPB23M1XgWoF4EgyAetayD7RycNeqPzVFN55fzpkCriifazgHbY7qFMDzw47Vo690cAJKePhEbHO6i0d7wg4R545ExzAf/JkQ/w/yayqqenjQAG5svmj/00MPsiCOOyKfJLrroIjv33HPzkWVdzvS9bC3gfePoGd7by172MvvoRz9iDz+8aO0RtKr35P+WG3rvG/LStrrYZvHzR1auXGkHH3yw/fM//7P927/9m919992P6+aHQqEZyhG0GnzsSHsC76v5mkvQ5vVIA+oT9QNUVw+vYxoDtOgoB+FREuL7xHQ0n4CxaOdOsm4evbffsXLwRbRv7cv7RMBbd7hAvRV6okTzpHjfyLOZ+fPAR704P4R9ttIfdB+v06xrXJQDeHSUYLnxR1rrgC9OO9I7L5NcHoeXT/aQLZM0MGxNPf2Vkk/KSfq605ppmcm1x4J0LP/dXd12zDHH2FOe8hSbPXt2GrQ8bPPmzcvXZy1cuDCfGsMXCf0c+Tmopp+RonHRZ0cvJdKA+kT9ANXVAzoGLSeffLKdfvrp9oEPfCAPZnEal+3RfCjeT/uM+gfQqXn/TYH35jSOFmLA/a//+q/2pS99ya677rq11xLqPG0IH6vvIdK9r+ZrLkGb1yMNqE/UD1BdPbzu86vwsSPtCbyv5msuQZvXIw2oT9QPUF09vJ77KAO0anzsSHsC76v5mkvQ5vVIA+oT9QNUVw+v+/w66IMBCOoYECCfAxZMR/2zrvPhaSYmAnk+x3vpvFSB2GbiAGJ9fKu5gDl1uYxtBvWJ8jbUXgdzfZ4OVtGG4t8Pc6rep8/JPsN16PQdFtI/adCXXlNLvj4Nwety0vKYBhwc6PHGA06jIHMIg0fUU/ua4VN+uOsPR1guueQSW3DXAutZ2ZMvKq96zA7nyc87iGKpMUZBm9cjDahP1A9QXT2gY4CG034YoJ199tlrjwz63MgfqB+I+vJ56uXzAdoi36pYoJ6E8dTx3vA8y7e+9a32wx/+0K6++uq1f88ovwofq/MV6dF8UdNcgjavRxpQn6gfoLp6eN3nV+FjR9oTeF/N11yCNq9HGlCfqB+gunp4HdNPqJ96KmxeogU2gnG6wKLOgmmWZqAPUB9CnyrNt3MarzyaRM2jnkqVviGQV1U2RJSDomC66r0AH/940f50frQftGOaO3eN0VI33+AxeXlqHcj2HhhkAcTm+DSZffBKfdgXAzEAj6FGCCbWzn9nR4f1rF5lF196SX68xqOLFyetMx9paVyLueH3sDXAzwODFjyAG48UwRFCfg6ArwTTvgB+HpwereALBK4bPO644/JPBOKxKbyUY7TPe2HrpbH3qcAveFyxqnSPaozREumRRh1onfgYEulRXBVR7kh6eg2oxhgtkR5p1IHWiY8B1CIdbGjnw1zEsagfNUBd2yMNqB/z/bSP5zTbIzg42xgiX5137Z8lQtvrcusK0DytA61H8REbaifq5+ss9FLNF8JYotN1cWjR9jydCmJw+hRnMTEAwyseVotMHZAB7KRZx5EzsF4fw20YuIwfP8HGjR+33qAT7RoP2Fale1RjjJZIjzTqQOvExwBqfB98v7iBB3Ba24BO41ULQLsHWpVOGKMl0iONOtA68TEEf08MzHjdJGL4PprBe7KfKt2jGmO0RHqkUQdaJz4GUIv0ZtnSnl4DqjFGS6RHGnWgdeJjALVIB7V7IL/g+RWLRBpQjTFaIj3SqAOtE9X0jfpcEOVXEeWOJk/NZYn0SKMOtE58DKAW6c1QlbshnW1aB9GCXYX3imAbd6qaw758YRtz6lA/FMAcekUxpEpvBs31HlonkUY4z4hBXQvw04B+eGWefs4A03Wfo+qsV8UCnJbUB8zmvtJr1oZLjklqQ8cAbDAPzPJND6kNOgpyteTBWxqkcd6zZ9IGBwatA4/3aIi5je+ZdYVtVbpHNcZoifRIow60TnwM8Fr+HPL1efwbNtpQRxvRaQxyG9eqNqb5qr4A014DqjFGS6RHGnWgdeJjAKabWc/riDyr+vIaUI0xWiI90qgDrRMfA6hFerNsaU+vAdUYoyXSI4060DrxMYBapIOt7giah+34RoMLOfFU68bt7Zv2x3g3ZcE3bBavYb75vvBH4vtj0T+kb0OJ9EijDrROfAygFunN0oqn15SqHMAFXmNYZ4k+W8J8hdNebxXth1RpG4pljJZIjzTqQOsEGt+rj+fnozGEGovH+yg+j7Hek+2A0xrr6zpII4wBOBqGGMZjcMY60T4A58HPC8Cz0apQD8B+qnSPaozREumRRh1onfgYEGlJbfwbeHiwjcZjOGbNmr3e54fSXF/r98MYLZEeadSB1omPIc1qVfhY9lOle1RjjJZIjzTqQOvExwBqkd4sW9rTa0A1xmiJ9EijDrROfAygFun5dWt8zMbamU+v+EaGi1VRnzlzZr6Qc/nyZfk38HiNgEc3qqONnp6e/IwdvB/e8YX3yPc8mud9pOBnQfiZQG/l8/E+wOd7z6gP+jTTd6vzONpp5jOM8J+Z+tTlR5+1/0z9PKEt0ghruFsTj9mo61+p89zWwXvHdurpT3+6PetZz7K3v/3t6YsmbhJY93Bg/zfBA6z32WdvmzZtul155Z8rY0cj+PKM3+bE+/zhD39of/rTn/KzHzH/T6S/e2Fk2WoHaCg8YoYn2OMBggcddFA+BH3PPffYkiVLch0DnK0JfHt/6KGF+aJbXGiM94m7hbaWDdnmJtogbsxnE/kQ+oEoZkPt2yqb633X/S0U9l/3d9vY+WLWundYqAOfNQdoz3zmM+0d73jH2gGah38XvuIsQWdn13p/q439u3nQx+YA+5oyQCuMNKN+gMYVTlcCDLzwkETwT//0T/kbHG57vvDCC+2OO+7IbYhHLmIV+mzpFcu/L77iN/wOO+ywfPs6nsz97//+7/m33/ATSojZkvNcKBQKANsvDNCe8Yxn2CmnnGLvfve7klZ/fRbaeDYA22XdnkEbzdu2cgStsCXYao6g6YqPlQXXM+AnRvDTQh/60IfywyABbmlHLFecaOVRr9EGvqnh/c2dO9fe97735fnnD/TywYhlg1AoFLYk2IbyCBoeVvuud72r8nc4Fd++qbdlUf/oo0oHaPPzwXjq2CZPmTIlHyn80Y9+lJ9xN3HixDC3UNhUbBU3CWAFwIX0PBqGI2R4ojOuOXvta19r8+fPz99ucP0ZnlWDgQxOC+IV076wfUsU9F1XcBHt9OnT7YYbbrDXve51+bqNd77znfl94zNQ/OeEEumRRh1onfgYQC3Sm6UVT68B1RijJdIjjTrQOvExgFqkN0srnl4DqjFGS6RHGnWgdeJjALVIb5ZWPL0GVGOMlkiPNOpA68THAGqR3iyteHoNqMYYLZEeadSB1omPAdRQOCjhDU5AByo+l0SDGXoqkQZUYwy1KB7U6ZqrhaiGea+a/2bxseqvRBpQjTFaIj3SqAOtEx8DqEV6s2xpT68B1RijJdIjjTrQOvExgFqkg9oBml8YuYBW6R7VGKMl0iMNAzNc8I/D47jm7Oijj84/pfLe97433yCAQY1/g3Wwn9EMvq3hhgF8M8UPLeNUAk/rEv858X01o1EHWic+BlCL9GZpxdNrQDXGaIn0SKMOtE58DKAW6c3SiqfXgGqM0RLpkUYdaJ34GEAt0pulFU+vAdUYoyXSI4060DrxMYBapDdLK55eA6oxRkukRxp1oHXiY0BVHra92EbrNtjn1uF9QaQB1RhDLYrfVMCbN51hUPp43quCaRYl0oBqjNES6ZFGHWid+BhALdKbZUt7eg2oxhgtkR5p1IHWiY8B1CId1A7QRgv6JjBIwzVn55xzjt1000352izCmDo21L654Tw2U3AX54IFC+z/fvZ/duaZz37Mb/gVCoXCSMPtE8AXSZy9wG9wNrttYtzm2JZx3jZHGTOmOw3SOvJBAg7QoBcKm4utYoAGuELgtCZ+tPaCCy7IAxjAFYhwOipbG3iPl192uU2fPsN22WWXfI1aoVAobEmwPcagDHfM4+gZBmo81dkMo3VbXLWvaNzFuV16rx35B/C3tqcDFLZOtpoBGlYYrCTYEOBU39KlS9auJNhYsGxrdHV15o3gsmXL8sC0lY1goVAobC6w/b355ptz/cQTT8hHlnCGA4zWAdiGiPYlAwONU5pnnHGG3XLLLfbQQw/lwWmhsLnZagZogCsOBikDA4Pp28y2NyDz4BsbBqTY+OEmg611w1coFLYtMEDD8ybPO+88e81rXmtHHHFE+uK8NA9oeENXFToAUqKjV1sSHBRYvnyFnXXWWfn9/eIXv8jvbUPvr1DYFHSMGzfu/cP1UQ++nU2bNs2OOeZou+CCC62nZ9U2f10WNmQYoB111FH50Dquu8Pt7IVCobAlwbYJA5Vbb73F5syZY3//93+fBzQ33XRzvsEJF9NjGl+otUCLio+rK48nd0OFnriDHjeg/fM//7O97GUvs0996lN21VVXrb20plDY3GxVvySAlQZ3NP7jP/6jfeADZ9ujjy5+zKHmbXGwhjtV8ay3K6+80n7yk5/k5+8UCoXCaABfIPFFGY8FesELXmALFy7Mv4KCU4EAAzlsl/mKgjsi8UWTR6Ja2W6rD56HiYIv7/RA++MBXpivWbNm2aGHHpq1L3/5y3bRRRflwdnj9S8UmmWrHKD9wz/8g334wx96wgzQ8EBIDNDw7a0M0AqFwmgDR8tQdt99tzSoOSy97p4Gbe1psPPYQROr+OUBgp+400131RjI/1pBY6DG697Wz9uQH9vRprEAA04cQbvmmmvyL7osX768bHcLI85WOUB705veaB/84AdHyQDNr/mbrn9+U8QA7QMf+EDeWPz4xz8uG4pCoTBq4HYKBYMaDNSo66uH2+qovdnteJVHs/kbwh/pKxRGkrbtttuucknmikd0JYh0v1Jovl+BANq8HmkAOq4P2GOPPewtb3lLHqDhULq/Hov9qQ81oPO0IXL+2tjGDQqDw9/W1oE+OL+Ibc4b6Pv086ttOMV59tlnrx2g4TfggMYQnwsiDfBzQBvrhPGqq4fXfX4VPrbOE3hfzddcgjavRxpQn6gfoLp6eN3nV+Fj6zyB99V8zSVo83qkAfWJ+gGqq4fXfX4VPrbOE3hfzddcgjavRxpQn6gfoLp6eN3nV+Fj6zyB99V8zSVo83qkAfWJ+gGqq4fmEtWifKWqP1KVp1T1g7r3ezzQj31oHfjpOqJcEuneV/M1l6DN65EG1CfqB6iuHl73+VX42JH2BN5X8zWXoM3rkQbUJ+oHqK4eXsd07dcC3wGmWZRIA6oxRkukV2n65nD4ueoOTv+GmU/8dB1r+x7+D5N4bWis63z46XroXzdPaKtqZ5uWSI806kDrxMcAapHeLK14eg2oxhgtkR5p1IHWiY8B1CK9WVrx9BpQjTFaIj3SqAOtEx8DqEV6s7Ti6TWgGmO0RHqkUQdaJz4GUIv0ZmnF02tANcZoifRIow60TnwMoKa6atj26naacRqjOuNRqLFd23ypQnNZ39hCWMcr+9d24KfriHJZlEgDqjFGS6RHGnWgdeJjALVIb5Yt7ek1oBpjtER6pFEHWic+BlCLdFA7QPMrAxfQKt2jGmO0RLrXCGYY07wziOgbZCHeA/jpKhDVjvzGZKKtMd3Wnl7b1w7FcmnKsxHtr6EAnE+df/8+/HsDzNMS6ZFGHWid+BhALdKbpRVPrwHVGKMl0iONOtA68TGAWqQ3SyueXgOqMUZLpEcadaB14mMAtUhvllY8vQZUY4yWSI806kDrxMcAapHeLK14eg2oxhgtkR5p1IHWiY8B1CIdcBul2ym/zaojilXPunaPn1edVh1ovRl8fCv5US6LEmlANcZoifRIow60TnwMoBbpzbKlPb0GVGOMlkiPNOpA68THAGqRDraKE+u6AuIOG9y1A7hyRsW/4Y0FPTcK/vNQZcHpz8dGbQyYf7wPwNdCoVDYWuCOR4vyeLfXmr+xHoXCaGZUn+IkunLjYk29YLNqpfSexE+HJMuhVAbTYGsQ9dRdcrLePjxvp7dxHdpwDD7BoTZ4DiYpbSRyiUAM5mfd7eBkY+eTeVoiPdKoA60THwOoRXqztOLpNaAaY7REeqRRB1onPgZQi/RmacXTa0A1xmiJ9EijDrROfAygFunN0oqn14BqjNES6ZFGHWid+BhALdKbpRVPrwHVGKMl0iONOtA68TGAWqRXwW131XaaVPXlqeurrm1jqJqnSG+WVjy9BlRjjJZIjzTqQOvExwBqkd4sW9rTa0A1xmiJ9EijDrROfAygFumgdoDmV6qqlS3SgGqM0RLpqmEmqRE/DRivUIv0DTHU1m4D7W3Wi0FZmu5PORiotXekjwvXvmG+kt4+OGQdfYPWNZBe0+e5bnD22D9Og8b7ieapGc3DGC2RHmnUgdaJjwHUIr1ZWvH0GlCNMVoiPdKoA60THwOoRXqztOLpNaAaY7REeqRRB1onPgZQi/RmacXTa0A1xmiJ9EijDrROfAygFunN0oqn14BqjNES6ZFGHWid+BhALdKr0B2Q5jPHT5NIA6oxxsdqnyiRRh1onUBTTxD1Bfx0Ha14eg2oxhgtkR5p1IHWiY8B1CK9Wba0p9eAaozREumRRh1onfgYQC3SQe0AzS+4XLCrdI9qjNES6aopmGHcHIBr0HiKk0Tx1CK9CnwkHWlwhtqqNOha2T9gPSl++coe23W33e3Tn/6MfeWrX7VjjzvO1qxcZWPSqG3KQLtN6m+3rvxRYoiW+shOLKTRb+MI2vp3glbNZ928AsZoifRIow60TnwMoBbpzdKKp9eAaozREumRRh1onfgYQC3Sm6UVT68B1RijJdIjjTrQOvExgFqkN0srnl4DqjFGS6RHGnWgdeJjALVIb5ZWPL0GVGOMlkiPNOpA68THAGqRXoXfAWkd1HlGvqoxhkV9NwXaF9C+FD9dRyueXgOqMUZLpEcadaB14mMAtUhvli3t6TWgGmO0RHqkUQdaJz4GUIt0MKqPoKHoG8DgrKHnsLUwVqEW6dWktjR26k2Ds74J4+3w5z3HDn3hc83GdFjfmG7be5+9becdd7RZ07a38WuGbLfOSXbA2Ok2Z2CMjR/qStmdycPdQCAFVM1TNF+q8TNQmKcl0iONOtA68TGAWqQ3SyueXgOqMUZLpEcadaB14mMAtUhvllY8vQZUY4yWSI806kDrxMcAapHeLK14eg2oxhgtkR5p1IHWiY8B1CK9WVrx9BpQjTFaIj3SqAOtEx8DqEW6R7fbVWVTszk8Pc2+/yqi3CpPrwHVGKMl0iONOtA68TGAWqQ3y5b29BpQjTFaIj3SqAOtEx8DqEU62Gp+ixMzjCNneEjr0UcfY3/605/yA1w35W9xpo8p/7d0aMD2ecbT7LAXP98G99rF7nhkofUt7bEzTzndxna22/wL/mSrbrzTjpi8g83tnmYTB9vtgb5VtrIzfajY+ORr0uCXSqrm1+EPfF1LA+hV8482FNy1+pSnPMUefPDB8luchUJhVMHtFMCzKvE7nPj5J9Tx4FoUbMNYR0G7TrdS+HuZj8ejqnhvHhTAfobvcSQGgoUCqH1Q7ZYGKwRWBm4AMEBL82tvfetb7dOf/rQ98MADebDy+FeYhv9Qe4et6hu01TiMtv/edvzrX2O9O29vi+68y+zSefaR1/yt7dLdYT/62Bft4V9dbAdO3t7GDXbYzcsW2yWDS23h+CHr7+izwfbB4RsJ0rwPzxpe8k0Fw3XC9xjBNjyo9t/+7d/yg2p/+tOfrn1QbaFQKGxJsI0CAwP9tmrVattpp53yl0n8eDq2W4C/bRnBfILtHbbzGBAhj/htJKbxKzIcOLE8XjAoQ//wQh+33367XXHFFbZkyRIbN25cfh9+XgqFzcWoPoLGFY6vWDGwkhxzzNF2+eVXrD2C1gpwQhnCMCnbNp5rhrsA1rR1WN/UaTY4cbLZHXfb3UuX24y5B9n4adNtUup3jx12sB1T7AN/mGfT7lxq29l4uzlthG7u77G+7inWPW6iDQz22YD1p0FaW37oRmPOh1lvokEzGxV8izvppJPyjw+XI2iFQmG0gO0XBmc9PavyD6X/4z/+Y95G33///fkoFAY7KBzU4FXrfGUd2zocwcIrc7VAZ9vgYGO6txdH6OIjYq0WHEGDJ97X5MmT7PDDD7fnPe95eWB2/fXX53lsdZ9TKGwsW80RNK7EOIL25je/2T7/+c/njUArR9B0KDTIQ1v5mjEM0IZs6VCnPekZz7Gpu+5hC+68y+594B5rP/5IO+b4J1vvTTfYnr39dsL47eyif/+KzV06wcb2jbO707e4VVOn2vhZs21lZ49dfNPv7dH+RdbXMWhD7Wne+S0wdY4e/ZzyvUWwDd9E3//+99v8+fO3+iNo/v1imjT7dywUClsOXWdxlAunNF/60pfaM5/5TPvsZz+bjzhhkKVxWyuTJ0+2Zz3rWfaKV7zCvv/979l3v/s9Gzt2bDmSVhgRRvVvcWou6vjGNG3adPunf/on+8IXvrB2gEYYD9R3rQ9KW2PFGkz/DeWQNEBLlcH0rWlwyvZ2+MveYEM77GpLUtzStJFZunKJdSxZaOPuusmWXHOVzejts2nL2mxu1572pO0PtqmT97ahzom2qnPQlo9dbL+64Yd2+9IbrR8DtPRFq20Iz0dL85D+xVw05mvdN8ZoPgnfNzaA73vf+x4zQNNcgnivRxrQeYj6Bqqrh9d9vkdjIp8qzftW+RC0eT3SwIb6Aaqrh9d9fhU+ts4TeF/N11yCNq9HGlCfqB+gunp43edX4WPrPIH31XzNJWjzeqQB9Yn6Aaqrh9d9fhU+ts4TeF/N11yCNq9HGlCfqB+gutcwjS+PRx99tL3pTW+yD33oQ3b11VfblClT1h5l8r4bQucFgyA9zakgDm2IRZ3zBrT+eIA3jqjhTM0ZZ5yRjw7iN5HnzZuXr4XWz6HZ9+ljdV4j3ftqvuYStHk90oD6RP0A1dXD6z6/Ch870p7A+2q+5hK0eT3SgPpE/QDV1cPrmN4qbhLQNzZu3Pi8Qfjzn/9sy5cvzxsC/0FUA59hLwyZUhWDs8ZPOA1Zv3Xbw8sGbOWqtHEYGm9T2ifYrp2TrfeWO+yuC8+3zuWLrb9npfUPdtiYGTvbhJ32tWU20R7pHbD7lj1stzx0i93Xc5f1DC23ofa08UiDwEZv6cNe2zfm9bF/iAi+b3wbPfnkk7faU5z6HlH316T494+Yus+lUChsGXS9xHqM68AwOLv88svtnHPOyWc4qo4ucb2uw8fAhxp1akDbWDYlnZ2deXt7yy232OzZs23u3Ll2ySWXbJa+CgXPqH/MhgcrJ1YabgS4IfCxVR6YRAZU3mEJ2tNAr7tvja28+ipb+JOf24rv/NJmXXSTTbvkVht79QLbvrfNpnR229gxY2zlGLO/2FK7qOthu3yn5fatNVfY/973S/vZvefbfb0P22BHck2fLIZlGJg1BmcN4nmK3yupamOelkiPNOpA68THAGqRXgf/RhyUYRp1FPrp37LqbwpUY66WSI806kDrxMcAapHeLK14eg2oxhgtkR5p1IHWiY8B1CK9WVrx9BpQjTFaIj3SqAOtEx8DqEV6s7Ti6TWgGmO0RHqkUQdaJz4GcJrrLY4u7bXXXvmI2QUXXJBP/UVehOu1wn5YuB2gD19V57afOYzZ1MAX/XC7dfHFF9sOO8y26dOn52vgSCv9+1jOf5XuUY0xWiI90qgDrRMfA6hFerNsaU+vAdUYoyXSI4060DrxMYBapIPaARoWToUrSZXuUY0xWiLda1XokTO8GR8bewzZ4NrpxrCJH8vg4JCNs047Yoc97cy9jrAzdzzADljZbU9a1mZHdU+zHde027jV/Xmj9Kj125o9treuY/ayNQdMt1lPn2s7P/fJtsNJB9nglLHWO9gv/QDUG+Wx85TUQFPYXpXn25vRqAOtEx8DqEX6huBCiA0b/15cCNlGHUT9ANUYoyXSI4060DrxMYBapDdLK55eA6oxRkukRxp1oHXiYwC1SG+WVjy9BlRjjJZIjzTqQOvExwBqkd4srXh6DajGGC2RHmnUgdaJjwGqcV2dNGmSLVy40BYtWpS/OOtpx4gqT5ZmYJzmsL4pC+D7wJFCnLHBnapTp07N75Mwthl8rO+PRBpQjTFaIj3SqAOtEx8DqEV6s2xpT68B1RijJdIjjTrQOvExgFqkg63uCBro6GgcfcGbqIqp8mhM8tTj8IeSfLC+jUlDtEN3frIdOvsI22PCrrZz2xSbtaLftlu4zPa2sTana5JN3m6G7Xnck637gF3spv7F9mjnauuYPdWmHnKw7XvaaTZ25nRbM9CXvdFH+ujZSwb9P3aeqt9rHczTEumRRh1onfgYQC3S62A7ny2EX1Lg3VIk8o58fbsvkR5p1IHWiY8B1CK9WVrx9BpQjTFaIj3SqAOtEx8DqEV6s7Ti6TWgGmO0RHqkUQdaJz4GUIv0ZmnF02tANcZoifRIow60TnxMFdgOYz1GQTyPrvkdDvGe7Mfr0U7Lo3lRvU6jDrROoLF/1PG+li5dmq+5w12qOm9RfhU+FtMsSqQB1RijJdIjjTrQOvExgFqkN8uW9vQaUI0xWiI90qgDrRMfA6hFOqgdoI1GsHMfGGh8S9s0NHww6FvT22sPP/KgLV32kN1z9w12+/xLbNkt19rMgdU2rb3DXvPSl9tb//VfbZ9D5tqhp59obbMm2E0X/8au+tPv7aEHFtjihQ/Y0sWLkpf/46w/r63OO/5Ym+79jhxc8HihLe6IOuuss+xVr3p1Ph2Cmz78+2IOik4Xtk7078m/o58mka4ada17Ir0ulm2sqwYiDXhdp+sKY7dG/HzjKBKuz8KRs61x+7Qh8H75vlDH0X9sy7bWv19h62OrOcWp9cYzcAbXriho8ytN5AE4rSrqeeDXtdqufvAS++3137d5d55jy1Zda5PbH7Tu1Q/arB2n2d6nnmxzD9vPZsyYbot7ltmu++xs7XvNNPvTuXbv9//Xbvj5j6xz5TLrTvOCucExNLwOz2UuOj/cAETz2Qyaqx7NaNSB1omPAdQi3YP3hr8RvnFOnDjBXvjCF9h73/teO+aYY+zuu+/OR9NwR63/DKoK8XVfIj3SqAOtEx8DqEV6s7Ti6TWgGmO0RHqkUQdaJz4GUIv0KjSnlHUFyz2X/QjGeVRjjJZIjzTqQOvExyjUG9vgxoX0uOSkvX39bXCE92Q/VX15NE5zWSI90qgDrRPfjoK/15gx3fl054byq/Cx9K7SPaoxRkukRxp1oHXiYwC1SG+WLe3pNaAaY7REeqRRB1onPgZQi3Qw6k9xonBmcZ0Yd+q8lqkKzVca042CARScGTLQ3meL+x+2R/rutbZxK2zyjNTe1WOLex+1ld39ZuMat47fdu18W4DbyW3ATjr2CBt79CFmyxebPfygdQ30mW6n4v4b4H1xHn1cM2iuejSjUQdaJz4GUIt0BdPYeK9atcqOO+64NDB7nx1xxJH285//zN7+9v9nv/jFL3K7nur0BbqWKKaU0V/837GURsGd2dyu4ZXbAhKtZyCK0RLpkUYdaJ34mAi04y3oBfMbosrT61X9q8YYLZEeadSB1kmk8e/l26LYKqJcFiXSgGqM0RLpkUYdaJ34GEAt0ptlS3t6DajGGC2RHmnUgdaJjwHUIj2/jubnoBFoKNjg77DDDvl5NJ/5zGfyc9DGjBkzHBXPE/C6Tito6xhqyz+Evk/XNNtv4gyb1t9htzy0wHr32dH+6VMfMps01t776U/ZH6+7zs548xtt6m472m1XzrMrv/RNm9DTa135551wAem6913Xf9V8AsbiOWjvec978k89/fznP98qnoOGHdBznnOmnXba0+yyyy6z3//+vPy0cZzaxDduUDdPSqQVtg6iv/ETgQ0tszjihNP+uPAc+Gu3+Ll5nyhGQZvXIw2oT9QPUJ1xKJhfzP+pp55ip59+Rv4pOmyfoQO8+lyAGHw5848KaqZ/oPPKGAVtXo80oD5RP4A65hs3ROAZnL/85S/zY0XGjx+f26L8KnyszlekR/NFTXMJ2rweaUB9on6A6urhdZ9fhY8daU/gfTVfcwnavB5pQH2ifoDq6uH13MfWMkAD+OaJARpWEvwW5yYfoKGk9vF97Tajr9N2HDPJJrR12h1L7rOZhx5g7/j0x3LcZ7/8Rfvh975vu55+mo3bfY7ddOGFZg8ssSnpi2Tb0ICc0nwsvv+q+QSM3doGaNyYffzjH88b41tvvTVff7a1Pb+tUNhcYLt10UUX2c9+9rNwsBKtf0DXNV0fieaSSAPqE/UDVGccSjRAw/aZA00O0JiD7QDKnnvumZ+Vhoe91j3DMuof0I91D/tUIg2oT9QPoI73hm0Y9j04A4DncOJmARDlV+Fjdb4iPZovappL0Ob1SAPqE/UDVFcPr/v8KnzsSHsC76v5mkvQ5vVIA+oT9QNUVw+v5z7qBmijDawkO+64o73xjW/MR9D4Y+mbmq6hNhsz0Gadg0PWkT6dNWnAsf2eu9hr3vC6/Myfb3z7m/bHSy6x9gnjbE3a6OBM8YRUurERyp9m+mDTv9EfcGPAAO3d7363zZ+PAdo5o/6nnrBgYWN85pln5idwY0d06aWX5g06/l6N61XW/4btido21edZKGxpsPwvW7YsFy7rW9PyjXnFdumUU06xpz3taWsHaFi3o/fB94jBGQY22HZvTe+bA7Q3v/mf7Jxz1h+gFQqbi61ugIYjaHhyNQZoDz74YL5gc3PQnj4VbDaw8cB//fhh3oHGYyE60sY1bYdsADcWtKX+U0xH2tggnk/H2ZSbnK1tgAYwQMORtMMOOywP1FD//e9/nzds2CnhCAJ2Us2yNe28CuuoG4RvizS7nGL9wJcVbL+wbmxtyzfmFzcAnXrqqfbUpz7VPvCBD+T3hAGaB8sA3x8ufQD8Yq1to5kyQCtsCbaaARpWYqzcOIKGARpOcW6WARq2FekTaWxm0sTwDmYgVQfSBgh0pHFFRwpq/JgTam3Wvt7QbNNucHiKE7/FiVMiW8MADeDiYdytOX36NDvppJPzDQN4Dhp+TBk/l8Kf6ioUtlWqBh86cN1aBimE84sj4qeffrqdeOIJdvbZH8hfuKrWZ8Qjj7mcZnwrNxpsCcoArbAlaP4QxhZGV2wM1DbVt87QI0nYfKJPwEv+29IGCAUfGwZlGJY1jq+t29huLvDtFAM1ztPWADa+GEyuWLHSfvKTn+TTIPhJmEMPPTRfi4KNnsK/b1QKha0RrK9RUba25Zvzi5t9sC3u7W2sx/59EWwH/MANsdC2vnW7bIsKI8dWM0ADWJmxYmOwwunHi9+oYBIlD8qS/SD6TK/oCYUf2FAepDWm0hAi/dsYuDWiNh18j433Pbq/ZVaBDTkGajh6du6559rHPvYxu+GGG/IdnQr/FvrKUigURifYHmMdr7pkAe1ch3WbDR1HzvTo2Whe1zHv+FKJ+d4U+55CYUO0607QF+CnSaSrRl3rnkhXzbdjGisGCgYrXPH1NSoDA/25YOXS0vj2F5cc059y+tc9g2tg+DWX5JeLahsonI+o6PzivbCozsEf2yIivS6WbayrBiINeF2nqwoHaqjj81A0Tjd+qm8Lxb8nJdJVo651T6TXxbKNddVApAGv67TqT2SqPpNIAxvSqGvdE+l1sWxjXTUQ6axjGzl27Jh8PRmm/aCFcSiN7VcD1X1h++PB51f5tdontl94j9g/AJ/fTPGxSqSrRl3rnkivi2Ub66qBSANe1+m64mMVr+t0XfGxSqSrRl3rnkivi2Ub66qBSANex2v8lWeYDRmQSAOqMUZLpKtGdBrXnOGJ1atXr8lHZLCy4BsYdvh48GlEezvuGuzIK5gWXKiO6whwJAd1FGxwuNFBX3z1pbOzUVTjofyqUgXeGr9JYkOG96IDSNTZpvBz0RLpkUYdaJ34GEAt0puBudyQczrSFLRtK8W/HyXSVaOudU+k18WyjXXVQKQBr+u06vo3fqKViEiP4qs8VGOMlkiPNOpA68THVIEHh0+YMD5vT6t+ug34bRdgrC4vgHXqrZTHS+SFOuYf+wlch7ZmDX4FZeP68p8PP+cq3aMaY7REeqRRB1onPgZQi/Rm2dKeXgOqMUZLpEcadaB14mMAtUgHbVOnTn2s0zBYCDVRF8pI951ofrRAo83rXsM0D51jsLLTTjvla5nwbC1ck8XBEVYgDIL04YF8xSAMrzp/8EQeNixoQ2n2rsJooIS+MWDEYIp9K/DG/GPlxi8iKDiC1tfXuKYOXijwafyweKOOn0j6r//6Lzv//PPzM8agR/1Eel0sYL8K41VXD6/7/Cp8bOQJjXHN+ha2Dpr5+wPq/u+v+ZpL0Ob1SAPqE/UDVFcPr/v8KnxsnSfwvpqvuQRtXo80oD5RPyDSqWH7tNtuu+XHHn3+85+32267be32F9s7bCc1PvKExhgUxmws6t0qOi98JfihdDxSBDdF4BIN3PyEbT7nt9l+vS/zQaR7X83XXII2r0caUJ+oH6C6enjd51fhY0faE3hfzddcgjavRxpQn6gfoLp6eD33UTdAGw1wRrHC4/EML37xi+3kk0/OT3P2d9HgCNqYMWOb+nAYg299PLrGARpjG78th0KvdXUMstCOV/joUTJMs9CLr+gPF9WijbANcPAHDRsBgIEdLqrH+8XDX3Gkb1sG7x2Fn2GhUNjycJ3k9grbKmxz3/a2/5e3UR/5yEfyGQcUxgK/DjOfVK3jjIvavYdS5dcM2icHmfjJurSftLPPPtt++9vf2jnnnLN2IFoobE62igEaVhIUDFD+/d//3b70pS/lB59iUFUFBzqEgy+lsYGJR8IRG1rx4cOVGlTF+zgSzSPAKU88IBcbwO985zv5MRX6qA32A98NzePWAN4H3wsK6ts6Q3yLw0dX+Zbx50SVn8Gg/H31c1m7DKQvDbnGOMQkT8b6z3NtnmgktyV52KkR447+Qlvnmf5u6d9GRBlcb+vgb46jaPvss08evOAGoK9+9av5iD++RHZ04FcFHrudi5YLLn94aXaxoU8zP9K+MQwMNO6cnz59en4OJQaheN4b5hFf6gGX/0Jhc7DVHEHDIeZXvepVdvDBB9s73/nO/C0NAxq0RSsJV3hF41DXDQfj+Vq10kW6z+F8VXlUofMH6APwzKHnP//5NnfuXPvgBz/4mKNoPndrBu+F72dbeU91rB2cpUFNXpby+24sm+34L38WeTLFpvra+HW0DX9WA/n+4/QFAA/rSznIy/n5y8hg41Exabo9meTPNnsPpXHXQIpLOfRGf6k+AN8Uw78JHuCcm5PfYPLDQ5vh0TaEZZXpKScbFLZ1sEzggbU4/feWt7zFrr/+evvRj35kCxYsyEee+KWT21pMU6tD13sueyggL6/BoI8a4zYG9gsvHCXD/uYVr3hFfo8f+tCHbOHChflAAeN0PguFTc1WMUDDNzKsLDj3/z//8z/rHUHCCoIYv6JQ821cealxOsJ7gqgvTzMxHj9fQDWcGsXpWwzOvvnNb+YHJeIzwIYkyt3a2RbfUxUYcOUhTdpv4c7gNX1rrLOr8TuFg/2DNm7MOOtIA7V83UtnR2rDU9jbbE1v4xrFsWmw3tvfm+84bu/qTB4Dya2R155Msf70DeBneNrTgGsgeXXYuOTR3tZhPcmjHwOtztSWYsZ0dltXR4etWtNrA2mZ60hfhNAHjiaMw+UD6c/R29s49d7WkdbN3j4b2z3GxrR3W9tg2onmlsb7KWzbcB3FNgjL5t57750HMwcccIAtWrQoD2Y8GJzp5STNgH7YF9BtAnRM9/c37pT3A7eNBb44a4Fy8cUX2/e+9738Jdmf2tR5KRQ2NaP6JgHWlyxZYi972cvy0SM8UT86/8++fC7rmwL6AfVk383gY71n1Ac1PHn/rLPOskMOOcTe//73r73Wg54+nnhfovGsE8arrh5e9/lV+Ngqzyo0X3MJ2rweaUB9fN+MV109vO7zq/CxeTqNegZT6R1MA6nOITvs6CNsn/32SXGDduedd9oVl1xhAz29duRhR9jipYttwZ0L0vCnI+8Qx4zpsvnzr7a27k477qQTbY+997TeNNC6+up5dvM18836zGbusIOdeNpTbcyEcbZk8SN2yR8vtOULF6fe2237XebYUSceb+Mmj7cH773XLj3/j9a7sse6p0y2Y48/3naYPTsP5K6ed7XdcPU1eZ732n8/O+LJR+RB3cNpR3zx7y+wviWrbUInBnD4jPAe4x1l9P5JpPvPVfM1l6DN65EG1CfqB6iuHl73+VX42DpP4H01X3MJ2rweaUB9on6A6upBT7ZjwIVBGrQ5c+bk39zEdppxaMfgyfezKWAfuAZ4U/TB64kfeeSRfCQQ213cUIbtLfD++jlsCB+LaRLpdX1pLkGb1yMNqE/UD1BdPbzu86vwsSPtCbyv5msuQZvXIw2oT9QPUF09vJ77GI1H0NbOXHrFt38cKcLF8V/84hftqquuytP+zW/r4LPAN0QcXsd1EN/4xjfsyiuvXHskEY/hQAw/u8LWAwdoy3t77KnPepodeOTB9seLL7DB9N8ZTzvd/vDb39tVv77YXv+WN9pddy2wc8/5RVogOu0FL3lx2gmOsW9+8at2xBkn2gknnWQXXnCBTZw0wY485sn2s5/+n9169XX2un94o63qW23zrrnaDj3sEJsyYZJ9+dNfsImTJ9nLXvdau/uh+23B3Qvs2KOPsrtvvd1+8+Of2vNe9UqbMnWqXXrJpbb9jBl24rEn2Bc+/4X8qIGXvvylduU1V9r9D95vp536NHtwwb32f1//oU3qGG8d7R15kFaWwScG3ObwyBWO9Pf3r3v4LJcDbpdQUN9U6HLGedmYZY/zxFy8YlA5Zgy+BDcuC/AxhcLmpiNtcN8/XH8MXCAJF9Iq3aMaY7REOuE07tx8yUtekgYmY9Og5Jtrj55FsQq1SG+WLe3pNXyrW7x4cR6UnZR2xn/84x/X3ijBeGw8WGfRdq8DrRMfA6hFerO04uk1oBpjtER6pFEHWic+BlCL9GYJc1PB3cB9g/122NFPts406PrNb8+1hfNut4dWL7bUoy287z478NBD7eElj9hdt9+ec3bbczfrHNdh1992nZ323GfbZZddblefc5HddeNtNmbaBJu03RRbk+wPPOgA+/b/fM0euPpOu+mOm+yw5HPPPXfb3MMPsc6JY+zHX/mqLbzubrt14YJ8FO7me+9KA7lD7YEHH7ArLviD3X3trdbf3WaLFi60OTvtaLvvvYf9+rzf2IPzb7PbHrrLxnaOtYX3PGBdlgZn/C/NX/S5RO8/io00oBpjtER6pFEHWic+BlCL9GZpxdNrQDXGaIn0SKMOtE58DKBGna/Y5nBAAw2vfPyRLzgKFekbW+iHV/XmtG/3OtuwHaWGOtv0ZgAQDc7Y1gw+FtMsSqQB1RijJdIjjTrQOvExgFqkN8uW9vQaUI0xWiI90qgDrRMfA6hFOqgdoG0JOGN4xfPBpk2bZq973evs61//Rv5x9G39ERN14DPBIO2ee+6xZz7zmfbwww/nU2A4qqEbDsRFG5LC6AR/KdyJ1p9q9z54r+04Z0c79Wmn2t5HPMmWLlls115xRT5VedDhh9miRxfZvXcuwJ7CZu8yJw3CJtoNC261w4480i7/02W2qme5dYzrsjvuvt0W3Haz7XvwXJs0YaLNu/hS65rQaX19vXbd9X/Jlw0ceezRNmn6VNtp3z3soGMOtf322cfa0vL15z9faXfecZsdOvcgO/mpp9ieB+xrt9xyqz1wUxowLn44f0k67fTT7KDjjkjLY6dd8acrbGBVn3W3dxnuUcB1aiCvy6nglaWwbcJtTvR3pra5CkGd87Ax2z/vyVegnqoXCpuTUX0EDef+cfQMg5Jvf/vbecegMcTnAmqR3ixb2jPS8O0URxXxWTz1qU+1yy67LJ9W8N/0mB9Nqw60TnwMoBbpzdKKp9eAaozREumRRh1onfgYQC3SmyXMzVr623a028pVK+yGa6+xW2++2fp619hRaRC13fbb2x3zb7aDjzw8X4N2zx135gHbrD12spmzZtp118yzuYcdbg8/9LAtvutBG0rLw55z97Ptd9k5rUMrbO899rTr5l1j/Wv6rG1Mp530lJNs+YqVNie1r+xZafOuvMoWL3zEHrrvIbv1pltsyf332ZpFy+26q+bZ3ekLQHdnl5186im2rL/XHr7lLrszDdbmXzvfli1ZZvvs/yQ78IC5dttfbra2NE8d6b1wgAY2tJvk5xl9Ll4DqjFGS6RHGnWgdeJjALVIb5ZWPL0GVGOMlkiPNOpA68THAGpVOogGRtA2Z4nmZ3MRebfSXzSvLEqkAdUYoyXSI4060DrxMYBapDfLlvb0GlCNMVoiPdKoA60THwOoRTpo/laaEYIrHK49mzVrlh155JH2gx/8IA9MUNDu0RW16s1GeoTGRX1taTBPOGJ23nnn2YwZM+y1r32trVnTu3ZeR+M8F+rBgAZL3OqVPXbKiU+xs170Env0nods3s8vs6uvvtp23nFOjnvkwYdspzmpPpDiZ06wA+YeiAXWrGfQFtx6m510wnFmk7vN0v8nnHC87ZgGdguuv9HGd4+1o489xmyl2S677mLHHHOs9ff223133WvTp063e2+81W7+w3xb09Ob++/ummDPe9EL7bjjT7AHr7/fLvzJ721hGsDNmD7T5uy7p7369a+zvjX9dvO58+0PF1xoM1I/48dPzOtsGmZucD1rZj0sbF1w+8vt9EgWLk949fVWS6Ewmhh1pzgBVhQ8IPBpT3ua7bfffvmxEjy1qSsS65zeWKo8vIbpTTkA2pAf54vzwTqOKOIU1c4775yf03Peeb9D69q4wtYF/moYpGFZGEo7nCenwdQBRx1mexyxn+2z7z52xSWX2oN33G+9vSvtqBOOtd0P2s+OOOrJNn3GNOtN68k1V86zuxcssIMPmmtHHneMHXLUEdbR3ma//tkvrH/R6rQurbBT07q0+9x97MijjrIrL7/KbrzyGluUBl377Lu/HfeUU2zvQw+0o558lM3781V2140325gJE+3Ek59qex1ygB107BE2efIU+8PvzrNHFy60Qw451I468QTb4ZC97PD0BerG627IfmM6uobfUHpHWFaHl0lfypeIJy7+749pEul+WdF8zdX6pgB+3lP7LhRGglF7ihPfxk844YR8tAi/P4lBCdE41lWrgn1EsdR05dc41H3bxpY6onZqeMU84BVP8J45c2b+Lbzf//68rOHbJOO0RBp1oHXiYwC1SG+WVjy9BlRjjJZIjzTqQOvExwBqkd4sYW4q7Wkwg2ecPfTwQvvLDddbXz/uhuu3S/54kd2aBkB4btmyxcvsrrvusXHjxttfrv2LXfSHC+3+O++xVSt6bGBVv910403Jq90eefhR+/2vfms9i5bnZ6Q9cN8DKe9e6+4ea/PnXZsGfJfl55YN9g7a9X+5wfp7U19r+tIA7Hy78er5aV3rtgfuuttuvfWONFfttjT1+4dzz7PF9z9og2v67brU99LlK6wrxc27/M82/9LLrXOow7rbhm9Yyf9iXRquCNH7Z1EiDajGGC2RHmnUgdaJjwHUIr1ZWvH0GlCNMVoiPdKoA60THwOoRXqzNJvbjB7FbKoBVOQNjUWJYquIcqs8vQZUY4yWSI806kDrxMcAapHeLFva02tANcZoifRIow60TnwMoBbp+XW0PQcNQMeTm8844wx7+ctfnn+MF9ONnw9Z/1k39Ih86mA+YC406pFfq31UEfXhNU6rzja8f/yywlvf+tY8gMUDfCdOnJjbonmER5UO0MY6Ybzq6uF1n1+Fj63zBN5X8zWXoM3rkQbUJ+oHqK4eXvf5VfhYeuIJ/WmptqH2NlvVtyY/yyxN5bZx6W/c2d54cO3qNDAfwC8CpDz8QkAS8yAM9KUB3Zr0xQZ0pvVkbHd345EXaXp1byMPvxYwJg32uoavWVydc3pzHTcqjOsek4984f/c1/DjErDeYf3D3OKBuL3IaXSf+8fgrHGqdvjXPXLWY6l6/yDSVQOar7kk9+30SAPqE/UDVFcPr/v8KnxsnSfwvpqvuQRtXo80oD5RP0B19fC6z6/Cx9Z5Au+r+ZpL0Ob1SAPqE/UDVFcPr/v8KnxsnSfwvpqvuQRtXo80oD5RP0B19fC6z6/Cx460J/C+mq+5BG1ejzSgPlE/QHX18HruY7QO0HAELc1bfv7ZBRdckH/jDfCaA8TUeRONIxrvvTD44ZGoOur6rMPPC4GfnxegOl4xfziy8oxnPMPe8Ia/tbPP/oBdd911eaCG+WacEmmA/dBfYbzq6uF1n1+Fj63zBN5X8zWXoM3rkQbUJ+oHqK4eXvf5VfhYeuLfrKdp/A6Aggvv+dhXzgFfkYKBHAZVyEIdrdlvWB/uYi06iZ/WbOSsIw+0UlL28O9zuG75QbSNKTwnqsm33/AI3j+IdNWA5msuQZvXIw2oT9QPUF09vO7zq/CxdZ7A+2q+5hK0eT3SgPpE/QDV1cPrPr8KH1vnCbyv5msuQZvXIw2oT9QPUF09vO7zq/CxdZ7A+2q+5hK0eT3SgPpE/QDV1cPrPr8KHzvSnsD7ar7mErR5PdKA+kT9ANXVw+u5j9E6QAP4LbdDDz3U3va2t9mtt95q8+dfY4888mhqb+yusGPo7OzIr9GTy6Hjm7+eHlW0b8TAi3dDKtH72hTAN/8+YppPvFcCfwzEcPSiEdPoHwMzPKsHP6Vy4okn5EeP/PjHP177sFrOF+J1Hv00oS/aWCfqRbwnifKr8LF1nsD7ar7mErR5PdKA+kT9ANXVw+s+vwofG3nmmOHpfJRsGGi6lKMFBXFrc9J/jaHV+nVFlbU5ja7XtnG+1s4TiptX/Aca69+wwQbI8ymx3pP4/onmay5Bm9cjDahP1A9QXT287vOr8LF1nsD7ar7mErR5PdKA+kT9ANXVw+s+vwofW+cJvK/ma+6mwns3O69+PqvwsXWewPtqvuYStHk90oD6RP0A1dXD6z6/Ch870p7A+2q+5hK0eT3SgPpE/QDV1cPruY/R/ksC+P2zfffdx04//QybPXt2vvYKAxW2Vw2+AI+2IQavHnroB0MiTdG8Ko8qNE/ni3W2c4BGHe8bD1HEZ/KrX/3Kbrzxxnzaie8TtDIfhdED/2q6lOJvunZZSQW1wVTBK+MwsMIgbhBxw23UNT+ztj0tdypDRzynh18Bw1QjYlHBhiMKhdHEY9aZQmELMuqOoEUafuMNpzxBdPqxql++ojAPR6aq5mUkYN91/en8c5rw/WDQidOaGkNPjQfqpWg864TxqquH131+FT62zhN4X83XXII2r0caUJ+oH6C6enjd51fhY9UzNawbEA3reeCVWBuF/PxfA9xcoH5DKRBHzdqSJs45D14N30YO29dlw28Yxg9PIobzpLlA35N6AcytorGAniDSVQOar7kEbV6PNKA+UT9AdfXwus+vwsfWeQLvq/maS9Dm9UgD6hP1A1RXD6/7/Cp8bJ0n8L6ar7mg2Xlohqj/unlttm8fW+cJvK/may5Bm9cjDahP1A9QXT287vOr8LEj7Qm8r+ZrLkGb1yMNqE/UD1BdPbye+9gaBmhAfVCPfKM8T5U/oOfmxPft+9zQvKFdcxiv7R60VenAewLvC9TD6z6/Ch9b5wm8r+ZrLkGb1yMNqE/UD1BdPbzu86vwseqZGtYOZ6jrAC0rw/nqw1hMQ8EUjqo11HUeIGXCAl0N+2U5TwPVAPXsi7zUmPtP03r6FbAXvqZItXrCwL9PYesjWqeI/k29rtN1+Ng6T+B9NV9zCdq8HmlAfaJ+gOrq4XWfX4WPHWlP4H01X3MJ2rweaUB9on6A6urh9dzH4Ycfvr7LZuJ2/H5gYs8998yvj4fog1GiD8ZrJPrQRhKdt6r59Dqndd613gr8u4BN8bcptEaz64Vf4vn3xpGyBmm6PS0Xg+uuUls3RBsmTWL5yMtLis0SfLKWJzO33Hprbt97r73S4G5YHKbRb+oHE5o0DI7gkXXzVhgpyvrcWEZb3Q5uajbV/m5T/j03x7LR6vvcVJ9LxOZ4fxvDppoP+LSdeOKJI7IkX3PNNfn1kEMOya+F0QH/LqD8bUaeZteLxrCoAU89ogwN4KhZWoXTTqkD1yKmgkFaVlPcUBph8fQ+xlYDqQ1xeSIx0N+fjTraG9dpwvvqefNy20EHz01+uHGGAzKk4QhcIy732wSNnp5IbLl3XNbn0cGm2t9tyr/n5lg2Wn2fm+pzidgc729j2FTzAZ+20047bUQGaPPnz8+vePJ9YfTAvwsof5uRp9n1grt8nFbkUTDUp06Zat1d3fm5ZHg23uDQoI0fNz7f2btm9ep81+/yZcts+vTpa58liFdc19nV1WWTJk6yjo5261m1ylb19OQB3CMPP5ymV9vcQw621WtW28qeVXkGdEOBuh6laBxZQ6Xxomy54crWi3y0LVHW59HBptrfbcq/5+ZYNlp9n5vqc4nYHO9vY9hU8zF//nz7/8x+j9qiM19JAAAAAElFTkSuQmCC;" parent="1" vertex="1">
                    <mxGeometry x="70" y="250" width="688.66" height="417" as="geometry"/>
                </mxCell>
            </root>
        </mxGraphModel>
    </diagram>
</mxfile>